<ttFont>
<head>
    <!-- Most of this table will be recalculated by the compiler -->
    <tableVersion value="1.0"/>
    <fontRevision value="1.0"/>
    <checkSumAdjustment value="0xcc5dc303"/>
    <magicNumber value="0x5f0f3cf5"/>
    <flags value="00000000 00001001"/>
    <unitsPerEm value="1000"/>
    <created value="Sun Jan 22 08:09:23 2006"/>
    <modified value="Mon Mar 19 17:54:17 2007"/>
    <xMin value="-79"/>
    <yMin value="-200"/>
    <xMax value="1002"/>
    <yMax value="956"/>
    <macStyle value="00000000 00000000"/>
    <lowestRecPPEM value="9"/>
    <fontDirectionHint value="2"/>
    <indexToLocFormat value="0"/>
    <glyphDataFormat value="0"/>
  </head>
    <TTGlyph name="A" xMin="6" yMin="-7" xMax="702" yMax="693">
      <contour>
        <pt x="702" y="25" on="1"/>
        <pt x="473" y="693" on="1"/>
        <pt x="244" y="693" on="1"/>
        <pt x="6" y="0" on="1"/>
        <pt x="204" y="0" on="1"/>
        <pt x="239" y="116" on="1"/>
        <pt x="455" y="116" on="1"/>
        <pt x="495" y="-7" on="1"/>
      </contour>
      <contour>
        <pt x="410" y="271" on="1"/>
        <pt x="282" y="271" on="1"/>
        <pt x="347" y="489" on="1"/>
      </contour>
    </TTGlyph>
    <TTGlyph name="AE" xMin="1" yMin="0" xMax="886" yMax="690">
      <contour>
        <pt x="886" y="0" on="1"/>
        <pt x="886" y="159" on="1"/>
        <pt x="622" y="159" on="1"/>
        <pt x="622" y="272" on="1"/>
        <pt x="841" y="272" on="1"/>
        <pt x="815" y="437" on="1"/>
        <pt x="622" y="437" on="1"/>
        <pt x="622" y="531" on="1"/>
        <pt x="877" y="531" on="1"/>
        <pt x="877" y="690" on="1"/>
        <pt x="308" y="690" on="1"/>
        <pt x="1" y="0" on="1"/>
        <pt x="208" y="0" on="1"/>
        <pt x="255" y="116" on="1"/>
        <pt x="432" y="116" on="1"/>
        <pt x="432" y="0" on="1"/>
      </contour>
      <contour>
        <pt x="432" y="271" on="1"/>
        <pt x="317" y="271" on="1"/>
        <pt x="432" y="557" on="1"/>
      </contour>
    </TTGlyph>
    <TTGlyph name="Aacute" xMin="6" yMin="-7" xMax="702" yMax="889">
      <contour>
        <pt x="560" y="856" on="1"/>
        <pt x="345" y="889" on="1"/>
        <pt x="296" y="738" on="1"/>
        <pt x="408" y="738" on="1"/>
      </contour>
      <contour>
        <pt x="702" y="25" on="1"/>
        <pt x="473" y="693" on="1"/>
        <pt x="244" y="693" on="1"/>
        <pt x="6" y="0" on="1"/>
        <pt x="204" y="0" on="1"/>
        <pt x="239" y="116" on="1"/>
        <pt x="455" y="116" on="1"/>
        <pt x="495" y="-7" on="1"/>
      </contour>
      <contour>
        <pt x="410" y="271" on="1"/>
        <pt x="282" y="271" on="1"/>
        <pt x="347" y="489" on="1"/>
      </contour>
    </TTGlyph>
    <TTGlyph name="Acircumflex" xMin="6" yMin="-7" xMax="702" yMax="879">
      <contour>
        <pt x="702" y="25" on="1"/>
        <pt x="473" y="693" on="1"/>
        <pt x="244" y="693" on="1"/>
        <pt x="6" y="0" on="1"/>
        <pt x="204" y="0" on="1"/>
        <pt x="239" y="116" on="1"/>
        <pt x="455" y="116" on="1"/>
        <pt x="495" y="-7" on="1"/>
      </contour>
      <contour>
        <pt x="410" y="271" on="1"/>
        <pt x="282" y="271" on="1"/>
        <pt x="347" y="489" on="1"/>
      </contour>
      <contour>
        <pt x="534" y="745" on="1"/>
        <pt x="438" y="879" on="1"/>
        <pt x="276" y="879" on="1"/>
        <pt x="174" y="729" on="1"/>
        <pt x="287" y="729" on="1"/>
        <pt x="356" y="782" on="1"/>
        <pt x="428" y="724" on="1"/>
      </contour>
    </TTGlyph>
    <TTGlyph name="Adieresis" xMin="6" yMin="-7" xMax="702" yMax="881">
      <contour>
        <pt x="702" y="25" on="1"/>
        <pt x="473" y="693" on="1"/>
        <pt x="244" y="693" on="1"/>
        <pt x="6" y="0" on="1"/>
        <pt x="204" y="0" on="1"/>
        <pt x="239" y="116" on="1"/>
        <pt x="455" y="116" on="1"/>
        <pt x="495" y="-7" on="1"/>
      </contour>
      <contour>
        <pt x="410" y="271" on="1"/>
        <pt x="282" y="271" on="1"/>
        <pt x="347" y="489" on="1"/>
      </contour>
      <contour>
        <pt x="529" y="738" on="1"/>
        <pt x="529" y="881" on="1"/>
        <pt x="385" y="881" on="1"/>
        <pt x="385" y="738" on="1"/>
      </contour>
      <contour>
        <pt x="323" y="738" on="1"/>
        <pt x="323" y="881" on="1"/>
        <pt x="179" y="881" on="1"/>
        <pt x="179" y="738" on="1"/>
      </contour>
    </TTGlyph>
    <TTGlyph name="Agrave" xMin="6" yMin="-7" xMax="702" yMax="889">
      <contour>
        <pt x="702" y="25" on="1"/>
        <pt x="473" y="693" on="1"/>
        <pt x="244" y="693" on="1"/>
        <pt x="6" y="0" on="1"/>
        <pt x="204" y="0" on="1"/>
        <pt x="239" y="116" on="1"/>
        <pt x="455" y="116" on="1"/>
        <pt x="495" y="-7" on="1"/>
      </contour>
      <contour>
        <pt x="410" y="271" on="1"/>
        <pt x="282" y="271" on="1"/>
        <pt x="347" y="489" on="1"/>
      </contour>
      <contour>
        <pt x="418" y="738" on="1"/>
        <pt x="368" y="889" on="1"/>
        <pt x="150" y="856" on="1"/>
        <pt x="302" y="738" on="1"/>
      </contour>
    </TTGlyph>
    <TTGlyph name="Aring" xMin="6" yMin="-7" xMax="702" yMax="956">
      <contour>
        <pt x="702" y="25" on="1"/>
        <pt x="473" y="693" on="1"/>
        <pt x="244" y="693" on="1"/>
        <pt x="6" y="0" on="1"/>
        <pt x="204" y="0" on="1"/>
        <pt x="239" y="116" on="1"/>
        <pt x="455" y="116" on="1"/>
        <pt x="495" y="-7" on="1"/>
      </contour>
      <contour>
        <pt x="410" y="271" on="1"/>
        <pt x="282" y="271" on="1"/>
        <pt x="347" y="489" on="1"/>
      </contour>
      <contour>
        <pt x="498" y="846" on="1"/>
        <pt x="498" y="868" on="0"/>
        <pt x="481" y="908" on="0"/>
        <pt x="445" y="938" on="0"/>
        <pt x="391" y="956" on="0"/>
        <pt x="354" y="956" on="1"/>
        <pt x="317" y="956" on="0"/>
        <pt x="263" y="938" on="0"/>
        <pt x="227" y="908" on="0"/>
        <pt x="210" y="868" on="0"/>
        <pt x="210" y="846" on="1"/>
        <pt x="210" y="801" on="0"/>
        <pt x="280" y="736" on="0"/>
        <pt x="354" y="736" on="1"/>
        <pt x="428" y="736" on="0"/>
        <pt x="498" y="801" on="0"/>
      </contour>
      <contour>
        <pt x="401" y="846" on="1"/>
        <pt x="401" y="823" on="0"/>
        <pt x="376" y="789" on="0"/>
        <pt x="354" y="789" on="1"/>
        <pt x="332" y="789" on="0"/>
        <pt x="307" y="823" on="0"/>
        <pt x="307" y="846" on="1"/>
        <pt x="307" y="869" on="0"/>
        <pt x="332" y="903" on="0"/>
        <pt x="354" y="903" on="1"/>
        <pt x="376" y="903" on="0"/>
        <pt x="401" y="869" on="0"/>
      </contour>
    </TTGlyph>
    <TTGlyph name="Atilde" xMin="6" yMin="-7" xMax="702" yMax="905">
      <contour>
        <pt x="702" y="25" on="1"/>
        <pt x="473" y="693" on="1"/>
        <pt x="244" y="693" on="1"/>
        <pt x="6" y="0" on="1"/>
        <pt x="204" y="0" on="1"/>
        <pt x="239" y="116" on="1"/>
        <pt x="455" y="116" on="1"/>
        <pt x="495" y="-7" on="1"/>
      </contour>
      <contour>
        <pt x="410" y="271" on="1"/>
        <pt x="282" y="271" on="1"/>
        <pt x="347" y="489" on="1"/>
      </contour>
      <contour>
        <pt x="527" y="887" on="1"/>
        <pt x="450" y="905" on="1"/>
        <pt x="444" y="880" on="0"/>
        <pt x="429" y="863" on="0"/>
        <pt x="418" y="863" on="1"/>
        <pt x="407" y="863" on="0"/>
        <pt x="382" y="871" on="0"/>
        <pt x="353" y="883" on="1"/>
        <pt x="332" y="892" on="0"/>
        <pt x="302" y="901" on="0"/>
        <pt x="282" y="901" on="1"/>
        <pt x="262" y="901" on="0"/>
        <pt x="230" y="886" on="0"/>
        <pt x="205" y="852" on="0"/>
        <pt x="187" y="793" on="0"/>
        <pt x="181" y="750" on="1"/>
        <pt x="258" y="733" on="1"/>
        <pt x="264" y="758" on="0"/>
        <pt x="279" y="775" on="0"/>
        <pt x="290" y="775" on="1"/>
        <pt x="301" y="775" on="0"/>
        <pt x="326" y="766" on="0"/>
        <pt x="355" y="755" on="1"/>
        <pt x="376" y="747" on="0"/>
        <pt x="406" y="737" on="0"/>
        <pt x="426" y="737" on="1"/>
        <pt x="445" y="737" on="0"/>
        <pt x="478" y="752" on="0"/>
        <pt x="503" y="786" on="0"/>
        <pt x="521" y="844" on="0"/>
      </contour>
    </TTGlyph>
    <TTGlyph name="B" xMin="54" yMin="0" xMax="582" yMax="690">
      <contour>
        <pt x="582" y="198" on="1"/>
        <pt x="582" y="234" on="0"/>
        <pt x="564" y="287" on="0"/>
        <pt x="532" y="327" on="0"/>
        <pt x="486" y="355" on="0"/>
        <pt x="458" y="364" on="1"/>
        <pt x="499" y="382" on="0"/>
        <pt x="558" y="453" on="0"/>
        <pt x="558" y="511" on="1"/>
        <pt x="558" y="598" on="0"/>
        <pt x="439" y="690" on="0"/>
        <pt x="318" y="690" on="1"/>
        <pt x="54" y="690" on="1"/>
        <pt x="54" y="0" on="1"/>
        <pt x="313" y="0" on="1"/>
        <pt x="438" y="0" on="0"/>
        <pt x="582" y="100" on="0"/>
      </contour>
      <contour>
        <pt x="379" y="485" on="1"/>
        <pt x="379" y="453" on="0"/>
        <pt x="339" y="416" on="0"/>
        <pt x="299" y="416" on="1"/>
        <pt x="247" y="416" on="1"/>
        <pt x="247" y="549" on="1"/>
        <pt x="302" y="549" on="1"/>
        <pt x="343" y="549" on="0"/>
        <pt x="379" y="514" on="0"/>
      </contour>
      <contour>
        <pt x="391" y="215" on="1"/>
        <pt x="391" y="178" on="0"/>
        <pt x="344" y="141" on="0"/>
        <pt x="302" y="141" on="1"/>
        <pt x="247" y="141" on="1"/>
        <pt x="247" y="291" on="1"/>
        <pt x="301" y="291" on="1"/>
        <pt x="391" y="291" on="0"/>
      </contour>
    </TTGlyph>
    <TTGlyph name="C" xMin="30" yMin="-11" xMax="563" yMax="701">
      <contour>
        <pt x="563" y="33" on="1"/>
        <pt x="537" y="195" on="1"/>
        <pt x="499" y="176" on="0"/>
        <pt x="432" y="156" on="0"/>
        <pt x="397" y="156" on="1"/>
        <pt x="363" y="156" on="0"/>
        <pt x="304" y="180" on="0"/>
        <pt x="260" y="227" on="0"/>
        <pt x="234" y="298" on="0"/>
        <pt x="234" y="345" on="1"/>
        <pt x="234" y="436" on="0"/>
        <pt x="317" y="534" on="0"/>
        <pt x="383" y="534" on="1"/>
        <pt x="424" y="534" on="0"/>
        <pt x="496" y="505" on="0"/>
        <pt x="525" y="483" on="1"/>
        <pt x="553" y="662" on="1"/>
        <pt x="516" y="680" on="0"/>
        <pt x="422" y="701" on="0"/>
        <pt x="365" y="701" on="1"/>
        <pt x="291" y="701" on="0"/>
        <pt x="167" y="650" on="0"/>
        <pt x="79" y="556" on="0"/>
        <pt x="30" y="424" on="0"/>
        <pt x="30" y="344" on="1"/>
        <pt x="30" y="263" on="0"/>
        <pt x="76" y="131" on="0"/>
        <pt x="164" y="39" on="0"/>
        <pt x="291" y="-11" on="0"/>
        <pt x="372" y="-11" on="1"/>
        <pt x="429" y="-11" on="0"/>
        <pt x="519" y="12" on="0"/>
      </contour>
    </TTGlyph>
    <TTGlyph name="Ccedilla" xMin="30" yMin="-182" xMax="563" yMax="701">
      <contour>
        <pt x="563" y="33" on="1"/>
        <pt x="537" y="195" on="1"/>
        <pt x="499" y="176" on="0"/>
        <pt x="432" y="156" on="0"/>
        <pt x="397" y="156" on="1"/>
        <pt x="363" y="156" on="0"/>
        <pt x="304" y="180" on="0"/>
        <pt x="260" y="227" on="0"/>
        <pt x="234" y="298" on="0"/>
        <pt x="234" y="345" on="1"/>
        <pt x="234" y="436" on="0"/>
        <pt x="317" y="534" on="0"/>
        <pt x="383" y="534" on="1"/>
        <pt x="424" y="534" on="0"/>
        <pt x="496" y="505" on="0"/>
        <pt x="525" y="483" on="1"/>
        <pt x="553" y="662" on="1"/>
        <pt x="516" y="680" on="0"/>
        <pt x="422" y="701" on="0"/>
        <pt x="365" y="701" on="1"/>
        <pt x="291" y="701" on="0"/>
        <pt x="167" y="650" on="0"/>
        <pt x="79" y="556" on="0"/>
        <pt x="30" y="424" on="0"/>
        <pt x="30" y="344" on="1"/>
        <pt x="30" y="263" on="0"/>
        <pt x="76" y="131" on="0"/>
        <pt x="164" y="39" on="0"/>
        <pt x="291" y="-11" on="0"/>
        <pt x="372" y="-11" on="1"/>
        <pt x="429" y="-11" on="0"/>
        <pt x="519" y="12" on="0"/>
      </contour>
      <contour>
        <pt x="451" y="-77" on="1"/>
        <pt x="236" y="-44" on="1"/>
        <pt x="191" y="-182" on="1"/>
        <pt x="304" y="-182" on="1"/>
      </contour>
    </TTGlyph>
    <TTGlyph name="D" xMin="54" yMin="0" xMax="675" yMax="690">
      <contour>
        <pt x="675" y="346" on="1"/>
        <pt x="675" y="423" on="0"/>
        <pt x="628" y="550" on="0"/>
        <pt x="535" y="640" on="0"/>
        <pt x="398" y="690" on="0"/>
        <pt x="308" y="690" on="1"/>
        <pt x="54" y="690" on="1"/>
        <pt x="54" y="0" on="1"/>
        <pt x="316" y="0" on="1"/>
        <pt x="403" y="0" on="0"/>
        <pt x="537" y="50" on="0"/>
        <pt x="628" y="142" on="0"/>
        <pt x="675" y="269" on="0"/>
      </contour>
      <contour>
        <pt x="470" y="345" on="1"/>
        <pt x="470" y="243" on="0"/>
        <pt x="379" y="154" on="0"/>
        <pt x="301" y="154" on="1"/>
        <pt x="258" y="154" on="1"/>
        <pt x="258" y="536" on="1"/>
        <pt x="300" y="536" on="1"/>
        <pt x="337" y="536" on="0"/>
        <pt x="400" y="514" on="0"/>
        <pt x="445" y="467" on="0"/>
        <pt x="470" y="395" on="0"/>
      </contour>
    </TTGlyph>
    <TTGlyph name="Delta" xMin="25" yMin="-200" xMax="475" yMax="800">
      <contour>
        <pt x="25" y="-200" on="1"/>
        <pt x="475" y="-200" on="1"/>
        <pt x="475" y="800" on="1"/>
        <pt x="25" y="800" on="1"/>
      </contour>
    </TTGlyph>
    <TTGlyph name="E" xMin="54" yMin="0" xMax="518" yMax="690">
      <contour>
        <pt x="518" y="0" on="1"/>
        <pt x="518" y="159" on="1"/>
        <pt x="254" y="159" on="1"/>
        <pt x="254" y="272" on="1"/>
        <pt x="473" y="272" on="1"/>
        <pt x="447" y="437" on="1"/>
        <pt x="254" y="437" on="1"/>
        <pt x="254" y="531" on="1"/>
        <pt x="509" y="531" on="1"/>
        <pt x="509" y="690" on="1"/>
        <pt x="54" y="690" on="1"/>
        <pt x="54" y="0" on="1"/>
      </contour>
    </TTGlyph>
    <TTGlyph name="Eacute" xMin="54" yMin="0" xMax="518" yMax="889">
      <contour>
        <pt x="518" y="0" on="1"/>
        <pt x="518" y="159" on="1"/>
        <pt x="254" y="159" on="1"/>
        <pt x="254" y="272" on="1"/>
        <pt x="473" y="272" on="1"/>
        <pt x="447" y="437" on="1"/>
        <pt x="254" y="437" on="1"/>
        <pt x="254" y="531" on="1"/>
        <pt x="509" y="531" on="1"/>
        <pt x="509" y="690" on="1"/>
        <pt x="54" y="690" on="1"/>
        <pt x="54" y="0" on="1"/>
      </contour>
      <contour>
        <pt x="458" y="856" on="1"/>
        <pt x="243" y="889" on="1"/>
        <pt x="194" y="738" on="1"/>
        <pt x="306" y="738" on="1"/>
      </contour>
    </TTGlyph>
    <TTGlyph name="Ecircumflex" xMin="54" yMin="0" xMax="518" yMax="888">
      <contour>
        <pt x="518" y="0" on="1"/>
        <pt x="518" y="159" on="1"/>
        <pt x="254" y="159" on="1"/>
        <pt x="254" y="272" on="1"/>
        <pt x="473" y="272" on="1"/>
        <pt x="447" y="437" on="1"/>
        <pt x="254" y="437" on="1"/>
        <pt x="254" y="531" on="1"/>
        <pt x="509" y="531" on="1"/>
        <pt x="509" y="690" on="1"/>
        <pt x="54" y="690" on="1"/>
        <pt x="54" y="0" on="1"/>
      </contour>
      <contour>
        <pt x="461" y="754" on="1"/>
        <pt x="365" y="888" on="1"/>
        <pt x="203" y="888" on="1"/>
        <pt x="101" y="738" on="1"/>
        <pt x="214" y="738" on="1"/>
        <pt x="283" y="791" on="1"/>
        <pt x="355" y="733" on="1"/>
      </contour>
    </TTGlyph>
    <TTGlyph name="Edieresis" xMin="54" yMin="0" xMax="518" yMax="881">
      <contour>
        <pt x="518" y="0" on="1"/>
        <pt x="518" y="159" on="1"/>
        <pt x="254" y="159" on="1"/>
        <pt x="254" y="272" on="1"/>
        <pt x="473" y="272" on="1"/>
        <pt x="447" y="437" on="1"/>
        <pt x="254" y="437" on="1"/>
        <pt x="254" y="531" on="1"/>
        <pt x="509" y="531" on="1"/>
        <pt x="509" y="690" on="1"/>
        <pt x="54" y="690" on="1"/>
        <pt x="54" y="0" on="1"/>
      </contour>
      <contour>
        <pt x="456" y="738" on="1"/>
        <pt x="456" y="881" on="1"/>
        <pt x="312" y="881" on="1"/>
        <pt x="312" y="738" on="1"/>
      </contour>
      <contour>
        <pt x="250" y="738" on="1"/>
        <pt x="250" y="881" on="1"/>
        <pt x="106" y="881" on="1"/>
        <pt x="106" y="738" on="1"/>
      </contour>
    </TTGlyph>
    <TTGlyph name="Egrave" xMin="54" yMin="0" xMax="518" yMax="889">
      <contour>
        <pt x="518" y="0" on="1"/>
        <pt x="518" y="159" on="1"/>
        <pt x="254" y="159" on="1"/>
        <pt x="254" y="272" on="1"/>
        <pt x="473" y="272" on="1"/>
        <pt x="447" y="437" on="1"/>
        <pt x="254" y="437" on="1"/>
        <pt x="254" y="531" on="1"/>
        <pt x="509" y="531" on="1"/>
        <pt x="509" y="690" on="1"/>
        <pt x="54" y="690" on="1"/>
        <pt x="54" y="0" on="1"/>
      </contour>
      <contour>
        <pt x="369" y="738" on="1"/>
        <pt x="319" y="889" on="1"/>
        <pt x="101" y="856" on="1"/>
        <pt x="253" y="738" on="1"/>
      </contour>
    </TTGlyph>
    <TTGlyph name="Eth" xMin="6" yMin="0" xMax="716" yMax="690">
      <contour>
        <pt x="716" y="346" on="1"/>
        <pt x="716" y="423" on="0"/>
        <pt x="669" y="550" on="0"/>
        <pt x="576" y="640" on="0"/>
        <pt x="439" y="690" on="0"/>
        <pt x="349" y="690" on="1"/>
        <pt x="96" y="690" on="1"/>
        <pt x="96" y="434" on="1"/>
        <pt x="6" y="434" on="1"/>
        <pt x="34" y="264" on="1"/>
        <pt x="96" y="264" on="1"/>
        <pt x="96" y="0" on="1"/>
        <pt x="357" y="0" on="1"/>
        <pt x="444" y="0" on="0"/>
        <pt x="577" y="50" on="0"/>
        <pt x="669" y="142" on="0"/>
        <pt x="716" y="269" on="0"/>
      </contour>
      <contour>
        <pt x="511" y="345" on="1"/>
        <pt x="511" y="243" on="0"/>
        <pt x="420" y="154" on="0"/>
        <pt x="342" y="154" on="1"/>
        <pt x="294" y="154" on="1"/>
        <pt x="294" y="266" on="1"/>
        <pt x="399" y="266" on="1"/>
        <pt x="399" y="432" on="1"/>
        <pt x="294" y="432" on="1"/>
        <pt x="294" y="536" on="1"/>
        <pt x="341" y="536" on="1"/>
        <pt x="378" y="536" on="0"/>
        <pt x="441" y="514" on="0"/>
        <pt x="486" y="467" on="0"/>
        <pt x="511" y="395" on="0"/>
      </contour>
    </TTGlyph>
    <TTGlyph name="F" xMin="54" yMin="0" xMax="490" yMax="690">
      <contour>
        <pt x="490" y="522" on="1"/>
        <pt x="490" y="690" on="1"/>
        <pt x="54" y="690" on="1"/>
        <pt x="54" y="0" on="1"/>
        <pt x="257" y="0" on="1"/>
        <pt x="257" y="242" on="1"/>
        <pt x="453" y="242" on="1"/>
        <pt x="425" y="413" on="1"/>
        <pt x="257" y="413" on="1"/>
        <pt x="257" y="522" on="1"/>
      </contour>
    </TTGlyph>
    <TTGlyph name="G" xMin="30" yMin="-13" xMax="633" yMax="703">
      <contour>
        <pt x="633" y="63" on="1"/>
        <pt x="633" y="404" on="1"/>
        <pt x="333" y="404" on="1"/>
        <pt x="356" y="260" on="1"/>
        <pt x="459" y="260" on="1"/>
        <pt x="459" y="162" on="1"/>
        <pt x="442" y="154" on="0"/>
        <pt x="408" y="145" on="0"/>
        <pt x="387" y="145" on="1"/>
        <pt x="348" y="145" on="0"/>
        <pt x="291" y="175" on="0"/>
        <pt x="253" y="229" on="0"/>
        <pt x="234" y="302" on="0"/>
        <pt x="234" y="345" on="1"/>
        <pt x="234" y="387" on="0"/>
        <pt x="252" y="459" on="0"/>
        <pt x="290" y="510" on="0"/>
        <pt x="348" y="539" on="0"/>
        <pt x="388" y="539" on="1"/>
        <pt x="439" y="539" on="0"/>
        <pt x="527" y="506" on="0"/>
        <pt x="567" y="483" on="1"/>
        <pt x="593" y="655" on="1"/>
        <pt x="551" y="677" on="0"/>
        <pt x="443" y="703" on="0"/>
        <pt x="382" y="703" on="1"/>
        <pt x="301" y="703" on="0"/>
        <pt x="170" y="651" on="0"/>
        <pt x="79" y="556" on="0"/>
        <pt x="30" y="424" on="0"/>
        <pt x="30" y="344" on="1"/>
        <pt x="30" y="264" on="0"/>
        <pt x="76" y="133" on="0"/>
        <pt x="163" y="39" on="0"/>
        <pt x="291" y="-13" on="0"/>
        <pt x="373" y="-13" on="1"/>
        <pt x="517" y="-13" on="0"/>
      </contour>
    </TTGlyph>
    <TTGlyph name="H" xMin="54" yMin="0" xMax="655" yMax="690">
      <contour>
        <pt x="655" y="0" on="1"/>
        <pt x="655" y="690" on="1"/>
        <pt x="450" y="690" on="1"/>
        <pt x="450" y="444" on="1"/>
        <pt x="259" y="444" on="1"/>
        <pt x="259" y="690" on="1"/>
        <pt x="54" y="690" on="1"/>
        <pt x="54" y="0" on="1"/>
        <pt x="259" y="0" on="1"/>
        <pt x="259" y="267" on="1"/>
        <pt x="450" y="267" on="1"/>
        <pt x="450" y="0" on="1"/>
      </contour>
    </TTGlyph>
    <TTGlyph name="I" xMin="57" yMin="0" xMax="262" yMax="690">
      <contour>
        <pt x="262" y="0" on="1"/>
        <pt x="262" y="690" on="1"/>
        <pt x="57" y="690" on="1"/>
        <pt x="57" y="0" on="1"/>
      </contour>
    </TTGlyph>
    <TTGlyph name="Iacute" xMin="57" yMin="0" xMax="360" yMax="889">
      <contour>
        <pt x="360" y="856" on="1"/>
        <pt x="145" y="889" on="1"/>
        <pt x="96" y="738" on="1"/>
        <pt x="208" y="738" on="1"/>
      </contour>
      <contour>
        <pt x="262" y="0" on="1"/>
        <pt x="262" y="690" on="1"/>
        <pt x="57" y="690" on="1"/>
        <pt x="57" y="0" on="1"/>
      </contour>
    </TTGlyph>
    <TTGlyph name="Icircumflex" xMin="-20" yMin="0" xMax="340" yMax="879">
      <contour>
        <pt x="262" y="0" on="1"/>
        <pt x="262" y="690" on="1"/>
        <pt x="57" y="690" on="1"/>
        <pt x="57" y="0" on="1"/>
      </contour>
      <contour>
        <pt x="340" y="745" on="1"/>
        <pt x="244" y="879" on="1"/>
        <pt x="82" y="879" on="1"/>
        <pt x="-20" y="729" on="1"/>
        <pt x="93" y="729" on="1"/>
        <pt x="162" y="782" on="1"/>
        <pt x="234" y="724" on="1"/>
      </contour>
    </TTGlyph>
    <TTGlyph name="Idieresis" xMin="-15" yMin="0" xMax="335" yMax="881">
      <contour>
        <pt x="262" y="0" on="1"/>
        <pt x="262" y="690" on="1"/>
        <pt x="57" y="690" on="1"/>
        <pt x="57" y="0" on="1"/>
      </contour>
      <contour>
        <pt x="335" y="738" on="1"/>
        <pt x="335" y="881" on="1"/>
        <pt x="191" y="881" on="1"/>
        <pt x="191" y="738" on="1"/>
      </contour>
      <contour>
        <pt x="129" y="738" on="1"/>
        <pt x="129" y="881" on="1"/>
        <pt x="-15" y="881" on="1"/>
        <pt x="-15" y="738" on="1"/>
      </contour>
    </TTGlyph>
    <TTGlyph name="Igrave" xMin="-42" yMin="0" xMax="262" yMax="889">
      <contour>
        <pt x="262" y="0" on="1"/>
        <pt x="262" y="690" on="1"/>
        <pt x="57" y="690" on="1"/>
        <pt x="57" y="0" on="1"/>
      </contour>
      <contour>
        <pt x="226" y="738" on="1"/>
        <pt x="176" y="889" on="1"/>
        <pt x="-42" y="856" on="1"/>
        <pt x="110" y="738" on="1"/>
      </contour>
    </TTGlyph>
    <TTGlyph name="J" xMin="18" yMin="-7" xMax="400" yMax="690">
      <contour>
        <pt x="400" y="227" on="1"/>
        <pt x="400" y="690" on="1"/>
        <pt x="195" y="690" on="1"/>
        <pt x="195" y="262" on="1"/>
        <pt x="195" y="233" on="0"/>
        <pt x="182" y="194" on="0"/>
        <pt x="157" y="171" on="0"/>
        <pt x="122" y="161" on="0"/>
        <pt x="101" y="161" on="1"/>
        <pt x="70" y="161" on="0"/>
        <pt x="34" y="168" on="0"/>
        <pt x="18" y="172" on="1"/>
        <pt x="45" y="3" on="1"/>
        <pt x="59" y="-1" on="0"/>
        <pt x="119" y="-7" on="0"/>
        <pt x="154" y="-7" on="1"/>
        <pt x="206" y="-7" on="0"/>
        <pt x="296" y="18" on="0"/>
        <pt x="362" y="74" on="0"/>
        <pt x="400" y="163" on="0"/>
      </contour>
    </TTGlyph>
    <TTGlyph name="K" xMin="54" yMin="-7" xMax="672" yMax="690">
      <contour>
        <pt x="672" y="24" on="1"/>
        <pt x="447" y="372" on="1"/>
        <pt x="667" y="690" on="1"/>
        <pt x="443" y="690" on="1"/>
        <pt x="259" y="401" on="1"/>
        <pt x="259" y="690" on="1"/>
        <pt x="54" y="690" on="1"/>
        <pt x="54" y="0" on="1"/>
        <pt x="259" y="0" on="1"/>
        <pt x="259" y="309" on="1"/>
        <pt x="451" y="-7" on="1"/>
      </contour>
    </TTGlyph>
    <TTGlyph name="L" xMin="54" yMin="0" xMax="482" yMax="690">
      <contour>
        <pt x="482" y="0" on="1"/>
        <pt x="454" y="174" on="1"/>
        <pt x="259" y="174" on="1"/>
        <pt x="259" y="690" on="1"/>
        <pt x="54" y="690" on="1"/>
        <pt x="54" y="0" on="1"/>
      </contour>
    </TTGlyph>
    <TTGlyph name="Lslash" xMin="6" yMin="0" xMax="521" yMax="690">
      <contour>
        <pt x="521" y="0" on="1"/>
        <pt x="493" y="174" on="1"/>
        <pt x="299" y="174" on="1"/>
        <pt x="299" y="321" on="1"/>
        <pt x="428" y="360" on="1"/>
        <pt x="428" y="531" on="1"/>
        <pt x="299" y="491" on="1"/>
        <pt x="299" y="690" on="1"/>
        <pt x="96" y="690" on="1"/>
        <pt x="96" y="429" on="1"/>
        <pt x="6" y="402" on="1"/>
        <pt x="33" y="239" on="1"/>
        <pt x="96" y="258" on="1"/>
        <pt x="96" y="0" on="1"/>
      </contour>
    </TTGlyph>
    <TTGlyph name="M" xMin="33" yMin="0" xMax="854" yMax="690">
      <contour>
        <pt x="854" y="0" on="1"/>
        <pt x="805" y="690" on="1"/>
        <pt x="547" y="690" on="1"/>
        <pt x="447" y="254" on="1"/>
        <pt x="347" y="690" on="1"/>
        <pt x="82" y="690" on="1"/>
        <pt x="33" y="0" on="1"/>
        <pt x="209" y="0" on="1"/>
        <pt x="233" y="421" on="1"/>
        <pt x="327" y="0" on="1"/>
        <pt x="526" y="0" on="1"/>
        <pt x="619" y="421" on="1"/>
        <pt x="644" y="0" on="1"/>
      </contour>
    </TTGlyph>
    <TTGlyph name="N" xMin="54" yMin="0" xMax="652" yMax="690">
      <contour>
        <pt x="652" y="0" on="1"/>
        <pt x="652" y="690" on="1"/>
        <pt x="462" y="690" on="1"/>
        <pt x="462" y="360" on="1"/>
        <pt x="256" y="690" on="1"/>
        <pt x="54" y="690" on="1"/>
        <pt x="54" y="0" on="1"/>
        <pt x="244" y="0" on="1"/>
        <pt x="244" y="360" on="1"/>
        <pt x="470" y="0" on="1"/>
      </contour>
    </TTGlyph>
    <TTGlyph name="Ntilde" xMin="54" yMin="0" xMax="652" yMax="896">
      <contour>
        <pt x="652" y="0" on="1"/>
        <pt x="652" y="690" on="1"/>
        <pt x="462" y="690" on="1"/>
        <pt x="462" y="360" on="1"/>
        <pt x="256" y="690" on="1"/>
        <pt x="54" y="690" on="1"/>
        <pt x="54" y="0" on="1"/>
        <pt x="244" y="0" on="1"/>
        <pt x="244" y="360" on="1"/>
        <pt x="470" y="0" on="1"/>
      </contour>
      <contour>
        <pt x="528" y="878" on="1"/>
        <pt x="451" y="896" on="1"/>
        <pt x="445" y="871" on="0"/>
        <pt x="430" y="854" on="0"/>
        <pt x="419" y="854" on="1"/>
        <pt x="408" y="854" on="0"/>
        <pt x="383" y="862" on="0"/>
        <pt x="354" y="874" on="1"/>
        <pt x="333" y="883" on="0"/>
        <pt x="303" y="892" on="0"/>
        <pt x="283" y="892" on="1"/>
        <pt x="263" y="892" on="0"/>
        <pt x="231" y="877" on="0"/>
        <pt x="206" y="843" on="0"/>
        <pt x="188" y="784" on="0"/>
        <pt x="182" y="741" on="1"/>
        <pt x="259" y="724" on="1"/>
        <pt x="265" y="749" on="0"/>
        <pt x="280" y="766" on="0"/>
        <pt x="291" y="766" on="1"/>
        <pt x="302" y="766" on="0"/>
        <pt x="327" y="757" on="0"/>
        <pt x="356" y="746" on="1"/>
        <pt x="377" y="738" on="0"/>
        <pt x="407" y="728" on="0"/>
        <pt x="427" y="728" on="1"/>
        <pt x="446" y="728" on="0"/>
        <pt x="479" y="743" on="0"/>
        <pt x="504" y="777" on="0"/>
        <pt x="522" y="835" on="0"/>
      </contour>
    </TTGlyph>
    <TTGlyph name="O" xMin="30" yMin="-13" xMax="700" yMax="703">
      <contour>
        <pt x="700" y="346" on="1"/>
        <pt x="700" y="426" on="0"/>
        <pt x="652" y="557" on="0"/>
        <pt x="565" y="651" on="0"/>
        <pt x="442" y="703" on="0"/>
        <pt x="366" y="703" on="1"/>
        <pt x="290" y="703" on="0"/>
        <pt x="166" y="651" on="0"/>
        <pt x="78" y="556" on="0"/>
        <pt x="30" y="424" on="0"/>
        <pt x="30" y="344" on="1"/>
        <pt x="30" y="264" on="0"/>
        <pt x="78" y="133" on="0"/>
        <pt x="165" y="39" on="0"/>
        <pt x="289" y="-13" on="0"/>
        <pt x="364" y="-13" on="1"/>
        <pt x="440" y="-13" on="0"/>
        <pt x="564" y="39" on="0"/>
        <pt x="652" y="134" on="0"/>
        <pt x="700" y="266" on="0"/>
      </contour>
      <contour>
        <pt x="496" y="345" on="1"/>
        <pt x="496" y="251" on="0"/>
        <pt x="428" y="142" on="0"/>
        <pt x="365" y="142" on="1"/>
        <pt x="302" y="142" on="0"/>
        <pt x="234" y="251" on="0"/>
        <pt x="234" y="345" on="1"/>
        <pt x="234" y="439" on="0"/>
        <pt x="302" y="548" on="0"/>
        <pt x="365" y="548" on="1"/>
        <pt x="428" y="548" on="0"/>
        <pt x="496" y="439" on="0"/>
      </contour>
    </TTGlyph>
    <TTGlyph name="OE" xMin="31" yMin="0" xMax="892" yMax="690">
      <contour>
        <pt x="892" y="0" on="1"/>
        <pt x="892" y="159" on="1"/>
        <pt x="628" y="159" on="1"/>
        <pt x="628" y="272" on="1"/>
        <pt x="847" y="272" on="1"/>
        <pt x="821" y="437" on="1"/>
        <pt x="628" y="437" on="1"/>
        <pt x="628" y="531" on="1"/>
        <pt x="883" y="531" on="1"/>
        <pt x="883" y="690" on="1"/>
        <pt x="390" y="690" on="1"/>
        <pt x="303" y="690" on="0"/>
        <pt x="169" y="640" on="0"/>
        <pt x="78" y="548" on="0"/>
        <pt x="31" y="421" on="0"/>
        <pt x="31" y="344" on="1"/>
        <pt x="31" y="267" on="0"/>
        <pt x="78" y="140" on="0"/>
        <pt x="170" y="50" on="0"/>
        <pt x="308" y="0" on="0"/>
        <pt x="398" y="0" on="1"/>
      </contour>
      <contour>
        <pt x="430" y="154" on="1"/>
        <pt x="406" y="154" on="1"/>
        <pt x="368" y="154" on="0"/>
        <pt x="305" y="176" on="0"/>
        <pt x="260" y="223" on="0"/>
        <pt x="235" y="295" on="0"/>
        <pt x="235" y="345" on="1"/>
        <pt x="235" y="447" on="0"/>
        <pt x="327" y="536" on="0"/>
        <pt x="404" y="536" on="1"/>
        <pt x="430" y="536" on="1"/>
      </contour>
    </TTGlyph>
    <TTGlyph name="Oacute" xMin="30" yMin="-13" xMax="700" yMax="898">
      <contour>
        <pt x="570" y="865" on="1"/>
        <pt x="355" y="898" on="1"/>
        <pt x="306" y="747" on="1"/>
        <pt x="418" y="747" on="1"/>
      </contour>
      <contour>
        <pt x="700" y="346" on="1"/>
        <pt x="700" y="426" on="0"/>
        <pt x="652" y="557" on="0"/>
        <pt x="565" y="651" on="0"/>
        <pt x="442" y="703" on="0"/>
        <pt x="366" y="703" on="1"/>
        <pt x="290" y="703" on="0"/>
        <pt x="166" y="651" on="0"/>
        <pt x="78" y="556" on="0"/>
        <pt x="30" y="424" on="0"/>
        <pt x="30" y="344" on="1"/>
        <pt x="30" y="264" on="0"/>
        <pt x="78" y="133" on="0"/>
        <pt x="165" y="39" on="0"/>
        <pt x="289" y="-13" on="0"/>
        <pt x="364" y="-13" on="1"/>
        <pt x="440" y="-13" on="0"/>
        <pt x="564" y="39" on="0"/>
        <pt x="652" y="134" on="0"/>
        <pt x="700" y="266" on="0"/>
      </contour>
      <contour>
        <pt x="496" y="345" on="1"/>
        <pt x="496" y="251" on="0"/>
        <pt x="428" y="142" on="0"/>
        <pt x="365" y="142" on="1"/>
        <pt x="302" y="142" on="0"/>
        <pt x="234" y="251" on="0"/>
        <pt x="234" y="345" on="1"/>
        <pt x="234" y="439" on="0"/>
        <pt x="302" y="548" on="0"/>
        <pt x="365" y="548" on="1"/>
        <pt x="428" y="548" on="0"/>
        <pt x="496" y="439" on="0"/>
      </contour>
    </TTGlyph>
    <TTGlyph name="Ocircumflex" xMin="30" yMin="-13" xMax="700" yMax="892">
      <contour>
        <pt x="700" y="346" on="1"/>
        <pt x="700" y="426" on="0"/>
        <pt x="652" y="557" on="0"/>
        <pt x="565" y="651" on="0"/>
        <pt x="442" y="703" on="0"/>
        <pt x="366" y="703" on="1"/>
        <pt x="290" y="703" on="0"/>
        <pt x="166" y="651" on="0"/>
        <pt x="78" y="556" on="0"/>
        <pt x="30" y="424" on="0"/>
        <pt x="30" y="344" on="1"/>
        <pt x="30" y="264" on="0"/>
        <pt x="78" y="133" on="0"/>
        <pt x="165" y="39" on="0"/>
        <pt x="289" y="-13" on="0"/>
        <pt x="364" y="-13" on="1"/>
        <pt x="440" y="-13" on="0"/>
        <pt x="564" y="39" on="0"/>
        <pt x="652" y="134" on="0"/>
        <pt x="700" y="266" on="0"/>
      </contour>
      <contour>
        <pt x="496" y="345" on="1"/>
        <pt x="496" y="251" on="0"/>
        <pt x="428" y="142" on="0"/>
        <pt x="365" y="142" on="1"/>
        <pt x="302" y="142" on="0"/>
        <pt x="234" y="251" on="0"/>
        <pt x="234" y="345" on="1"/>
        <pt x="234" y="439" on="0"/>
        <pt x="302" y="548" on="0"/>
        <pt x="365" y="548" on="1"/>
        <pt x="428" y="548" on="0"/>
        <pt x="496" y="439" on="0"/>
      </contour>
      <contour>
        <pt x="545" y="758" on="1"/>
        <pt x="449" y="892" on="1"/>
        <pt x="287" y="892" on="1"/>
        <pt x="185" y="742" on="1"/>
        <pt x="298" y="742" on="1"/>
        <pt x="367" y="795" on="1"/>
        <pt x="439" y="737" on="1"/>
      </contour>
    </TTGlyph>
    <TTGlyph name="Odieresis" xMin="30" yMin="-13" xMax="700" yMax="890">
      <contour>
        <pt x="700" y="346" on="1"/>
        <pt x="700" y="426" on="0"/>
        <pt x="652" y="557" on="0"/>
        <pt x="565" y="651" on="0"/>
        <pt x="442" y="703" on="0"/>
        <pt x="366" y="703" on="1"/>
        <pt x="290" y="703" on="0"/>
        <pt x="166" y="651" on="0"/>
        <pt x="78" y="556" on="0"/>
        <pt x="30" y="424" on="0"/>
        <pt x="30" y="344" on="1"/>
        <pt x="30" y="264" on="0"/>
        <pt x="78" y="133" on="0"/>
        <pt x="165" y="39" on="0"/>
        <pt x="289" y="-13" on="0"/>
        <pt x="364" y="-13" on="1"/>
        <pt x="440" y="-13" on="0"/>
        <pt x="564" y="39" on="0"/>
        <pt x="652" y="134" on="0"/>
        <pt x="700" y="266" on="0"/>
      </contour>
      <contour>
        <pt x="496" y="345" on="1"/>
        <pt x="496" y="251" on="0"/>
        <pt x="428" y="142" on="0"/>
        <pt x="365" y="142" on="1"/>
        <pt x="302" y="142" on="0"/>
        <pt x="234" y="251" on="0"/>
        <pt x="234" y="345" on="1"/>
        <pt x="234" y="439" on="0"/>
        <pt x="302" y="548" on="0"/>
        <pt x="365" y="548" on="1"/>
        <pt x="428" y="548" on="0"/>
        <pt x="496" y="439" on="0"/>
      </contour>
      <contour>
        <pt x="540" y="747" on="1"/>
        <pt x="540" y="890" on="1"/>
        <pt x="396" y="890" on="1"/>
        <pt x="396" y="747" on="1"/>
      </contour>
      <contour>
        <pt x="334" y="747" on="1"/>
        <pt x="334" y="890" on="1"/>
        <pt x="190" y="890" on="1"/>
        <pt x="190" y="747" on="1"/>
      </contour>
    </TTGlyph>
    <TTGlyph name="Ograve" xMin="30" yMin="-13" xMax="700" yMax="898">
      <contour>
        <pt x="700" y="346" on="1"/>
        <pt x="700" y="426" on="0"/>
        <pt x="652" y="557" on="0"/>
        <pt x="565" y="651" on="0"/>
        <pt x="442" y="703" on="0"/>
        <pt x="366" y="703" on="1"/>
        <pt x="290" y="703" on="0"/>
        <pt x="166" y="651" on="0"/>
        <pt x="78" y="556" on="0"/>
        <pt x="30" y="424" on="0"/>
        <pt x="30" y="344" on="1"/>
        <pt x="30" y="264" on="0"/>
        <pt x="78" y="133" on="0"/>
        <pt x="165" y="39" on="0"/>
        <pt x="289" y="-13" on="0"/>
        <pt x="364" y="-13" on="1"/>
        <pt x="440" y="-13" on="0"/>
        <pt x="564" y="39" on="0"/>
        <pt x="652" y="134" on="0"/>
        <pt x="700" y="266" on="0"/>
      </contour>
      <contour>
        <pt x="496" y="345" on="1"/>
        <pt x="496" y="251" on="0"/>
        <pt x="428" y="142" on="0"/>
        <pt x="365" y="142" on="1"/>
        <pt x="302" y="142" on="0"/>
        <pt x="234" y="251" on="0"/>
        <pt x="234" y="345" on="1"/>
        <pt x="234" y="439" on="0"/>
        <pt x="302" y="548" on="0"/>
        <pt x="365" y="548" on="1"/>
        <pt x="428" y="548" on="0"/>
        <pt x="496" y="439" on="0"/>
      </contour>
      <contour>
        <pt x="426" y="747" on="1"/>
        <pt x="376" y="898" on="1"/>
        <pt x="158" y="865" on="1"/>
        <pt x="310" y="747" on="1"/>
      </contour>
    </TTGlyph>
    <TTGlyph name="Omega" xMin="8" yMin="0" xMax="722" yMax="713">
      <contour>
        <pt x="722" y="575" on="1"/>
        <pt x="701" y="706" on="1"/>
        <pt x="686" y="709" on="0"/>
        <pt x="651" y="713" on="0"/>
        <pt x="631" y="713" on="1"/>
        <pt x="584" y="713" on="0"/>
        <pt x="509" y="694" on="0"/>
        <pt x="457" y="652" on="0"/>
        <pt x="429" y="585" on="0"/>
        <pt x="429" y="537" on="1"/>
        <pt x="429" y="495" on="1"/>
        <pt x="362" y="495" on="1"/>
        <pt x="362" y="352" on="1"/>
        <pt x="429" y="352" on="1"/>
        <pt x="429" y="0" on="1"/>
        <pt x="606" y="0" on="1"/>
        <pt x="606" y="352" on="1"/>
        <pt x="715" y="352" on="1"/>
        <pt x="692" y="495" on="1"/>
        <pt x="606" y="495" on="1"/>
        <pt x="606" y="520" on="1"/>
        <pt x="606" y="549" on="0"/>
        <pt x="633" y="580" on="0"/>
        <pt x="664" y="580" on="1"/>
        <pt x="681" y="580" on="0"/>
        <pt x="710" y="577" on="0"/>
      </contour>
      <contour>
        <pt x="368" y="575" on="1"/>
        <pt x="347" y="706" on="1"/>
        <pt x="332" y="709" on="0"/>
        <pt x="297" y="713" on="0"/>
        <pt x="277" y="713" on="1"/>
        <pt x="230" y="713" on="0"/>
        <pt x="154" y="694" on="0"/>
        <pt x="102" y="652" on="0"/>
        <pt x="74" y="585" on="0"/>
        <pt x="74" y="537" on="1"/>
        <pt x="74" y="495" on="1"/>
        <pt x="8" y="495" on="1"/>
        <pt x="8" y="352" on="1"/>
        <pt x="74" y="352" on="1"/>
        <pt x="74" y="0" on="1"/>
        <pt x="252" y="0" on="1"/>
        <pt x="252" y="352" on="1"/>
        <pt x="360" y="352" on="1"/>
        <pt x="338" y="495" on="1"/>
        <pt x="252" y="495" on="1"/>
        <pt x="252" y="520" on="1"/>
        <pt x="252" y="549" on="0"/>
        <pt x="279" y="580" on="0"/>
        <pt x="310" y="580" on="1"/>
        <pt x="327" y="580" on="0"/>
        <pt x="355" y="577" on="0"/>
      </contour>
    </TTGlyph>
    <TTGlyph name="Oslash" xMin="14" yMin="-13" xMax="716" yMax="703">
      <contour>
        <pt x="716" y="674" on="1"/>
        <pt x="604" y="699" on="1"/>
        <pt x="558" y="644" on="1"/>
        <pt x="517" y="673" on="0"/>
        <pt x="420" y="703" on="0"/>
        <pt x="363" y="703" on="1"/>
        <pt x="289" y="703" on="0"/>
        <pt x="166" y="652" on="0"/>
        <pt x="78" y="558" on="0"/>
        <pt x="30" y="427" on="0"/>
        <pt x="30" y="347" on="1"/>
        <pt x="30" y="280" on="0"/>
        <pt x="65" y="165" on="0"/>
        <pt x="98" y="119" on="1"/>
        <pt x="14" y="16" on="1"/>
        <pt x="126" y="-9" on="1"/>
        <pt x="173" y="46" on="1"/>
        <pt x="213" y="17" on="0"/>
        <pt x="310" y="-13" on="0"/>
        <pt x="367" y="-13" on="1"/>
        <pt x="441" y="-13" on="0"/>
        <pt x="564" y="38" on="0"/>
        <pt x="652" y="132" on="0"/>
        <pt x="700" y="263" on="0"/>
        <pt x="700" y="343" on="1"/>
        <pt x="700" y="410" on="0"/>
        <pt x="665" y="525" on="0"/>
        <pt x="632" y="570" on="1"/>
      </contour>
      <contour>
        <pt x="451" y="515" on="1"/>
        <pt x="240" y="261" on="1"/>
        <pt x="235" y="280" on="0"/>
        <pt x="232" y="322" on="0"/>
        <pt x="232" y="345" on="1"/>
        <pt x="232" y="392" on="0"/>
        <pt x="250" y="470" on="0"/>
        <pt x="284" y="525" on="0"/>
        <pt x="333" y="556" on="0"/>
        <pt x="365" y="556" on="1"/>
        <pt x="416" y="556" on="0"/>
      </contour>
      <contour>
        <pt x="498" y="345" on="1"/>
        <pt x="498" y="298" on="0"/>
        <pt x="480" y="220" on="0"/>
        <pt x="446" y="164" on="0"/>
        <pt x="397" y="134" on="0"/>
        <pt x="365" y="134" on="1"/>
        <pt x="314" y="134" on="0"/>
        <pt x="279" y="175" on="1"/>
        <pt x="490" y="429" on="1"/>
        <pt x="495" y="410" on="0"/>
        <pt x="498" y="368" on="0"/>
      </contour>
    </TTGlyph>
    <TTGlyph name="Otilde" xMin="30" yMin="-13" xMax="700" yMax="914">
      <contour>
        <pt x="700" y="346" on="1"/>
        <pt x="700" y="426" on="0"/>
        <pt x="652" y="557" on="0"/>
        <pt x="565" y="651" on="0"/>
        <pt x="442" y="703" on="0"/>
        <pt x="366" y="703" on="1"/>
        <pt x="290" y="703" on="0"/>
        <pt x="166" y="651" on="0"/>
        <pt x="78" y="556" on="0"/>
        <pt x="30" y="424" on="0"/>
        <pt x="30" y="344" on="1"/>
        <pt x="30" y="264" on="0"/>
        <pt x="78" y="133" on="0"/>
        <pt x="165" y="39" on="0"/>
        <pt x="289" y="-13" on="0"/>
        <pt x="364" y="-13" on="1"/>
        <pt x="440" y="-13" on="0"/>
        <pt x="564" y="39" on="0"/>
        <pt x="652" y="134" on="0"/>
        <pt x="700" y="266" on="0"/>
      </contour>
      <contour>
        <pt x="496" y="345" on="1"/>
        <pt x="496" y="251" on="0"/>
        <pt x="428" y="142" on="0"/>
        <pt x="365" y="142" on="1"/>
        <pt x="302" y="142" on="0"/>
        <pt x="234" y="251" on="0"/>
        <pt x="234" y="345" on="1"/>
        <pt x="234" y="439" on="0"/>
        <pt x="302" y="548" on="0"/>
        <pt x="365" y="548" on="1"/>
        <pt x="428" y="548" on="0"/>
        <pt x="496" y="439" on="0"/>
      </contour>
      <contour>
        <pt x="538" y="896" on="1"/>
        <pt x="461" y="914" on="1"/>
        <pt x="455" y="889" on="0"/>
        <pt x="440" y="872" on="0"/>
        <pt x="429" y="872" on="1"/>
        <pt x="418" y="872" on="0"/>
        <pt x="393" y="880" on="0"/>
        <pt x="364" y="892" on="1"/>
        <pt x="343" y="901" on="0"/>
        <pt x="313" y="910" on="0"/>
        <pt x="293" y="910" on="1"/>
        <pt x="273" y="910" on="0"/>
        <pt x="241" y="895" on="0"/>
        <pt x="216" y="861" on="0"/>
        <pt x="198" y="802" on="0"/>
        <pt x="192" y="759" on="1"/>
        <pt x="269" y="742" on="1"/>
        <pt x="275" y="767" on="0"/>
        <pt x="290" y="784" on="0"/>
        <pt x="301" y="784" on="1"/>
        <pt x="312" y="784" on="0"/>
        <pt x="337" y="775" on="0"/>
        <pt x="366" y="764" on="1"/>
        <pt x="387" y="756" on="0"/>
        <pt x="417" y="746" on="0"/>
        <pt x="437" y="746" on="1"/>
        <pt x="456" y="746" on="0"/>
        <pt x="489" y="761" on="0"/>
        <pt x="514" y="795" on="0"/>
        <pt x="532" y="853" on="0"/>
      </contour>
    </TTGlyph>
    <TTGlyph name="P" xMin="54" yMin="0" xMax="580" yMax="690">
      <contour>
        <pt x="580" y="454" on="1"/>
        <pt x="580" y="514" on="0"/>
        <pt x="540" y="602" on="0"/>
        <pt x="466" y="661" on="0"/>
        <pt x="360" y="690" on="0"/>
        <pt x="293" y="690" on="1"/>
        <pt x="54" y="690" on="1"/>
        <pt x="54" y="0" on="1"/>
        <pt x="258" y="0" on="1"/>
        <pt x="258" y="207" on="1"/>
        <pt x="290" y="207" on="1"/>
        <pt x="355" y="207" on="0"/>
        <pt x="462" y="238" on="0"/>
        <pt x="538" y="300" on="0"/>
        <pt x="580" y="393" on="0"/>
      </contour>
      <contour>
        <pt x="384" y="451" on="1"/>
        <pt x="384" y="402" on="0"/>
        <pt x="330" y="356" on="0"/>
        <pt x="279" y="356" on="1"/>
        <pt x="256" y="356" on="1"/>
        <pt x="256" y="541" on="1"/>
        <pt x="281" y="541" on="1"/>
        <pt x="384" y="541" on="0"/>
      </contour>
    </TTGlyph>
    <TTGlyph name="Q" xMin="30" yMin="-143" xMax="706" yMax="703">
      <contour>
        <pt x="700" y="360" on="1"/>
        <pt x="700" y="439" on="0"/>
        <pt x="651" y="566" on="0"/>
        <pt x="563" y="655" on="0"/>
        <pt x="440" y="703" on="0"/>
        <pt x="366" y="703" on="1"/>
        <pt x="290" y="703" on="0"/>
        <pt x="166" y="651" on="0"/>
        <pt x="78" y="556" on="0"/>
        <pt x="30" y="424" on="0"/>
        <pt x="30" y="344" on="1"/>
        <pt x="30" y="205" on="0"/>
        <pt x="153" y="39" on="0"/>
        <pt x="275" y="-4" on="1"/>
        <pt x="668" y="-143" on="1"/>
        <pt x="706" y="30" on="1"/>
        <pt x="561" y="73" on="1"/>
        <pt x="626" y="117" on="0"/>
        <pt x="700" y="262" on="0"/>
      </contour>
      <contour>
        <pt x="496" y="343" on="1"/>
        <pt x="496" y="298" on="0"/>
        <pt x="479" y="223" on="0"/>
        <pt x="446" y="169" on="0"/>
        <pt x="397" y="138" on="0"/>
        <pt x="365" y="138" on="1"/>
        <pt x="333" y="138" on="0"/>
        <pt x="285" y="169" on="0"/>
        <pt x="251" y="223" on="0"/>
        <pt x="234" y="298" on="0"/>
        <pt x="234" y="343" on="1"/>
        <pt x="234" y="388" on="0"/>
        <pt x="251" y="463" on="0"/>
        <pt x="284" y="517" on="0"/>
        <pt x="333" y="548" on="0"/>
        <pt x="365" y="548" on="1"/>
        <pt x="396" y="548" on="0"/>
        <pt x="445" y="517" on="0"/>
        <pt x="479" y="463" on="0"/>
        <pt x="496" y="388" on="0"/>
      </contour>
    </TTGlyph>
    <TTGlyph name="R" xMin="54" yMin="-7" xMax="628" yMax="690">
      <contour>
        <pt x="399" y="451" on="1"/>
        <pt x="399" y="405" on="0"/>
        <pt x="347" y="356" on="0"/>
        <pt x="297" y="356" on="1"/>
        <pt x="255" y="356" on="1"/>
        <pt x="255" y="541" on="1"/>
        <pt x="296" y="541" on="1"/>
        <pt x="346" y="541" on="0"/>
        <pt x="399" y="495" on="0"/>
      </contour>
      <contour>
        <pt x="479" y="265" on="1"/>
        <pt x="598" y="326" on="0"/>
        <pt x="598" y="463" on="1"/>
        <pt x="598" y="575" on="0"/>
        <pt x="452" y="690" on="0"/>
        <pt x="318" y="690" on="1"/>
        <pt x="54" y="690" on="1"/>
        <pt x="54" y="0" on="1"/>
        <pt x="257" y="0" on="1"/>
        <pt x="257" y="214" on="1"/>
        <pt x="291" y="214" on="1"/>
        <pt x="419" y="-7" on="1"/>
        <pt x="628" y="26" on="1"/>
      </contour>
    </TTGlyph>
    <TTGlyph name="S" xMin="27" yMin="-8" xMax="548" yMax="698">
      <contour>
        <pt x="548" y="217" on="1"/>
        <pt x="548" y="259" on="0"/>
        <pt x="523" y="324" on="0"/>
        <pt x="469" y="376" on="0"/>
        <pt x="385" y="417" on="0"/>
        <pt x="326" y="437" on="1"/>
        <pt x="297" y="447" on="0"/>
        <pt x="260" y="463" on="0"/>
        <pt x="239" y="478" on="0"/>
        <pt x="232" y="494" on="0"/>
        <pt x="232" y="504" on="1"/>
        <pt x="232" y="542" on="0"/>
        <pt x="293" y="542" on="1"/>
        <pt x="332" y="542" on="0"/>
        <pt x="434" y="512" on="0"/>
        <pt x="488" y="483" on="1"/>
        <pt x="518" y="649" on="1"/>
        <pt x="492" y="661" on="0"/>
        <pt x="443" y="679" on="0"/>
        <pt x="388" y="692" on="0"/>
        <pt x="326" y="698" on="0"/>
        <pt x="289" y="698" on="1"/>
        <pt x="238" y="698" on="0"/>
        <pt x="148" y="671" on="0"/>
        <pt x="81" y="618" on="0"/>
        <pt x="42" y="538" on="0"/>
        <pt x="42" y="485" on="1"/>
        <pt x="42" y="440" on="0"/>
        <pt x="66" y="375" on="0"/>
        <pt x="117" y="325" on="0"/>
        <pt x="194" y="287" on="0"/>
        <pt x="247" y="268" on="1"/>
        <pt x="282" y="256" on="0"/>
        <pt x="326" y="237" on="0"/>
        <pt x="350" y="220" on="0"/>
        <pt x="358" y="203" on="0"/>
        <pt x="358" y="192" on="1"/>
        <pt x="358" y="169" on="0"/>
        <pt x="322" y="148" on="0"/>
        <pt x="292" y="148" on="1"/>
        <pt x="240" y="148" on="0"/>
        <pt x="118" y="184" on="0"/>
        <pt x="57" y="214" on="1"/>
        <pt x="27" y="47" on="1"/>
        <pt x="87" y="21" on="0"/>
        <pt x="213" y="-8" on="0"/>
        <pt x="289" y="-8" on="1"/>
        <pt x="341" y="-8" on="0"/>
        <pt x="436" y="16" on="0"/>
        <pt x="506" y="70" on="0"/>
        <pt x="548" y="156" on="0"/>
      </contour>
    </TTGlyph>
    <TTGlyph name="Scaron" xMin="27" yMin="-8" xMax="548" yMax="902">
      <contour>
        <pt x="548" y="217" on="1"/>
        <pt x="548" y="259" on="0"/>
        <pt x="523" y="324" on="0"/>
        <pt x="469" y="376" on="0"/>
        <pt x="385" y="417" on="0"/>
        <pt x="326" y="437" on="1"/>
        <pt x="297" y="447" on="0"/>
        <pt x="260" y="463" on="0"/>
        <pt x="239" y="478" on="0"/>
        <pt x="232" y="494" on="0"/>
        <pt x="232" y="504" on="1"/>
        <pt x="232" y="542" on="0"/>
        <pt x="293" y="542" on="1"/>
        <pt x="332" y="542" on="0"/>
        <pt x="434" y="512" on="0"/>
        <pt x="488" y="483" on="1"/>
        <pt x="518" y="649" on="1"/>
        <pt x="492" y="661" on="0"/>
        <pt x="443" y="679" on="0"/>
        <pt x="388" y="692" on="0"/>
        <pt x="326" y="698" on="0"/>
        <pt x="289" y="698" on="1"/>
        <pt x="238" y="698" on="0"/>
        <pt x="148" y="671" on="0"/>
        <pt x="81" y="618" on="0"/>
        <pt x="42" y="538" on="0"/>
        <pt x="42" y="485" on="1"/>
        <pt x="42" y="440" on="0"/>
        <pt x="66" y="375" on="0"/>
        <pt x="117" y="325" on="0"/>
        <pt x="194" y="287" on="0"/>
        <pt x="247" y="268" on="1"/>
        <pt x="282" y="256" on="0"/>
        <pt x="326" y="237" on="0"/>
        <pt x="350" y="220" on="0"/>
        <pt x="358" y="203" on="0"/>
        <pt x="358" y="192" on="1"/>
        <pt x="358" y="169" on="0"/>
        <pt x="322" y="148" on="0"/>
        <pt x="292" y="148" on="1"/>
        <pt x="240" y="148" on="0"/>
        <pt x="118" y="184" on="0"/>
        <pt x="57" y="214" on="1"/>
        <pt x="27" y="47" on="1"/>
        <pt x="87" y="21" on="0"/>
        <pt x="213" y="-8" on="0"/>
        <pt x="289" y="-8" on="1"/>
        <pt x="341" y="-8" on="0"/>
        <pt x="436" y="16" on="0"/>
        <pt x="506" y="70" on="0"/>
        <pt x="548" y="156" on="0"/>
      </contour>
      <contour>
        <pt x="475" y="897" on="1"/>
        <pt x="362" y="897" on="1"/>
        <pt x="293" y="844" on="1"/>
        <pt x="221" y="902" on="1"/>
        <pt x="115" y="881" on="1"/>
        <pt x="211" y="747" on="1"/>
        <pt x="373" y="747" on="1"/>
      </contour>
    </TTGlyph>
    <TTGlyph name="T" xMin="21" yMin="0" xMax="604" yMax="690">
      <contour>
        <pt x="604" y="520" on="1"/>
        <pt x="576" y="690" on="1"/>
        <pt x="21" y="690" on="1"/>
        <pt x="21" y="520" on="1"/>
        <pt x="200" y="520" on="1"/>
        <pt x="200" y="0" on="1"/>
        <pt x="405" y="0" on="1"/>
        <pt x="405" y="520" on="1"/>
      </contour>
    </TTGlyph>
    <TTGlyph name="Thorn" xMin="54" yMin="0" xMax="579" yMax="690">
      <contour>
        <pt x="579" y="359" on="1"/>
        <pt x="579" y="419" on="0"/>
        <pt x="539" y="507" on="0"/>
        <pt x="465" y="566" on="0"/>
        <pt x="359" y="595" on="0"/>
        <pt x="292" y="595" on="1"/>
        <pt x="258" y="595" on="1"/>
        <pt x="258" y="690" on="1"/>
        <pt x="54" y="690" on="1"/>
        <pt x="54" y="0" on="1"/>
        <pt x="258" y="0" on="1"/>
        <pt x="258" y="112" on="1"/>
        <pt x="289" y="112" on="1"/>
        <pt x="354" y="112" on="0"/>
        <pt x="461" y="143" on="0"/>
        <pt x="537" y="205" on="0"/>
        <pt x="579" y="298" on="0"/>
      </contour>
      <contour>
        <pt x="384" y="356" on="1"/>
        <pt x="384" y="307" on="0"/>
        <pt x="330" y="261" on="0"/>
        <pt x="279" y="261" on="1"/>
        <pt x="256" y="261" on="1"/>
        <pt x="256" y="446" on="1"/>
        <pt x="281" y="446" on="1"/>
        <pt x="384" y="446" on="0"/>
      </contour>
    </TTGlyph>
    <TTGlyph name="U" xMin="46" yMin="-10" xMax="641" yMax="690">
      <contour>
        <pt x="641" y="278" on="1"/>
        <pt x="641" y="690" on="1"/>
        <pt x="436" y="690" on="1"/>
        <pt x="436" y="273" on="1"/>
        <pt x="436" y="219" on="0"/>
        <pt x="391" y="159" on="0"/>
        <pt x="344" y="159" on="1"/>
        <pt x="300" y="159" on="0"/>
        <pt x="251" y="218" on="0"/>
        <pt x="251" y="275" on="1"/>
        <pt x="251" y="690" on="1"/>
        <pt x="46" y="690" on="1"/>
        <pt x="46" y="278" on="1"/>
        <pt x="46" y="202" on="0"/>
        <pt x="91" y="93" on="0"/>
        <pt x="170" y="23" on="0"/>
        <pt x="278" y="-10" on="0"/>
        <pt x="341" y="-10" on="1"/>
        <pt x="404" y="-10" on="0"/>
        <pt x="513" y="23" on="0"/>
        <pt x="594" y="94" on="0"/>
        <pt x="641" y="203" on="0"/>
      </contour>
    </TTGlyph>
    <TTGlyph name="Uacute" xMin="46" yMin="-10" xMax="641" yMax="876">
      <contour>
        <pt x="543" y="843" on="1"/>
        <pt x="328" y="876" on="1"/>
        <pt x="279" y="725" on="1"/>
        <pt x="391" y="725" on="1"/>
      </contour>
      <contour>
        <pt x="641" y="278" on="1"/>
        <pt x="641" y="690" on="1"/>
        <pt x="436" y="690" on="1"/>
        <pt x="436" y="273" on="1"/>
        <pt x="436" y="219" on="0"/>
        <pt x="391" y="159" on="0"/>
        <pt x="344" y="159" on="1"/>
        <pt x="300" y="159" on="0"/>
        <pt x="251" y="218" on="0"/>
        <pt x="251" y="275" on="1"/>
        <pt x="251" y="690" on="1"/>
        <pt x="46" y="690" on="1"/>
        <pt x="46" y="278" on="1"/>
        <pt x="46" y="202" on="0"/>
        <pt x="91" y="93" on="0"/>
        <pt x="170" y="23" on="0"/>
        <pt x="278" y="-10" on="0"/>
        <pt x="341" y="-10" on="1"/>
        <pt x="404" y="-10" on="0"/>
        <pt x="513" y="23" on="0"/>
        <pt x="594" y="94" on="0"/>
        <pt x="641" y="203" on="0"/>
      </contour>
    </TTGlyph>
    <TTGlyph name="Ucircumflex" xMin="46" yMin="-10" xMax="641" yMax="879">
      <contour>
        <pt x="641" y="278" on="1"/>
        <pt x="641" y="690" on="1"/>
        <pt x="436" y="690" on="1"/>
        <pt x="436" y="273" on="1"/>
        <pt x="436" y="219" on="0"/>
        <pt x="391" y="159" on="0"/>
        <pt x="344" y="159" on="1"/>
        <pt x="300" y="159" on="0"/>
        <pt x="251" y="218" on="0"/>
        <pt x="251" y="275" on="1"/>
        <pt x="251" y="690" on="1"/>
        <pt x="46" y="690" on="1"/>
        <pt x="46" y="278" on="1"/>
        <pt x="46" y="202" on="0"/>
        <pt x="91" y="93" on="0"/>
        <pt x="170" y="23" on="0"/>
        <pt x="278" y="-10" on="0"/>
        <pt x="341" y="-10" on="1"/>
        <pt x="404" y="-10" on="0"/>
        <pt x="513" y="23" on="0"/>
        <pt x="594" y="94" on="0"/>
        <pt x="641" y="203" on="0"/>
      </contour>
      <contour>
        <pt x="523" y="745" on="1"/>
        <pt x="427" y="879" on="1"/>
        <pt x="265" y="879" on="1"/>
        <pt x="163" y="729" on="1"/>
        <pt x="276" y="729" on="1"/>
        <pt x="345" y="782" on="1"/>
        <pt x="417" y="724" on="1"/>
      </contour>
    </TTGlyph>
    <TTGlyph name="Udieresis" xMin="46" yMin="-10" xMax="641" yMax="872">
      <contour>
        <pt x="641" y="278" on="1"/>
        <pt x="641" y="690" on="1"/>
        <pt x="436" y="690" on="1"/>
        <pt x="436" y="273" on="1"/>
        <pt x="436" y="219" on="0"/>
        <pt x="391" y="159" on="0"/>
        <pt x="344" y="159" on="1"/>
        <pt x="300" y="159" on="0"/>
        <pt x="251" y="218" on="0"/>
        <pt x="251" y="275" on="1"/>
        <pt x="251" y="690" on="1"/>
        <pt x="46" y="690" on="1"/>
        <pt x="46" y="278" on="1"/>
        <pt x="46" y="202" on="0"/>
        <pt x="91" y="93" on="0"/>
        <pt x="170" y="23" on="0"/>
        <pt x="278" y="-10" on="0"/>
        <pt x="341" y="-10" on="1"/>
        <pt x="404" y="-10" on="0"/>
        <pt x="513" y="23" on="0"/>
        <pt x="594" y="94" on="0"/>
        <pt x="641" y="203" on="0"/>
      </contour>
      <contour>
        <pt x="518" y="729" on="1"/>
        <pt x="518" y="872" on="1"/>
        <pt x="374" y="872" on="1"/>
        <pt x="374" y="729" on="1"/>
      </contour>
      <contour>
        <pt x="312" y="729" on="1"/>
        <pt x="312" y="872" on="1"/>
        <pt x="168" y="872" on="1"/>
        <pt x="168" y="729" on="1"/>
      </contour>
    </TTGlyph>
    <TTGlyph name="Ugrave" xMin="46" yMin="-10" xMax="641" yMax="876">
      <contour>
        <pt x="641" y="278" on="1"/>
        <pt x="641" y="690" on="1"/>
        <pt x="436" y="690" on="1"/>
        <pt x="436" y="273" on="1"/>
        <pt x="436" y="219" on="0"/>
        <pt x="391" y="159" on="0"/>
        <pt x="344" y="159" on="1"/>
        <pt x="300" y="159" on="0"/>
        <pt x="251" y="218" on="0"/>
        <pt x="251" y="275" on="1"/>
        <pt x="251" y="690" on="1"/>
        <pt x="46" y="690" on="1"/>
        <pt x="46" y="278" on="1"/>
        <pt x="46" y="202" on="0"/>
        <pt x="91" y="93" on="0"/>
        <pt x="170" y="23" on="0"/>
        <pt x="278" y="-10" on="0"/>
        <pt x="341" y="-10" on="1"/>
        <pt x="404" y="-10" on="0"/>
        <pt x="513" y="23" on="0"/>
        <pt x="594" y="94" on="0"/>
        <pt x="641" y="203" on="0"/>
      </contour>
      <contour>
        <pt x="410" y="725" on="1"/>
        <pt x="360" y="876" on="1"/>
        <pt x="142" y="843" on="1"/>
        <pt x="294" y="725" on="1"/>
      </contour>
    </TTGlyph>
    <TTGlyph name="V" xMin="6" yMin="-3" xMax="693" yMax="697">
      <contour>
        <pt x="693" y="690" on="1"/>
        <pt x="483" y="690" on="1"/>
        <pt x="359" y="251" on="1"/>
        <pt x="231" y="697" on="1"/>
        <pt x="6" y="665" on="1"/>
        <pt x="238" y="-3" on="1"/>
        <pt x="452" y="-3" on="1"/>
      </contour>
    </TTGlyph>
    <TTGlyph name="W" xMin="10" yMin="0" xMax="968" yMax="697">
      <contour>
        <pt x="968" y="690" on="1"/>
        <pt x="767" y="690" on="1"/>
        <pt x="691" y="305" on="1"/>
        <pt x="607" y="690" on="1"/>
        <pt x="401" y="690" on="1"/>
        <pt x="317" y="305" on="1"/>
        <pt x="235" y="697" on="1"/>
        <pt x="10" y="664" on="1"/>
        <pt x="183" y="0" on="1"/>
        <pt x="395" y="0" on="1"/>
        <pt x="485" y="396" on="1"/>
        <pt x="575" y="0" on="1"/>
        <pt x="788" y="0" on="1"/>
      </contour>
    </TTGlyph>
    <TTGlyph name="X" xMin="6" yMin="-7" xMax="666" yMax="697">
      <contour>
        <pt x="214" y="347" on="1"/>
        <pt x="214" y="347" on="0"/>
        <pt x="183" y="296" on="0"/>
        <pt x="137" y="219" on="0"/>
        <pt x="83" y="129" on="0"/>
        <pt x="37" y="52" on="0"/>
        <pt x="6" y="0" on="0"/>
        <pt x="6" y="0" on="1"/>
        <pt x="212" y="0" on="1"/>
        <pt x="213" y="2" on="0"/>
        <pt x="235" y="42" on="0"/>
        <pt x="269" y="107" on="0"/>
        <pt x="302" y="168" on="0"/>
        <pt x="326" y="211" on="0"/>
        <pt x="326" y="211" on="1"/>
        <pt x="446" y="-7" on="1"/>
        <pt x="666" y="26" on="1"/>
        <pt x="457" y="366" on="1"/>
        <pt x="651" y="690" on="1"/>
        <pt x="444" y="690" on="1"/>
        <pt x="345" y="503" on="1"/>
        <pt x="240" y="697" on="1"/>
        <pt x="21" y="664" on="1"/>
      </contour>
    </TTGlyph>
    <TTGlyph name="Y" xMin="0" yMin="0" xMax="688" yMax="697">
      <contour>
        <pt x="688" y="690" on="1"/>
        <pt x="477" y="690" on="1"/>
        <pt x="350" y="432" on="1"/>
        <pt x="220" y="697" on="1"/>
        <pt x="0" y="670" on="1"/>
        <pt x="236" y="242" on="1"/>
        <pt x="236" y="0" on="1"/>
        <pt x="441" y="0" on="1"/>
        <pt x="441" y="246" on="1"/>
      </contour>
    </TTGlyph>
    <TTGlyph name="Yacute" xMin="0" yMin="0" xMax="688" yMax="871">
      <contour>
        <pt x="688" y="690" on="1"/>
        <pt x="477" y="690" on="1"/>
        <pt x="350" y="432" on="1"/>
        <pt x="220" y="697" on="1"/>
        <pt x="0" y="670" on="1"/>
        <pt x="236" y="242" on="1"/>
        <pt x="236" y="0" on="1"/>
        <pt x="441" y="0" on="1"/>
        <pt x="441" y="246" on="1"/>
      </contour>
      <contour>
        <pt x="553" y="838" on="1"/>
        <pt x="338" y="871" on="1"/>
        <pt x="289" y="720" on="1"/>
        <pt x="401" y="720" on="1"/>
      </contour>
    </TTGlyph>
    <TTGlyph name="Ydieresis" xMin="0" yMin="0" xMax="688" yMax="872">
      <contour>
        <pt x="688" y="690" on="1"/>
        <pt x="477" y="690" on="1"/>
        <pt x="350" y="432" on="1"/>
        <pt x="220" y="697" on="1"/>
        <pt x="0" y="670" on="1"/>
        <pt x="236" y="242" on="1"/>
        <pt x="236" y="0" on="1"/>
        <pt x="441" y="0" on="1"/>
        <pt x="441" y="246" on="1"/>
      </contour>
      <contour>
        <pt x="525" y="729" on="1"/>
        <pt x="525" y="872" on="1"/>
        <pt x="381" y="872" on="1"/>
        <pt x="381" y="729" on="1"/>
      </contour>
      <contour>
        <pt x="319" y="729" on="1"/>
        <pt x="319" y="872" on="1"/>
        <pt x="175" y="872" on="1"/>
        <pt x="175" y="729" on="1"/>
      </contour>
    </TTGlyph>
    <TTGlyph name="Z" xMin="37" yMin="0" xMax="587" yMax="690">
      <contour>
        <pt x="587" y="0" on="1"/>
        <pt x="562" y="159" on="1"/>
        <pt x="287" y="159" on="1"/>
        <pt x="578" y="543" on="1"/>
        <pt x="578" y="690" on="1"/>
        <pt x="49" y="690" on="1"/>
        <pt x="73" y="531" on="1"/>
        <pt x="328" y="531" on="1"/>
        <pt x="37" y="147" on="1"/>
        <pt x="37" y="0" on="1"/>
      </contour>
    </TTGlyph>
    <TTGlyph name="Zcaron" xMin="37" yMin="0" xMax="587" yMax="893">
      <contour>
        <pt x="587" y="0" on="1"/>
        <pt x="562" y="159" on="1"/>
        <pt x="287" y="159" on="1"/>
        <pt x="578" y="543" on="1"/>
        <pt x="578" y="690" on="1"/>
        <pt x="49" y="690" on="1"/>
        <pt x="73" y="531" on="1"/>
        <pt x="328" y="531" on="1"/>
        <pt x="37" y="147" on="1"/>
        <pt x="37" y="0" on="1"/>
      </contour>
      <contour>
        <pt x="500" y="888" on="1"/>
        <pt x="387" y="888" on="1"/>
        <pt x="318" y="835" on="1"/>
        <pt x="246" y="893" on="1"/>
        <pt x="140" y="872" on="1"/>
        <pt x="236" y="738" on="1"/>
        <pt x="398" y="738" on="1"/>
      </contour>
    </TTGlyph>
    <TTGlyph name="a" xMin="22" yMin="-10" xMax="471" yMax="503">
      <contour>
        <pt x="471" y="0" on="1"/>
        <pt x="471" y="326" on="1"/>
        <pt x="471" y="376" on="0"/>
        <pt x="444" y="444" on="0"/>
        <pt x="390" y="485" on="0"/>
        <pt x="310" y="503" on="0"/>
        <pt x="256" y="503" on="1"/>
        <pt x="193" y="503" on="0"/>
        <pt x="93" y="483" on="0"/>
        <pt x="51" y="466" on="1"/>
        <pt x="71" y="336" on="1"/>
        <pt x="110" y="353" on="0"/>
        <pt x="186" y="371" on="0"/>
        <pt x="226" y="371" on="1"/>
        <pt x="262" y="371" on="0"/>
        <pt x="293" y="344" on="0"/>
        <pt x="293" y="317" on="1"/>
        <pt x="293" y="313" on="1"/>
        <pt x="152" y="301" on="0"/>
        <pt x="22" y="212" on="0"/>
        <pt x="22" y="127" on="1"/>
        <pt x="22" y="58" on="0"/>
        <pt x="96" y="-10" on="0"/>
        <pt x="153" y="-10" on="1"/>
        <pt x="199" y="-10" on="0"/>
        <pt x="269" y="28" on="0"/>
        <pt x="301" y="60" on="1"/>
        <pt x="311" y="0" on="1"/>
      </contour>
      <contour>
        <pt x="294" y="137" on="1"/>
        <pt x="262" y="112" on="0"/>
        <pt x="235" y="112" on="1"/>
        <pt x="218" y="112" on="0"/>
        <pt x="197" y="133" on="0"/>
        <pt x="197" y="154" on="1"/>
        <pt x="197" y="184" on="0"/>
        <pt x="240" y="226" on="0"/>
        <pt x="294" y="238" on="1"/>
      </contour>
    </TTGlyph>
    <TTGlyph name="aacute" xMin="22" yMin="-10" xMax="471" yMax="698">
      <contour>
        <pt x="471" y="0" on="1"/>
        <pt x="471" y="326" on="1"/>
        <pt x="471" y="376" on="0"/>
        <pt x="444" y="444" on="0"/>
        <pt x="390" y="485" on="0"/>
        <pt x="310" y="503" on="0"/>
        <pt x="256" y="503" on="1"/>
        <pt x="193" y="503" on="0"/>
        <pt x="93" y="483" on="0"/>
        <pt x="51" y="466" on="1"/>
        <pt x="71" y="336" on="1"/>
        <pt x="110" y="353" on="0"/>
        <pt x="186" y="371" on="0"/>
        <pt x="226" y="371" on="1"/>
        <pt x="262" y="371" on="0"/>
        <pt x="293" y="344" on="0"/>
        <pt x="293" y="317" on="1"/>
        <pt x="293" y="313" on="1"/>
        <pt x="152" y="301" on="0"/>
        <pt x="22" y="212" on="0"/>
        <pt x="22" y="127" on="1"/>
        <pt x="22" y="58" on="0"/>
        <pt x="96" y="-10" on="0"/>
        <pt x="153" y="-10" on="1"/>
        <pt x="199" y="-10" on="0"/>
        <pt x="269" y="28" on="0"/>
        <pt x="301" y="60" on="1"/>
        <pt x="311" y="0" on="1"/>
      </contour>
      <contour>
        <pt x="294" y="137" on="1"/>
        <pt x="262" y="112" on="0"/>
        <pt x="235" y="112" on="1"/>
        <pt x="218" y="112" on="0"/>
        <pt x="197" y="133" on="0"/>
        <pt x="197" y="154" on="1"/>
        <pt x="197" y="184" on="0"/>
        <pt x="240" y="226" on="0"/>
        <pt x="294" y="238" on="1"/>
      </contour>
      <contour>
        <pt x="444" y="665" on="1"/>
        <pt x="229" y="698" on="1"/>
        <pt x="180" y="547" on="1"/>
        <pt x="292" y="547" on="1"/>
      </contour>
    </TTGlyph>
    <TTGlyph name="acircumflex" xMin="22" yMin="-10" xMax="471" yMax="697">
      <contour>
        <pt x="471" y="0" on="1"/>
        <pt x="471" y="326" on="1"/>
        <pt x="471" y="376" on="0"/>
        <pt x="444" y="444" on="0"/>
        <pt x="390" y="485" on="0"/>
        <pt x="310" y="503" on="0"/>
        <pt x="256" y="503" on="1"/>
        <pt x="193" y="503" on="0"/>
        <pt x="93" y="483" on="0"/>
        <pt x="51" y="466" on="1"/>
        <pt x="71" y="336" on="1"/>
        <pt x="110" y="353" on="0"/>
        <pt x="186" y="371" on="0"/>
        <pt x="226" y="371" on="1"/>
        <pt x="262" y="371" on="0"/>
        <pt x="293" y="344" on="0"/>
        <pt x="293" y="317" on="1"/>
        <pt x="293" y="313" on="1"/>
        <pt x="152" y="301" on="0"/>
        <pt x="22" y="212" on="0"/>
        <pt x="22" y="127" on="1"/>
        <pt x="22" y="58" on="0"/>
        <pt x="96" y="-10" on="0"/>
        <pt x="153" y="-10" on="1"/>
        <pt x="199" y="-10" on="0"/>
        <pt x="269" y="28" on="0"/>
        <pt x="301" y="60" on="1"/>
        <pt x="311" y="0" on="1"/>
      </contour>
      <contour>
        <pt x="294" y="137" on="1"/>
        <pt x="262" y="112" on="0"/>
        <pt x="235" y="112" on="1"/>
        <pt x="218" y="112" on="0"/>
        <pt x="197" y="133" on="0"/>
        <pt x="197" y="154" on="1"/>
        <pt x="197" y="184" on="0"/>
        <pt x="240" y="226" on="0"/>
        <pt x="294" y="238" on="1"/>
      </contour>
      <contour>
        <pt x="439" y="563" on="1"/>
        <pt x="343" y="697" on="1"/>
        <pt x="181" y="697" on="1"/>
        <pt x="79" y="547" on="1"/>
        <pt x="192" y="547" on="1"/>
        <pt x="261" y="600" on="1"/>
        <pt x="333" y="542" on="1"/>
      </contour>
    </TTGlyph>
    <TTGlyph name="acute" xMin="104" yMin="547" xMax="368" yMax="698">
      <contour>
        <pt x="368" y="665" on="1"/>
        <pt x="153" y="698" on="1"/>
        <pt x="104" y="547" on="1"/>
        <pt x="216" y="547" on="1"/>
      </contour>
    </TTGlyph>
    <TTGlyph name="adieresis" xMin="22" yMin="-10" xMax="471" yMax="690">
      <contour>
        <pt x="471" y="0" on="1"/>
        <pt x="471" y="326" on="1"/>
        <pt x="471" y="376" on="0"/>
        <pt x="444" y="444" on="0"/>
        <pt x="390" y="485" on="0"/>
        <pt x="310" y="503" on="0"/>
        <pt x="256" y="503" on="1"/>
        <pt x="193" y="503" on="0"/>
        <pt x="93" y="483" on="0"/>
        <pt x="51" y="466" on="1"/>
        <pt x="71" y="336" on="1"/>
        <pt x="110" y="353" on="0"/>
        <pt x="186" y="371" on="0"/>
        <pt x="226" y="371" on="1"/>
        <pt x="262" y="371" on="0"/>
        <pt x="293" y="344" on="0"/>
        <pt x="293" y="317" on="1"/>
        <pt x="293" y="313" on="1"/>
        <pt x="152" y="301" on="0"/>
        <pt x="22" y="212" on="0"/>
        <pt x="22" y="127" on="1"/>
        <pt x="22" y="58" on="0"/>
        <pt x="96" y="-10" on="0"/>
        <pt x="153" y="-10" on="1"/>
        <pt x="199" y="-10" on="0"/>
        <pt x="269" y="28" on="0"/>
        <pt x="301" y="60" on="1"/>
        <pt x="311" y="0" on="1"/>
      </contour>
      <contour>
        <pt x="294" y="137" on="1"/>
        <pt x="262" y="112" on="0"/>
        <pt x="235" y="112" on="1"/>
        <pt x="218" y="112" on="0"/>
        <pt x="197" y="133" on="0"/>
        <pt x="197" y="154" on="1"/>
        <pt x="197" y="184" on="0"/>
        <pt x="240" y="226" on="0"/>
        <pt x="294" y="238" on="1"/>
      </contour>
      <contour>
        <pt x="434" y="547" on="1"/>
        <pt x="434" y="690" on="1"/>
        <pt x="290" y="690" on="1"/>
        <pt x="290" y="547" on="1"/>
      </contour>
      <contour>
        <pt x="228" y="547" on="1"/>
        <pt x="228" y="690" on="1"/>
        <pt x="84" y="690" on="1"/>
        <pt x="84" y="547" on="1"/>
      </contour>
    </TTGlyph>
    <TTGlyph name="ae" xMin="22" yMin="-10" xMax="753" yMax="505">
      <contour>
        <pt x="753" y="245" on="1"/>
        <pt x="753" y="300" on="0"/>
        <pt x="728" y="395" on="0"/>
        <pt x="675" y="465" on="0"/>
        <pt x="595" y="505" on="0"/>
        <pt x="541" y="505" on="1"/>
        <pt x="494" y="505" on="0"/>
        <pt x="426" y="470" on="0"/>
        <pt x="400" y="439" on="1"/>
        <pt x="377" y="472" on="0"/>
        <pt x="306" y="503" on="0"/>
        <pt x="248" y="503" on="1"/>
        <pt x="193" y="503" on="0"/>
        <pt x="93" y="483" on="0"/>
        <pt x="51" y="466" on="1"/>
        <pt x="71" y="336" on="1"/>
        <pt x="110" y="353" on="0"/>
        <pt x="186" y="371" on="0"/>
        <pt x="226" y="371" on="1"/>
        <pt x="262" y="371" on="0"/>
        <pt x="293" y="344" on="0"/>
        <pt x="293" y="317" on="1"/>
        <pt x="293" y="313" on="1"/>
        <pt x="152" y="301" on="0"/>
        <pt x="22" y="211" on="0"/>
        <pt x="22" y="126" on="1"/>
        <pt x="22" y="91" on="0"/>
        <pt x="45" y="40" on="0"/>
        <pt x="86" y="7" on="0"/>
        <pt x="142" y="-10" on="0"/>
        <pt x="175" y="-10" on="1"/>
        <pt x="223" y="-10" on="0"/>
        <pt x="308" y="25" on="0"/>
        <pt x="353" y="62" on="1"/>
        <pt x="388" y="26" on="0"/>
        <pt x="492" y="-10" on="0"/>
        <pt x="556" y="-10" on="1"/>
        <pt x="613" y="-10" on="0"/>
        <pt x="712" y="18" on="0"/>
        <pt x="753" y="41" on="1"/>
        <pt x="736" y="159" on="1"/>
        <pt x="695" y="138" on="0"/>
        <pt x="615" y="114" on="0"/>
        <pt x="580" y="114" on="1"/>
        <pt x="536" y="114" on="0"/>
        <pt x="476" y="150" on="0"/>
        <pt x="468" y="197" on="1"/>
        <pt x="750" y="197" on="1"/>
        <pt x="752" y="205" on="0"/>
        <pt x="753" y="231" on="0"/>
      </contour>
      <contour>
        <pt x="586" y="288" on="1"/>
        <pt x="465" y="288" on="1"/>
        <pt x="466" y="342" on="0"/>
        <pt x="498" y="396" on="0"/>
        <pt x="525" y="396" on="1"/>
        <pt x="552" y="396" on="0"/>
        <pt x="584" y="342" on="0"/>
      </contour>
      <contour>
        <pt x="305" y="143" on="1"/>
        <pt x="269" y="112" on="0"/>
        <pt x="238" y="112" on="1"/>
        <pt x="219" y="112" on="0"/>
        <pt x="197" y="134" on="0"/>
        <pt x="197" y="157" on="1"/>
        <pt x="197" y="183" on="0"/>
        <pt x="238" y="225" on="0"/>
        <pt x="291" y="237" on="1"/>
        <pt x="291" y="236" on="1"/>
        <pt x="291" y="210" on="0"/>
        <pt x="299" y="165" on="0"/>
      </contour>
    </TTGlyph>
    <TTGlyph name="agrave" xMin="22" yMin="-10" xMax="471" yMax="698">
      <contour>
        <pt x="471" y="0" on="1"/>
        <pt x="471" y="326" on="1"/>
        <pt x="471" y="376" on="0"/>
        <pt x="444" y="444" on="0"/>
        <pt x="390" y="485" on="0"/>
        <pt x="310" y="503" on="0"/>
        <pt x="256" y="503" on="1"/>
        <pt x="193" y="503" on="0"/>
        <pt x="93" y="483" on="0"/>
        <pt x="51" y="466" on="1"/>
        <pt x="71" y="336" on="1"/>
        <pt x="110" y="353" on="0"/>
        <pt x="186" y="371" on="0"/>
        <pt x="226" y="371" on="1"/>
        <pt x="262" y="371" on="0"/>
        <pt x="293" y="344" on="0"/>
        <pt x="293" y="317" on="1"/>
        <pt x="293" y="313" on="1"/>
        <pt x="152" y="301" on="0"/>
        <pt x="22" y="212" on="0"/>
        <pt x="22" y="127" on="1"/>
        <pt x="22" y="58" on="0"/>
        <pt x="96" y="-10" on="0"/>
        <pt x="153" y="-10" on="1"/>
        <pt x="199" y="-10" on="0"/>
        <pt x="269" y="28" on="0"/>
        <pt x="301" y="60" on="1"/>
        <pt x="311" y="0" on="1"/>
      </contour>
      <contour>
        <pt x="294" y="137" on="1"/>
        <pt x="262" y="112" on="0"/>
        <pt x="235" y="112" on="1"/>
        <pt x="218" y="112" on="0"/>
        <pt x="197" y="133" on="0"/>
        <pt x="197" y="154" on="1"/>
        <pt x="197" y="184" on="0"/>
        <pt x="240" y="226" on="0"/>
        <pt x="294" y="238" on="1"/>
      </contour>
      <contour>
        <pt x="334" y="547" on="1"/>
        <pt x="284" y="698" on="1"/>
        <pt x="66" y="665" on="1"/>
        <pt x="218" y="547" on="1"/>
      </contour>
    </TTGlyph>
    <TTGlyph name="ampersand" xMin="24" yMin="-10" xMax="668" yMax="703">
      <contour>
        <pt x="668" y="15" on="1"/>
        <pt x="538" y="177" on="1"/>
        <pt x="561" y="219" on="0"/>
        <pt x="594" y="322" on="0"/>
        <pt x="602" y="385" on="1"/>
        <pt x="455" y="417" on="1"/>
        <pt x="451" y="384" on="0"/>
        <pt x="441" y="328" on="0"/>
        <pt x="434" y="303" on="1"/>
        <pt x="313" y="452" on="1"/>
        <pt x="298" y="471" on="0"/>
        <pt x="285" y="498" on="0"/>
        <pt x="285" y="512" on="1"/>
        <pt x="285" y="528" on="0"/>
        <pt x="308" y="551" on="0"/>
        <pt x="331" y="551" on="1"/>
        <pt x="363" y="551" on="0"/>
        <pt x="436" y="527" on="0"/>
        <pt x="475" y="507" on="1"/>
        <pt x="500" y="659" on="1"/>
        <pt x="467" y="677" on="0"/>
        <pt x="369" y="703" on="0"/>
        <pt x="308" y="703" on="1"/>
        <pt x="211" y="703" on="0"/>
        <pt x="99" y="612" on="0"/>
        <pt x="99" y="528" on="1"/>
        <pt x="99" y="484" on="0"/>
        <pt x="122" y="420" on="0"/>
        <pt x="151" y="382" on="1"/>
        <pt x="93" y="346" on="0"/>
        <pt x="24" y="252" on="0"/>
        <pt x="24" y="180" on="1"/>
        <pt x="24" y="135" on="0"/>
        <pt x="57" y="64" on="0"/>
        <pt x="117" y="16" on="0"/>
        <pt x="201" y="-10" on="0"/>
        <pt x="252" y="-10" on="1"/>
        <pt x="300" y="-10" on="0"/>
        <pt x="388" y="18" on="0"/>
        <pt x="426" y="47" on="1"/>
        <pt x="469" y="-6" on="1"/>
      </contour>
      <contour>
        <pt x="344" y="148" on="1"/>
        <pt x="317" y="128" on="0"/>
        <pt x="289" y="128" on="1"/>
        <pt x="249" y="128" on="0"/>
        <pt x="206" y="169" on="0"/>
        <pt x="206" y="202" on="1"/>
        <pt x="206" y="242" on="0"/>
        <pt x="237" y="279" on="1"/>
      </contour>
    </TTGlyph>
    <TTGlyph name="apple" xMin="50" yMin="-200" xMax="644" yMax="800">
      <contour>
        <pt x="644" y="-200" on="1"/>
        <pt x="644" y="721" on="1"/>
        <pt x="543" y="721" on="1"/>
        <pt x="514" y="800" on="1"/>
        <pt x="180" y="800" on="1"/>
        <pt x="150" y="721" on="1"/>
        <pt x="50" y="721" on="1"/>
        <pt x="50" y="167" on="1"/>
        <pt x="64" y="167" on="0"/>
        <pt x="82" y="148" on="0"/>
        <pt x="82" y="135" on="1"/>
        <pt x="82" y="121" on="0"/>
        <pt x="64" y="103" on="0"/>
        <pt x="50" y="103" on="1"/>
        <pt x="50" y="-200" on="1"/>
        <pt x="257" y="-200" on="1"/>
        <pt x="265" y="-186" on="1"/>
        <pt x="428" y="-186" on="1"/>
        <pt x="436" y="-200" on="1"/>
      </contour>
      <contour>
        <pt x="400" y="563" on="1"/>
        <pt x="458" y="563" on="1"/>
        <pt x="458" y="549" on="1"/>
        <pt x="415" y="549" on="1"/>
        <pt x="415" y="483" on="1"/>
        <pt x="453" y="483" on="1"/>
        <pt x="453" y="469" on="1"/>
        <pt x="415" y="469" on="1"/>
        <pt x="415" y="391" on="1"/>
        <pt x="400" y="391" on="1"/>
      </contour>
      <contour>
        <pt x="184" y="563" on="1"/>
        <pt x="199" y="563" on="1"/>
        <pt x="199" y="484" on="1"/>
        <pt x="246" y="484" on="1"/>
        <pt x="246" y="563" on="1"/>
        <pt x="261" y="563" on="1"/>
        <pt x="261" y="391" on="1"/>
        <pt x="246" y="391" on="1"/>
        <pt x="246" y="470" on="1"/>
        <pt x="199" y="470" on="1"/>
        <pt x="199" y="391" on="1"/>
        <pt x="184" y="391" on="1"/>
      </contour>
      <contour>
        <pt x="460" y="394" on="1"/>
        <pt x="460" y="410" on="1"/>
        <pt x="464" y="408" on="0"/>
        <pt x="476" y="404" on="0"/>
        <pt x="480" y="404" on="1"/>
        <pt x="496" y="404" on="0"/>
        <pt x="496" y="426" on="1"/>
        <pt x="496" y="563" on="1"/>
        <pt x="512" y="563" on="1"/>
        <pt x="512" y="426" on="1"/>
        <pt x="512" y="390" on="0"/>
        <pt x="481" y="390" on="1"/>
        <pt x="476" y="390" on="0"/>
        <pt x="463" y="392" on="0"/>
      </contour>
      <contour>
        <pt x="523" y="323" on="1"/>
        <pt x="531" y="323" on="1"/>
        <pt x="531" y="299" on="1"/>
        <pt x="552" y="323" on="1"/>
        <pt x="562" y="323" on="1"/>
        <pt x="544" y="303" on="1"/>
        <pt x="563" y="277" on="1"/>
        <pt x="554" y="277" on="1"/>
        <pt x="538" y="297" on="1"/>
        <pt x="531" y="290" on="1"/>
        <pt x="531" y="277" on="1"/>
        <pt x="523" y="277" on="1"/>
      </contour>
      <contour>
        <pt x="488" y="292" on="1"/>
        <pt x="476" y="292" on="1"/>
        <pt x="476" y="277" on="1"/>
        <pt x="468" y="277" on="1"/>
        <pt x="468" y="323" on="1"/>
        <pt x="489" y="323" on="1"/>
        <pt x="497" y="323" on="0"/>
        <pt x="505" y="314" on="0"/>
        <pt x="505" y="309" on="1"/>
        <pt x="505" y="297" on="0"/>
        <pt x="495" y="294" on="1"/>
        <pt x="507" y="277" on="1"/>
        <pt x="498" y="277" on="1"/>
      </contour>
      <contour>
        <pt x="426" y="276" on="1"/>
        <pt x="415" y="276" on="0"/>
        <pt x="403" y="290" on="0"/>
        <pt x="403" y="300" on="1"/>
        <pt x="403" y="309" on="0"/>
        <pt x="415" y="324" on="0"/>
        <pt x="426" y="324" on="1"/>
        <pt x="437" y="324" on="0"/>
        <pt x="450" y="309" on="0"/>
        <pt x="450" y="300" on="1"/>
        <pt x="450" y="290" on="0"/>
        <pt x="437" y="276" on="0"/>
      </contour>
      <contour>
        <pt x="370" y="301" on="1"/>
        <pt x="383" y="323" on="1"/>
        <pt x="392" y="323" on="1"/>
        <pt x="374" y="294" on="1"/>
        <pt x="374" y="277" on="1"/>
        <pt x="366" y="277" on="1"/>
        <pt x="366" y="294" on="1"/>
        <pt x="348" y="323" on="1"/>
        <pt x="357" y="323" on="1"/>
      </contour>
      <contour>
        <pt x="193" y="323" on="1"/>
        <pt x="226" y="323" on="1"/>
        <pt x="226" y="316" on="1"/>
        <pt x="201" y="316" on="1"/>
        <pt x="201" y="304" on="1"/>
        <pt x="223" y="304" on="1"/>
        <pt x="223" y="297" on="1"/>
        <pt x="201" y="297" on="1"/>
        <pt x="201" y="284" on="1"/>
        <pt x="226" y="284" on="1"/>
        <pt x="226" y="277" on="1"/>
        <pt x="193" y="277" on="1"/>
      </contour>
      <contour>
        <pt x="132" y="323" on="1"/>
        <pt x="139" y="323" on="1"/>
        <pt x="164" y="291" on="1"/>
        <pt x="164" y="323" on="1"/>
        <pt x="172" y="323" on="1"/>
        <pt x="172" y="277" on="1"/>
        <pt x="165" y="277" on="1"/>
        <pt x="140" y="309" on="1"/>
        <pt x="140" y="277" on="1"/>
        <pt x="132" y="277" on="1"/>
      </contour>
      <contour>
        <pt x="241" y="323" on="1"/>
        <pt x="249" y="323" on="1"/>
        <pt x="259" y="288" on="1"/>
        <pt x="260" y="288" on="1"/>
        <pt x="271" y="323" on="1"/>
        <pt x="279" y="323" on="1"/>
        <pt x="289" y="288" on="1"/>
        <pt x="290" y="288" on="1"/>
        <pt x="300" y="323" on="1"/>
        <pt x="308" y="323" on="1"/>
        <pt x="294" y="276" on="1"/>
        <pt x="286" y="276" on="1"/>
        <pt x="275" y="310" on="1"/>
        <pt x="274" y="310" on="1"/>
        <pt x="264" y="276" on="1"/>
        <pt x="256" y="276" on="1"/>
      </contour>
      <contour>
        <pt x="327" y="479" on="1"/>
        <pt x="342" y="495" on="0"/>
        <pt x="342" y="511" on="1"/>
        <pt x="342" y="519" on="0"/>
        <pt x="335" y="530" on="0"/>
        <pt x="329" y="530" on="1"/>
        <pt x="323" y="530" on="0"/>
        <pt x="315" y="519" on="0"/>
        <pt x="315" y="511" on="1"/>
        <pt x="315" y="503" on="0"/>
        <pt x="322" y="489" on="0"/>
      </contour>
      <contour>
        <pt x="342" y="423" on="1"/>
        <pt x="322" y="462" on="1"/>
        <pt x="307" y="447" on="0"/>
        <pt x="307" y="429" on="1"/>
        <pt x="307" y="418" on="0"/>
        <pt x="316" y="402" on="0"/>
        <pt x="324" y="402" on="1"/>
        <pt x="329" y="402" on="0"/>
        <pt x="340" y="415" on="0"/>
      </contour>
      <contour>
        <pt x="488" y="299" on="1"/>
        <pt x="497" y="299" on="0"/>
        <pt x="497" y="308" on="1"/>
        <pt x="497" y="316" on="0"/>
        <pt x="487" y="316" on="1"/>
        <pt x="476" y="316" on="1"/>
        <pt x="476" y="299" on="1"/>
      </contour>
      <contour>
        <pt x="426" y="283" on="1"/>
        <pt x="433" y="283" on="0"/>
        <pt x="442" y="293" on="0"/>
        <pt x="442" y="300" on="1"/>
        <pt x="442" y="306" on="0"/>
        <pt x="433" y="317" on="0"/>
        <pt x="426" y="317" on="1"/>
        <pt x="419" y="317" on="0"/>
        <pt x="411" y="306" on="0"/>
        <pt x="411" y="300" on="1"/>
        <pt x="411" y="293" on="0"/>
        <pt x="419" y="283" on="0"/>
      </contour>
      <contour>
        <pt x="349" y="438" on="1"/>
        <pt x="351" y="445" on="0"/>
        <pt x="356" y="461" on="0"/>
        <pt x="358" y="468" on="1"/>
        <pt x="371" y="465" on="1"/>
        <pt x="369" y="454" on="0"/>
        <pt x="362" y="435" on="0"/>
        <pt x="358" y="426" on="1"/>
        <pt x="374" y="396" on="1"/>
        <pt x="363" y="388" on="1"/>
        <pt x="351" y="412" on="1"/>
        <pt x="350" y="412" on="1"/>
        <pt x="346" y="403" on="0"/>
        <pt x="333" y="388" on="0"/>
        <pt x="323" y="388" on="1"/>
        <pt x="309" y="388" on="0"/>
        <pt x="292" y="410" on="0"/>
        <pt x="292" y="427" on="1"/>
        <pt x="292" y="454" on="0"/>
        <pt x="315" y="472" on="1"/>
        <pt x="309" y="483" on="0"/>
        <pt x="301" y="500" on="0"/>
        <pt x="301" y="511" on="1"/>
        <pt x="301" y="522" on="0"/>
        <pt x="316" y="542" on="0"/>
        <pt x="329" y="542" on="1"/>
        <pt x="343" y="542" on="0"/>
        <pt x="356" y="522" on="0"/>
        <pt x="356" y="511" on="1"/>
        <pt x="356" y="499" on="0"/>
        <pt x="343" y="478" on="0"/>
        <pt x="333" y="469" on="1"/>
      </contour>
    </TTGlyph>
    <TTGlyph name="approxequal" xMin="8" yMin="0" xMax="943" yMax="731">
      <contour>
        <pt x="943" y="638" on="1"/>
        <pt x="943" y="682" on="0"/>
        <pt x="886" y="731" on="0"/>
        <pt x="844" y="731" on="1"/>
        <pt x="802" y="731" on="0"/>
        <pt x="745" y="682" on="0"/>
        <pt x="745" y="638" on="1"/>
        <pt x="745" y="595" on="0"/>
        <pt x="802" y="546" on="0"/>
        <pt x="844" y="546" on="1"/>
        <pt x="886" y="546" on="0"/>
        <pt x="943" y="595" on="0"/>
      </contour>
      <contour>
        <pt x="722" y="575" on="1"/>
        <pt x="701" y="706" on="1"/>
        <pt x="686" y="709" on="0"/>
        <pt x="651" y="713" on="0"/>
        <pt x="631" y="713" on="1"/>
        <pt x="584" y="713" on="0"/>
        <pt x="509" y="694" on="0"/>
        <pt x="457" y="652" on="0"/>
        <pt x="429" y="585" on="0"/>
        <pt x="429" y="537" on="1"/>
        <pt x="429" y="495" on="1"/>
        <pt x="362" y="495" on="1"/>
        <pt x="362" y="352" on="1"/>
        <pt x="429" y="352" on="1"/>
        <pt x="429" y="0" on="1"/>
        <pt x="606" y="0" on="1"/>
        <pt x="606" y="352" on="1"/>
        <pt x="715" y="352" on="1"/>
        <pt x="692" y="495" on="1"/>
        <pt x="606" y="495" on="1"/>
        <pt x="606" y="520" on="1"/>
        <pt x="606" y="549" on="0"/>
        <pt x="633" y="580" on="0"/>
        <pt x="664" y="580" on="1"/>
        <pt x="681" y="580" on="0"/>
        <pt x="710" y="577" on="0"/>
      </contour>
      <contour>
        <pt x="368" y="575" on="1"/>
        <pt x="347" y="706" on="1"/>
        <pt x="332" y="709" on="0"/>
        <pt x="297" y="713" on="0"/>
        <pt x="277" y="713" on="1"/>
        <pt x="230" y="713" on="0"/>
        <pt x="154" y="694" on="0"/>
        <pt x="102" y="652" on="0"/>
        <pt x="74" y="585" on="0"/>
        <pt x="74" y="537" on="1"/>
        <pt x="74" y="495" on="1"/>
        <pt x="8" y="495" on="1"/>
        <pt x="8" y="352" on="1"/>
        <pt x="74" y="352" on="1"/>
        <pt x="74" y="0" on="1"/>
        <pt x="252" y="0" on="1"/>
        <pt x="252" y="352" on="1"/>
        <pt x="360" y="352" on="1"/>
        <pt x="338" y="495" on="1"/>
        <pt x="252" y="495" on="1"/>
        <pt x="252" y="520" on="1"/>
        <pt x="252" y="549" on="0"/>
        <pt x="279" y="580" on="0"/>
        <pt x="310" y="580" on="1"/>
        <pt x="327" y="580" on="0"/>
        <pt x="355" y="577" on="0"/>
      </contour>
      <contour>
        <pt x="933" y="0" on="1"/>
        <pt x="933" y="495" on="1"/>
        <pt x="755" y="495" on="1"/>
        <pt x="755" y="0" on="1"/>
      </contour>
    </TTGlyph>
    <TTGlyph name="aring" xMin="22" yMin="-10" xMax="471" yMax="765">
      <contour>
        <pt x="471" y="0" on="1"/>
        <pt x="471" y="326" on="1"/>
        <pt x="471" y="376" on="0"/>
        <pt x="444" y="444" on="0"/>
        <pt x="390" y="485" on="0"/>
        <pt x="310" y="503" on="0"/>
        <pt x="256" y="503" on="1"/>
        <pt x="193" y="503" on="0"/>
        <pt x="93" y="483" on="0"/>
        <pt x="51" y="466" on="1"/>
        <pt x="71" y="336" on="1"/>
        <pt x="110" y="353" on="0"/>
        <pt x="186" y="371" on="0"/>
        <pt x="226" y="371" on="1"/>
        <pt x="262" y="371" on="0"/>
        <pt x="293" y="344" on="0"/>
        <pt x="293" y="317" on="1"/>
        <pt x="293" y="313" on="1"/>
        <pt x="152" y="301" on="0"/>
        <pt x="22" y="212" on="0"/>
        <pt x="22" y="127" on="1"/>
        <pt x="22" y="58" on="0"/>
        <pt x="96" y="-10" on="0"/>
        <pt x="153" y="-10" on="1"/>
        <pt x="199" y="-10" on="0"/>
        <pt x="269" y="28" on="0"/>
        <pt x="301" y="60" on="1"/>
        <pt x="311" y="0" on="1"/>
      </contour>
      <contour>
        <pt x="294" y="137" on="1"/>
        <pt x="262" y="112" on="0"/>
        <pt x="235" y="112" on="1"/>
        <pt x="218" y="112" on="0"/>
        <pt x="197" y="133" on="0"/>
        <pt x="197" y="154" on="1"/>
        <pt x="197" y="184" on="0"/>
        <pt x="240" y="226" on="0"/>
        <pt x="294" y="238" on="1"/>
      </contour>
      <contour>
        <pt x="403" y="655" on="1"/>
        <pt x="403" y="677" on="0"/>
        <pt x="386" y="717" on="0"/>
        <pt x="350" y="747" on="0"/>
        <pt x="296" y="765" on="0"/>
        <pt x="259" y="765" on="1"/>
        <pt x="222" y="765" on="0"/>
        <pt x="168" y="747" on="0"/>
        <pt x="132" y="717" on="0"/>
        <pt x="115" y="677" on="0"/>
        <pt x="115" y="655" on="1"/>
        <pt x="115" y="610" on="0"/>
        <pt x="185" y="545" on="0"/>
        <pt x="259" y="545" on="1"/>
        <pt x="333" y="545" on="0"/>
        <pt x="403" y="610" on="0"/>
      </contour>
      <contour>
        <pt x="306" y="655" on="1"/>
        <pt x="306" y="632" on="0"/>
        <pt x="281" y="598" on="0"/>
        <pt x="259" y="598" on="1"/>
        <pt x="237" y="598" on="0"/>
        <pt x="212" y="632" on="0"/>
        <pt x="212" y="655" on="1"/>
        <pt x="212" y="678" on="0"/>
        <pt x="237" y="712" on="0"/>
        <pt x="259" y="712" on="1"/>
        <pt x="281" y="712" on="0"/>
        <pt x="306" y="678" on="0"/>
      </contour>
    </TTGlyph>
    <TTGlyph name="asciicircum" xMin="47" yMin="542" xMax="407" yMax="697">
      <contour>
        <pt x="407" y="563" on="1"/>
        <pt x="311" y="697" on="1"/>
        <pt x="149" y="697" on="1"/>
        <pt x="47" y="547" on="1"/>
        <pt x="160" y="547" on="1"/>
        <pt x="229" y="600" on="1"/>
        <pt x="301" y="542" on="1"/>
      </contour>
    </TTGlyph>
    <TTGlyph name="asciitilde" xMin="32" yMin="208" xMax="377" yMax="380">
      <contour>
        <pt x="377" y="362" on="1"/>
        <pt x="301" y="380" on="1"/>
        <pt x="294" y="355" on="0"/>
        <pt x="280" y="338" on="0"/>
        <pt x="269" y="338" on="1"/>
        <pt x="257" y="338" on="0"/>
        <pt x="232" y="346" on="0"/>
        <pt x="203" y="358" on="1"/>
        <pt x="182" y="366" on="0"/>
        <pt x="152" y="376" on="0"/>
        <pt x="133" y="376" on="1"/>
        <pt x="113" y="376" on="0"/>
        <pt x="81" y="361" on="0"/>
        <pt x="55" y="327" on="0"/>
        <pt x="37" y="268" on="0"/>
        <pt x="32" y="225" on="1"/>
        <pt x="108" y="208" on="1"/>
        <pt x="114" y="233" on="0"/>
        <pt x="129" y="250" on="0"/>
        <pt x="140" y="250" on="1"/>
        <pt x="151" y="250" on="0"/>
        <pt x="176" y="241" on="0"/>
        <pt x="205" y="230" on="1"/>
        <pt x="226" y="222" on="0"/>
        <pt x="257" y="212" on="0"/>
        <pt x="276" y="212" on="1"/>
        <pt x="296" y="212" on="0"/>
        <pt x="328" y="227" on="0"/>
        <pt x="353" y="261" on="0"/>
        <pt x="371" y="319" on="0"/>
      </contour>
    </TTGlyph>
    <TTGlyph name="asterisk" xMin="26" yMin="314" xMax="428" yMax="696">
      <contour>
        <pt x="428" y="536" on="1"/>
        <pt x="416" y="573" on="1"/>
        <pt x="284" y="573" on="1"/>
        <pt x="248" y="696" on="1"/>
        <pt x="206" y="696" on="1"/>
        <pt x="170" y="573" on="1"/>
        <pt x="38" y="573" on="1"/>
        <pt x="26" y="536" on="1"/>
        <pt x="133" y="460" on="1"/>
        <pt x="90" y="335" on="1"/>
        <pt x="123" y="314" on="1"/>
        <pt x="227" y="392" on="1"/>
        <pt x="331" y="314" on="1"/>
        <pt x="364" y="335" on="1"/>
        <pt x="321" y="460" on="1"/>
      </contour>
    </TTGlyph>
    <TTGlyph name="at" xMin="33" yMin="-140" xMax="801" yMax="647">
      <contour>
        <pt x="450" y="218" on="1"/>
        <pt x="421" y="186" on="0"/>
        <pt x="389" y="162" on="0"/>
        <pt x="375" y="162" on="1"/>
        <pt x="361" y="162" on="0"/>
        <pt x="343" y="180" on="0"/>
        <pt x="343" y="206" on="1"/>
        <pt x="343" y="237" on="0"/>
        <pt x="358" y="294" on="0"/>
        <pt x="385" y="337" on="0"/>
        <pt x="420" y="363" on="0"/>
        <pt x="441" y="363" on="1"/>
        <pt x="449" y="363" on="0"/>
        <pt x="467" y="361" on="0"/>
        <pt x="472" y="359" on="1"/>
      </contour>
      <contour>
        <pt x="454" y="129" on="1"/>
        <pt x="470" y="93" on="0"/>
        <pt x="546" y="47" on="0"/>
        <pt x="596" y="47" on="1"/>
        <pt x="645" y="47" on="0"/>
        <pt x="722" y="85" on="0"/>
        <pt x="774" y="156" on="0"/>
        <pt x="801" y="255" on="0"/>
        <pt x="801" y="316" on="1"/>
        <pt x="801" y="396" on="0"/>
        <pt x="752" y="519" on="0"/>
        <pt x="663" y="603" on="0"/>
        <pt x="539" y="647" on="0"/>
        <pt x="463" y="647" on="1"/>
        <pt x="375" y="647" on="0"/>
        <pt x="219" y="573" on="0"/>
        <pt x="102" y="447" on="0"/>
        <pt x="33" y="282" on="0"/>
        <pt x="33" y="192" on="1"/>
        <pt x="33" y="24" on="0"/>
        <pt x="214" y="-140" on="0"/>
        <pt x="373" y="-140" on="1"/>
        <pt x="439" y="-140" on="0"/>
        <pt x="554" y="-114" on="0"/>
        <pt x="595" y="-93" on="1"/>
        <pt x="589" y="-57" on="1"/>
        <pt x="544" y="-80" on="0"/>
        <pt x="436" y="-105" on="0"/>
        <pt x="377" y="-105" on="1"/>
        <pt x="311" y="-105" on="0"/>
        <pt x="200" y="-73" on="0"/>
        <pt x="121" y="-1" on="0"/>
        <pt x="77" y="112" on="0"/>
        <pt x="77" y="193" on="1"/>
        <pt x="77" y="280" on="0"/>
        <pt x="140" y="433" on="0"/>
        <pt x="245" y="546" on="0"/>
        <pt x="383" y="611" on="0"/>
        <pt x="459" y="611" on="1"/>
        <pt x="525" y="611" on="0"/>
        <pt x="635" y="576" on="0"/>
        <pt x="713" y="503" on="0"/>
        <pt x="757" y="391" on="0"/>
        <pt x="757" y="315" on="1"/>
        <pt x="757" y="219" on="0"/>
        <pt x="691" y="113" on="0"/>
        <pt x="643" y="113" on="1"/>
        <pt x="608" y="113" on="0"/>
        <pt x="582" y="146" on="0"/>
        <pt x="582" y="164" on="1"/>
        <pt x="582" y="178" on="0"/>
        <pt x="584" y="204" on="0"/>
        <pt x="586" y="215" on="1"/>
        <pt x="620" y="434" on="1"/>
        <pt x="583" y="450" on="0"/>
        <pt x="491" y="470" on="0"/>
        <pt x="443" y="470" on="1"/>
        <pt x="392" y="470" on="0"/>
        <pt x="305" y="427" on="0"/>
        <pt x="241" y="351" on="0"/>
        <pt x="204" y="245" on="0"/>
        <pt x="204" y="181" on="1"/>
        <pt x="204" y="118" on="0"/>
        <pt x="267" y="47" on="0"/>
        <pt x="315" y="47" on="1"/>
        <pt x="352" y="47" on="0"/>
        <pt x="418" y="87" on="0"/>
      </contour>
    </TTGlyph>
    <TTGlyph name="atilde" xMin="22" yMin="-10" xMax="471" yMax="714">
      <contour>
        <pt x="471" y="0" on="1"/>
        <pt x="471" y="326" on="1"/>
        <pt x="471" y="376" on="0"/>
        <pt x="444" y="444" on="0"/>
        <pt x="390" y="485" on="0"/>
        <pt x="310" y="503" on="0"/>
        <pt x="256" y="503" on="1"/>
        <pt x="193" y="503" on="0"/>
        <pt x="93" y="483" on="0"/>
        <pt x="51" y="466" on="1"/>
        <pt x="71" y="336" on="1"/>
        <pt x="110" y="353" on="0"/>
        <pt x="186" y="371" on="0"/>
        <pt x="226" y="371" on="1"/>
        <pt x="262" y="371" on="0"/>
        <pt x="293" y="344" on="0"/>
        <pt x="293" y="317" on="1"/>
        <pt x="293" y="313" on="1"/>
        <pt x="152" y="301" on="0"/>
        <pt x="22" y="212" on="0"/>
        <pt x="22" y="127" on="1"/>
        <pt x="22" y="58" on="0"/>
        <pt x="96" y="-10" on="0"/>
        <pt x="153" y="-10" on="1"/>
        <pt x="199" y="-10" on="0"/>
        <pt x="269" y="28" on="0"/>
        <pt x="301" y="60" on="1"/>
        <pt x="311" y="0" on="1"/>
      </contour>
      <contour>
        <pt x="294" y="137" on="1"/>
        <pt x="262" y="112" on="0"/>
        <pt x="235" y="112" on="1"/>
        <pt x="218" y="112" on="0"/>
        <pt x="197" y="133" on="0"/>
        <pt x="197" y="154" on="1"/>
        <pt x="197" y="184" on="0"/>
        <pt x="240" y="226" on="0"/>
        <pt x="294" y="238" on="1"/>
      </contour>
      <contour>
        <pt x="434" y="696" on="1"/>
        <pt x="357" y="714" on="1"/>
        <pt x="351" y="689" on="0"/>
        <pt x="336" y="672" on="0"/>
        <pt x="325" y="672" on="1"/>
        <pt x="314" y="672" on="0"/>
        <pt x="289" y="680" on="0"/>
        <pt x="260" y="692" on="1"/>
        <pt x="239" y="701" on="0"/>
        <pt x="209" y="710" on="0"/>
        <pt x="189" y="710" on="1"/>
        <pt x="169" y="710" on="0"/>
        <pt x="137" y="695" on="0"/>
        <pt x="112" y="661" on="0"/>
        <pt x="94" y="602" on="0"/>
        <pt x="88" y="559" on="1"/>
        <pt x="165" y="542" on="1"/>
        <pt x="171" y="567" on="0"/>
        <pt x="186" y="584" on="0"/>
        <pt x="197" y="584" on="1"/>
        <pt x="208" y="584" on="0"/>
        <pt x="233" y="575" on="0"/>
        <pt x="262" y="564" on="1"/>
        <pt x="283" y="556" on="0"/>
        <pt x="313" y="546" on="0"/>
        <pt x="333" y="546" on="1"/>
        <pt x="352" y="546" on="0"/>
        <pt x="385" y="561" on="0"/>
        <pt x="410" y="595" on="0"/>
        <pt x="428" y="653" on="0"/>
      </contour>
    </TTGlyph>
    <TTGlyph name="b" xMin="44" yMin="-6" xMax="518" yMax="722">
      <contour>
        <pt x="518" y="261" on="1"/>
        <pt x="518" y="324" on="0"/>
        <pt x="493" y="416" on="0"/>
        <pt x="448" y="476" on="0"/>
        <pt x="385" y="505" on="0"/>
        <pt x="348" y="505" on="1"/>
        <pt x="306" y="505" on="0"/>
        <pt x="245" y="466" on="0"/>
        <pt x="222" y="443" on="1"/>
        <pt x="222" y="722" on="1"/>
        <pt x="44" y="694" on="1"/>
        <pt x="44" y="31" on="1"/>
        <pt x="86" y="14" on="0"/>
        <pt x="203" y="-6" on="0"/>
        <pt x="265" y="-6" on="1"/>
        <pt x="323" y="-6" on="0"/>
        <pt x="417" y="25" on="0"/>
        <pt x="483" y="90" on="0"/>
        <pt x="518" y="191" on="0"/>
      </contour>
      <contour>
        <pt x="341" y="248" on="1"/>
        <pt x="341" y="216" on="0"/>
        <pt x="328" y="172" on="0"/>
        <pt x="306" y="145" on="0"/>
        <pt x="276" y="134" on="0"/>
        <pt x="260" y="134" on="1"/>
        <pt x="249" y="134" on="0"/>
        <pt x="233" y="137" on="0"/>
        <pt x="222" y="141" on="1"/>
        <pt x="222" y="313" on="1"/>
        <pt x="237" y="328" on="0"/>
        <pt x="267" y="347" on="0"/>
        <pt x="284" y="347" on="1"/>
        <pt x="310" y="347" on="0"/>
        <pt x="341" y="303" on="0"/>
      </contour>
    </TTGlyph>
    <TTGlyph name="backslash" xMin="6" yMin="-127" xMax="563" yMax="699">
      <contour>
        <pt x="563" y="-96" on="1"/>
        <pt x="151" y="699" on="1"/>
        <pt x="6" y="668" on="1"/>
        <pt x="419" y="-127" on="1"/>
      </contour>
    </TTGlyph>
    <TTGlyph name="bar" xMin="84" yMin="-186" xMax="231" yMax="722">
      <contour>
        <pt x="231" y="-163" on="1"/>
        <pt x="231" y="722" on="1"/>
        <pt x="84" y="699" on="1"/>
        <pt x="84" y="-186" on="1"/>
      </contour>
    </TTGlyph>
    <TTGlyph name="braceleft" xMin="19" yMin="-104" xMax="486" yMax="690">
      <contour>
        <pt x="486" y="-104" on="1"/>
        <pt x="469" y="0" on="1"/>
        <pt x="399" y="0" on="1"/>
        <pt x="330" y="0" on="0"/>
        <pt x="330" y="54" on="1"/>
        <pt x="330" y="84" on="0"/>
        <pt x="343" y="132" on="0"/>
        <pt x="343" y="165" on="1"/>
        <pt x="343" y="219" on="0"/>
        <pt x="283" y="279" on="0"/>
        <pt x="223" y="292" on="1"/>
        <pt x="223" y="294" on="1"/>
        <pt x="283" y="307" on="0"/>
        <pt x="343" y="367" on="0"/>
        <pt x="343" y="421" on="1"/>
        <pt x="343" y="438" on="0"/>
        <pt x="339" y="466" on="0"/>
        <pt x="334" y="491" on="0"/>
        <pt x="330" y="517" on="0"/>
        <pt x="330" y="532" on="1"/>
        <pt x="330" y="587" on="0"/>
        <pt x="399" y="587" on="1"/>
        <pt x="481" y="587" on="1"/>
        <pt x="481" y="690" on="1"/>
        <pt x="315" y="690" on="1"/>
        <pt x="236" y="690" on="0"/>
        <pt x="153" y="619" on="0"/>
        <pt x="153" y="559" on="1"/>
        <pt x="153" y="524" on="0"/>
        <pt x="167" y="462" on="0"/>
        <pt x="167" y="430" on="1"/>
        <pt x="167" y="382" on="0"/>
        <pt x="110" y="345" on="0"/>
        <pt x="56" y="345" on="1"/>
        <pt x="19" y="345" on="1"/>
        <pt x="35" y="242" on="1"/>
        <pt x="56" y="242" on="1"/>
        <pt x="110" y="242" on="0"/>
        <pt x="167" y="205" on="0"/>
        <pt x="167" y="156" on="1"/>
        <pt x="167" y="124" on="0"/>
        <pt x="153" y="62" on="0"/>
        <pt x="153" y="27" on="1"/>
        <pt x="153" y="-33" on="0"/>
        <pt x="236" y="-104" on="0"/>
        <pt x="315" y="-104" on="1"/>
      </contour>
    </TTGlyph>
    <TTGlyph name="braceright" xMin="32" yMin="-104" xMax="498" yMax="690">
      <contour>
        <pt x="498" y="242" on="1"/>
        <pt x="482" y="345" on="1"/>
        <pt x="461" y="345" on="1"/>
        <pt x="407" y="345" on="0"/>
        <pt x="350" y="382" on="0"/>
        <pt x="350" y="430" on="1"/>
        <pt x="350" y="462" on="0"/>
        <pt x="364" y="524" on="0"/>
        <pt x="364" y="559" on="1"/>
        <pt x="364" y="619" on="0"/>
        <pt x="282" y="690" on="0"/>
        <pt x="202" y="690" on="1"/>
        <pt x="32" y="690" on="1"/>
        <pt x="48" y="587" on="1"/>
        <pt x="119" y="587" on="1"/>
        <pt x="188" y="587" on="0"/>
        <pt x="188" y="532" on="1"/>
        <pt x="188" y="517" on="0"/>
        <pt x="184" y="491" on="0"/>
        <pt x="178" y="466" on="0"/>
        <pt x="174" y="438" on="0"/>
        <pt x="174" y="421" on="1"/>
        <pt x="174" y="367" on="0"/>
        <pt x="234" y="307" on="0"/>
        <pt x="294" y="294" on="1"/>
        <pt x="294" y="292" on="1"/>
        <pt x="234" y="279" on="0"/>
        <pt x="174" y="219" on="0"/>
        <pt x="174" y="165" on="1"/>
        <pt x="174" y="132" on="0"/>
        <pt x="188" y="84" on="0"/>
        <pt x="188" y="54" on="1"/>
        <pt x="188" y="0" on="0"/>
        <pt x="119" y="0" on="1"/>
        <pt x="36" y="0" on="1"/>
        <pt x="36" y="-104" on="1"/>
        <pt x="202" y="-104" on="1"/>
        <pt x="282" y="-104" on="0"/>
        <pt x="364" y="-33" on="0"/>
        <pt x="364" y="27" on="1"/>
        <pt x="364" y="62" on="0"/>
        <pt x="350" y="124" on="0"/>
        <pt x="350" y="156" on="1"/>
        <pt x="350" y="205" on="0"/>
        <pt x="407" y="242" on="0"/>
        <pt x="461" y="242" on="1"/>
      </contour>
    </TTGlyph>
    <TTGlyph name="bracketleft" xMin="64" yMin="-104" xMax="391" yMax="690">
      <contour>
        <pt x="391" y="-104" on="1"/>
        <pt x="374" y="0" on="1"/>
        <pt x="235" y="0" on="1"/>
        <pt x="235" y="587" on="1"/>
        <pt x="386" y="587" on="1"/>
        <pt x="386" y="690" on="1"/>
        <pt x="64" y="690" on="1"/>
        <pt x="64" y="-104" on="1"/>
      </contour>
    </TTGlyph>
    <TTGlyph name="bracketright" xMin="31" yMin="-104" xMax="358" yMax="690">
      <contour>
        <pt x="358" y="-104" on="1"/>
        <pt x="358" y="690" on="1"/>
        <pt x="31" y="690" on="1"/>
        <pt x="48" y="587" on="1"/>
        <pt x="187" y="587" on="1"/>
        <pt x="187" y="0" on="1"/>
        <pt x="36" y="0" on="1"/>
        <pt x="36" y="-104" on="1"/>
      </contour>
    </TTGlyph>
    <TTGlyph name="breve" xMin="61" yMin="545" xMax="394" yMax="703">
      <contour>
        <pt x="394" y="697" on="1"/>
        <pt x="296" y="697" on="1"/>
        <pt x="287" y="672" on="0"/>
        <pt x="254" y="651" on="0"/>
        <pt x="228" y="651" on="1"/>
        <pt x="201" y="651" on="0"/>
        <pt x="168" y="672" on="0"/>
        <pt x="155" y="703" on="1"/>
        <pt x="61" y="689" on="1"/>
        <pt x="71" y="623" on="0"/>
        <pt x="152" y="545" on="0"/>
        <pt x="226" y="545" on="1"/>
        <pt x="301" y="545" on="0"/>
        <pt x="385" y="624" on="0"/>
      </contour>
    </TTGlyph>
    <TTGlyph name="brokenbar" xMin="25" yMin="-200" xMax="475" yMax="800">
      <contour>
        <pt x="25" y="-200" on="1"/>
        <pt x="475" y="-200" on="1"/>
        <pt x="475" y="800" on="1"/>
        <pt x="25" y="800" on="1"/>
      </contour>
    </TTGlyph>
    <TTGlyph name="bullet" xMin="67" yMin="148" xMax="441" yMax="540">
      <contour>
        <pt x="441" y="344" on="1"/>
        <pt x="415" y="515" on="1"/>
        <pt x="254" y="540" on="1"/>
        <pt x="94" y="515" on="1"/>
        <pt x="67" y="344" on="1"/>
        <pt x="94" y="173" on="1"/>
        <pt x="254" y="148" on="1"/>
        <pt x="415" y="173" on="1"/>
      </contour>
    </TTGlyph>
    <TTGlyph name="c" xMin="22" yMin="-8" xMax="418" yMax="503">
      <contour>
        <pt x="418" y="32" on="1"/>
        <pt x="398" y="174" on="1"/>
        <pt x="369" y="158" on="0"/>
        <pt x="321" y="143" on="0"/>
        <pt x="298" y="143" on="1"/>
        <pt x="259" y="143" on="0"/>
        <pt x="201" y="194" on="0"/>
        <pt x="201" y="248" on="1"/>
        <pt x="201" y="300" on="0"/>
        <pt x="254" y="351" on="0"/>
        <pt x="294" y="351" on="1"/>
        <pt x="320" y="351" on="0"/>
        <pt x="364" y="337" on="0"/>
        <pt x="391" y="321" on="1"/>
        <pt x="415" y="469" on="1"/>
        <pt x="383" y="485" on="0"/>
        <pt x="314" y="503" on="0"/>
        <pt x="273" y="503" on="1"/>
        <pt x="222" y="503" on="0"/>
        <pt x="130" y="471" on="0"/>
        <pt x="62" y="407" on="0"/>
        <pt x="22" y="308" on="0"/>
        <pt x="22" y="242" on="1"/>
        <pt x="22" y="183" on="0"/>
        <pt x="57" y="90" on="0"/>
        <pt x="121" y="26" on="0"/>
        <pt x="210" y="-8" on="0"/>
        <pt x="265" y="-8" on="1"/>
        <pt x="307" y="-8" on="0"/>
        <pt x="381" y="12" on="0"/>
      </contour>
    </TTGlyph>
    <TTGlyph name="caron" xMin="47" yMin="547" xMax="407" yMax="702">
      <contour>
        <pt x="407" y="697" on="1"/>
        <pt x="294" y="697" on="1"/>
        <pt x="225" y="644" on="1"/>
        <pt x="153" y="702" on="1"/>
        <pt x="47" y="681" on="1"/>
        <pt x="143" y="547" on="1"/>
        <pt x="305" y="547" on="1"/>
      </contour>
    </TTGlyph>
    <TTGlyph name="ccedilla" xMin="22" yMin="-182" xMax="418" yMax="503">
      <contour>
        <pt x="418" y="32" on="1"/>
        <pt x="398" y="174" on="1"/>
        <pt x="369" y="158" on="0"/>
        <pt x="321" y="143" on="0"/>
        <pt x="298" y="143" on="1"/>
        <pt x="259" y="143" on="0"/>
        <pt x="201" y="194" on="0"/>
        <pt x="201" y="248" on="1"/>
        <pt x="201" y="300" on="0"/>
        <pt x="254" y="351" on="0"/>
        <pt x="294" y="351" on="1"/>
        <pt x="320" y="351" on="0"/>
        <pt x="364" y="337" on="0"/>
        <pt x="391" y="321" on="1"/>
        <pt x="415" y="469" on="1"/>
        <pt x="383" y="485" on="0"/>
        <pt x="314" y="503" on="0"/>
        <pt x="273" y="503" on="1"/>
        <pt x="222" y="503" on="0"/>
        <pt x="130" y="471" on="0"/>
        <pt x="62" y="407" on="0"/>
        <pt x="22" y="308" on="0"/>
        <pt x="22" y="242" on="1"/>
        <pt x="22" y="183" on="0"/>
        <pt x="57" y="90" on="0"/>
        <pt x="121" y="26" on="0"/>
        <pt x="210" y="-8" on="0"/>
        <pt x="265" y="-8" on="1"/>
        <pt x="307" y="-8" on="0"/>
        <pt x="381" y="12" on="0"/>
      </contour>
      <contour>
        <pt x="371" y="-77" on="1"/>
        <pt x="156" y="-44" on="1"/>
        <pt x="111" y="-182" on="1"/>
        <pt x="224" y="-182" on="1"/>
      </contour>
    </TTGlyph>
    <TTGlyph name="cedilla" xMin="98" yMin="-182" xMax="358" yMax="-44">
      <contour>
        <pt x="358" y="-77" on="1"/>
        <pt x="143" y="-44" on="1"/>
        <pt x="98" y="-182" on="1"/>
        <pt x="211" y="-182" on="1"/>
      </contour>
    </TTGlyph>
    <TTGlyph name="cent" xMin="32" yMin="-10" xMax="468" yMax="685">
      <contour>
        <pt x="314" y="85" on="1"/>
        <pt x="356" y="87" on="0"/>
        <pt x="430" y="107" on="0"/>
        <pt x="468" y="126" on="1"/>
        <pt x="451" y="258" on="1"/>
        <pt x="414" y="241" on="0"/>
        <pt x="352" y="227" on="0"/>
        <pt x="326" y="225" on="1"/>
        <pt x="359" y="447" on="1"/>
        <pt x="403" y="438" on="0"/>
        <pt x="443" y="419" on="1"/>
        <pt x="464" y="557" on="1"/>
        <pt x="433" y="573" on="0"/>
        <pt x="389" y="582" on="1"/>
        <pt x="403" y="667" on="1"/>
        <pt x="322" y="685" on="1"/>
        <pt x="308" y="590" on="1"/>
        <pt x="305" y="590" on="1"/>
        <pt x="248" y="590" on="0"/>
        <pt x="148" y="556" on="0"/>
        <pt x="74" y="492" on="0"/>
        <pt x="32" y="397" on="0"/>
        <pt x="32" y="337" on="1"/>
        <pt x="32" y="237" on="0"/>
        <pt x="139" y="108" on="0"/>
        <pt x="232" y="91" on="1"/>
        <pt x="219" y="8" on="1"/>
        <pt x="299" y="-10" on="1"/>
        <pt x="299" y="-10" on="0"/>
        <pt x="304" y="20" on="0"/>
        <pt x="309" y="56" on="0"/>
        <pt x="314" y="85" on="0"/>
      </contour>
      <contour>
        <pt x="263" y="234" on="1"/>
        <pt x="231" y="246" on="0"/>
        <pt x="201" y="298" on="0"/>
        <pt x="201" y="334" on="1"/>
        <pt x="201" y="386" on="0"/>
        <pt x="249" y="445" on="0"/>
        <pt x="297" y="450" on="1"/>
      </contour>
    </TTGlyph>
    <TTGlyph name="circumflex" xMin="47" yMin="542" xMax="407" yMax="697">
      <contour>
        <pt x="407" y="563" on="1"/>
        <pt x="311" y="697" on="1"/>
        <pt x="149" y="697" on="1"/>
        <pt x="47" y="547" on="1"/>
        <pt x="160" y="547" on="1"/>
        <pt x="229" y="600" on="1"/>
        <pt x="301" y="542" on="1"/>
      </contour>
    </TTGlyph>
    <TTGlyph name="colon" xMin="46" yMin="0" xMax="235" yMax="495">
      <contour>
        <pt x="235" y="303" on="1"/>
        <pt x="235" y="495" on="1"/>
        <pt x="46" y="495" on="1"/>
        <pt x="46" y="303" on="1"/>
      </contour>
      <contour>
        <pt x="235" y="0" on="1"/>
        <pt x="235" y="192" on="1"/>
        <pt x="46" y="192" on="1"/>
        <pt x="46" y="0" on="1"/>
      </contour>
    </TTGlyph>
    <TTGlyph name="comma" xMin="20" yMin="-155" xMax="261" yMax="195">
      <contour>
        <pt x="261" y="195" on="1"/>
        <pt x="61" y="195" on="1"/>
        <pt x="20" y="-130" on="1"/>
        <pt x="128" y="-155" on="1"/>
      </contour>
    </TTGlyph>
    <TTGlyph name="copyright" xMin="54" yMin="-13" xMax="745" yMax="703">
      <contour>
        <pt x="745" y="346" on="1"/>
        <pt x="745" y="426" on="0"/>
        <pt x="695" y="557" on="0"/>
        <pt x="604" y="651" on="0"/>
        <pt x="477" y="703" on="0"/>
        <pt x="400" y="703" on="1"/>
        <pt x="323" y="703" on="0"/>
        <pt x="196" y="651" on="0"/>
        <pt x="105" y="556" on="0"/>
        <pt x="54" y="424" on="0"/>
        <pt x="54" y="344" on="1"/>
        <pt x="54" y="264" on="0"/>
        <pt x="104" y="133" on="0"/>
        <pt x="195" y="39" on="0"/>
        <pt x="322" y="-13" on="0"/>
        <pt x="399" y="-13" on="1"/>
        <pt x="475" y="-13" on="0"/>
        <pt x="603" y="39" on="0"/>
        <pt x="694" y="134" on="0"/>
        <pt x="745" y="266" on="0"/>
      </contour>
      <contour>
        <pt x="701" y="345" on="1"/>
        <pt x="701" y="267" on="0"/>
        <pt x="655" y="147" on="0"/>
        <pt x="574" y="65" on="0"/>
        <pt x="464" y="23" on="0"/>
        <pt x="400" y="23" on="1"/>
        <pt x="336" y="23" on="0"/>
        <pt x="226" y="65" on="0"/>
        <pt x="145" y="147" on="0"/>
        <pt x="98" y="267" on="0"/>
        <pt x="98" y="345" on="1"/>
        <pt x="98" y="423" on="0"/>
        <pt x="144" y="543" on="0"/>
        <pt x="225" y="625" on="0"/>
        <pt x="335" y="667" on="0"/>
        <pt x="400" y="667" on="1"/>
        <pt x="463" y="667" on="0"/>
        <pt x="573" y="625" on="0"/>
        <pt x="654" y="543" on="0"/>
        <pt x="701" y="423" on="0"/>
      </contour>
      <contour>
        <pt x="549" y="173" on="1"/>
        <pt x="533" y="275" on="1"/>
        <pt x="505" y="261" on="0"/>
        <pt x="462" y="251" on="0"/>
        <pt x="442" y="251" on="1"/>
        <pt x="398" y="251" on="0"/>
        <pt x="350" y="304" on="0"/>
        <pt x="350" y="349" on="1"/>
        <pt x="350" y="391" on="0"/>
        <pt x="391" y="446" on="0"/>
        <pt x="432" y="446" on="1"/>
        <pt x="458" y="446" on="0"/>
        <pt x="499" y="434" on="0"/>
        <pt x="525" y="418" on="1"/>
        <pt x="542" y="528" on="1"/>
        <pt x="516" y="539" on="0"/>
        <pt x="457" y="551" on="0"/>
        <pt x="422" y="551" on="1"/>
        <pt x="375" y="551" on="0"/>
        <pt x="298" y="522" on="0"/>
        <pt x="243" y="468" on="0"/>
        <pt x="212" y="393" on="0"/>
        <pt x="212" y="348" on="1"/>
        <pt x="212" y="303" on="0"/>
        <pt x="241" y="228" on="0"/>
        <pt x="295" y="174" on="0"/>
        <pt x="374" y="145" on="0"/>
        <pt x="424" y="145" on="1"/>
        <pt x="460" y="145" on="0"/>
        <pt x="519" y="158" on="0"/>
      </contour>
    </TTGlyph>
    <TTGlyph name="currency" xMin="18" yMin="-10" xMax="595" yMax="686">
      <contour>
        <pt x="95" y="377" on="1"/>
        <pt x="94" y="367" on="0"/>
        <pt x="94" y="357" on="1"/>
        <pt x="94" y="348" on="0"/>
        <pt x="94" y="337" on="1"/>
        <pt x="94" y="309" on="1"/>
        <pt x="18" y="309" on="1"/>
        <pt x="30" y="229" on="1"/>
        <pt x="104" y="229" on="1"/>
        <pt x="127" y="111" on="0"/>
        <pt x="279" y="-10" on="0"/>
        <pt x="413" y="-10" on="1"/>
        <pt x="470" y="-10" on="0"/>
        <pt x="554" y="9" on="0"/>
        <pt x="595" y="26" on="1"/>
        <pt x="571" y="174" on="1"/>
        <pt x="539" y="160" on="0"/>
        <pt x="479" y="146" on="0"/>
        <pt x="447" y="146" on="1"/>
        <pt x="395" y="146" on="0"/>
        <pt x="326" y="184" on="0"/>
        <pt x="310" y="229" on="1"/>
        <pt x="499" y="229" on="1"/>
        <pt x="499" y="309" on="1"/>
        <pt x="297" y="309" on="1"/>
        <pt x="297" y="338" on="1"/>
        <pt x="297" y="348" on="0"/>
        <pt x="297" y="357" on="1"/>
        <pt x="297" y="367" on="0"/>
        <pt x="298" y="377" on="1"/>
        <pt x="506" y="377" on="1"/>
        <pt x="493" y="457" on="1"/>
        <pt x="314" y="457" on="1"/>
        <pt x="330" y="493" on="0"/>
        <pt x="390" y="530" on="0"/>
        <pt x="431" y="530" on="1"/>
        <pt x="470" y="530" on="0"/>
        <pt x="528" y="515" on="0"/>
        <pt x="560" y="499" on="1"/>
        <pt x="584" y="653" on="1"/>
        <pt x="549" y="669" on="0"/>
        <pt x="463" y="686" on="0"/>
        <pt x="411" y="686" on="1"/>
        <pt x="289" y="686" on="0"/>
        <pt x="136" y="562" on="0"/>
        <pt x="108" y="457" on="1"/>
        <pt x="25" y="457" on="1"/>
        <pt x="25" y="377" on="1"/>
      </contour>
    </TTGlyph>
    <TTGlyph name="d" xMin="25" yMin="-10" xMax="502" yMax="722">
      <contour>
        <pt x="502" y="0" on="1"/>
        <pt x="502" y="722" on="1"/>
        <pt x="324" y="694" on="1"/>
        <pt x="324" y="484" on="1"/>
        <pt x="304" y="490" on="0"/>
        <pt x="260" y="498" on="0"/>
        <pt x="228" y="498" on="1"/>
        <pt x="189" y="498" on="0"/>
        <pt x="115" y="469" on="0"/>
        <pt x="59" y="406" on="0"/>
        <pt x="25" y="306" on="0"/>
        <pt x="25" y="234" on="1"/>
        <pt x="25" y="171" on="0"/>
        <pt x="51" y="79" on="0"/>
        <pt x="97" y="19" on="0"/>
        <pt x="160" y="-10" on="0"/>
        <pt x="197" y="-10" on="1"/>
        <pt x="242" y="-10" on="0"/>
        <pt x="308" y="36" on="0"/>
        <pt x="331" y="62" on="1"/>
        <pt x="341" y="0" on="1"/>
      </contour>
      <contour>
        <pt x="324" y="183" on="1"/>
        <pt x="309" y="168" on="0"/>
        <pt x="279" y="148" on="0"/>
        <pt x="262" y="148" on="1"/>
        <pt x="236" y="148" on="0"/>
        <pt x="203" y="191" on="0"/>
        <pt x="203" y="247" on="1"/>
        <pt x="203" y="310" on="0"/>
        <pt x="244" y="361" on="0"/>
        <pt x="274" y="361" on="1"/>
        <pt x="291" y="361" on="0"/>
        <pt x="313" y="357" on="0"/>
        <pt x="324" y="352" on="1"/>
      </contour>
    </TTGlyph>
    <TTGlyph name="dagger" xMin="36" yMin="-114" xMax="481" yMax="690">
      <contour>
        <pt x="339" y="611" on="1"/>
        <pt x="339" y="690" on="1"/>
        <pt x="179" y="690" on="1"/>
        <pt x="179" y="611" on="1"/>
        <pt x="242" y="476" on="1"/>
        <pt x="276" y="476" on="1"/>
      </contour>
      <contour>
        <pt x="481" y="362" on="1"/>
        <pt x="481" y="511" on="1"/>
        <pt x="434" y="511" on="1"/>
        <pt x="299" y="453" on="1"/>
        <pt x="299" y="420" on="1"/>
        <pt x="434" y="362" on="1"/>
      </contour>
      <contour>
        <pt x="219" y="420" on="1"/>
        <pt x="219" y="453" on="1"/>
        <pt x="84" y="511" on="1"/>
        <pt x="36" y="511" on="1"/>
        <pt x="36" y="362" on="1"/>
        <pt x="84" y="362" on="1"/>
      </contour>
      <contour>
        <pt x="322" y="8" on="1"/>
        <pt x="322" y="279" on="1"/>
        <pt x="276" y="398" on="1"/>
        <pt x="242" y="398" on="1"/>
        <pt x="195" y="279" on="1"/>
        <pt x="195" y="8" on="1"/>
        <pt x="243" y="-114" on="1"/>
        <pt x="274" y="-114" on="1"/>
      </contour>
    </TTGlyph>
    <TTGlyph name="daggerdbl" xMin="45" yMin="-182" xMax="490" yMax="690">
      <contour>
        <pt x="348" y="611" on="1"/>
        <pt x="348" y="690" on="1"/>
        <pt x="188" y="690" on="1"/>
        <pt x="188" y="611" on="1"/>
        <pt x="251" y="476" on="1"/>
        <pt x="285" y="476" on="1"/>
      </contour>
      <contour>
        <pt x="490" y="367" on="1"/>
        <pt x="490" y="507" on="1"/>
        <pt x="443" y="507" on="1"/>
        <pt x="308" y="453" on="1"/>
        <pt x="308" y="420" on="1"/>
        <pt x="443" y="367" on="1"/>
      </contour>
      <contour>
        <pt x="228" y="420" on="1"/>
        <pt x="228" y="453" on="1"/>
        <pt x="93" y="507" on="1"/>
        <pt x="45" y="507" on="1"/>
        <pt x="45" y="367" on="1"/>
        <pt x="93" y="367" on="1"/>
      </contour>
      <contour>
        <pt x="341" y="230" on="1"/>
        <pt x="341" y="279" on="1"/>
        <pt x="285" y="398" on="1"/>
        <pt x="251" y="398" on="1"/>
        <pt x="195" y="279" on="1"/>
        <pt x="195" y="230" on="1"/>
        <pt x="251" y="111" on="1"/>
        <pt x="285" y="111" on="1"/>
      </contour>
      <contour>
        <pt x="490" y="2" on="1"/>
        <pt x="490" y="142" on="1"/>
        <pt x="443" y="142" on="1"/>
        <pt x="308" y="88" on="1"/>
        <pt x="308" y="55" on="1"/>
        <pt x="443" y="2" on="1"/>
      </contour>
      <contour>
        <pt x="228" y="55" on="1"/>
        <pt x="228" y="88" on="1"/>
        <pt x="93" y="142" on="1"/>
        <pt x="45" y="142" on="1"/>
        <pt x="45" y="2" on="1"/>
        <pt x="93" y="2" on="1"/>
      </contour>
      <contour>
        <pt x="348" y="-182" on="1"/>
        <pt x="348" y="-103" on="1"/>
        <pt x="285" y="33" on="1"/>
        <pt x="251" y="33" on="1"/>
        <pt x="188" y="-103" on="1"/>
        <pt x="188" y="-182" on="1"/>
      </contour>
    </TTGlyph>
    <TTGlyph name="degree" xMin="46" yMin="321" xMax="408" yMax="682">
      <contour>
        <pt x="408" y="501" on="1"/>
        <pt x="408" y="540" on="0"/>
        <pt x="381" y="606" on="0"/>
        <pt x="333" y="655" on="0"/>
        <pt x="266" y="682" on="0"/>
        <pt x="227" y="682" on="1"/>
        <pt x="188" y="682" on="0"/>
        <pt x="121" y="655" on="0"/>
        <pt x="73" y="606" on="0"/>
        <pt x="46" y="540" on="0"/>
        <pt x="46" y="501" on="1"/>
        <pt x="46" y="462" on="0"/>
        <pt x="73" y="396" on="0"/>
        <pt x="121" y="348" on="0"/>
        <pt x="188" y="321" on="0"/>
        <pt x="227" y="321" on="1"/>
        <pt x="266" y="321" on="0"/>
        <pt x="333" y="348" on="0"/>
        <pt x="381" y="396" on="0"/>
        <pt x="408" y="462" on="0"/>
      </contour>
      <contour>
        <pt x="309" y="501" on="1"/>
        <pt x="309" y="462" on="0"/>
        <pt x="265" y="412" on="0"/>
        <pt x="227" y="412" on="1"/>
        <pt x="189" y="412" on="0"/>
        <pt x="145" y="462" on="0"/>
        <pt x="145" y="501" on="1"/>
        <pt x="145" y="539" on="0"/>
        <pt x="189" y="591" on="0"/>
        <pt x="227" y="591" on="1"/>
        <pt x="265" y="591" on="0"/>
        <pt x="309" y="539" on="0"/>
      </contour>
    </TTGlyph>
    <TTGlyph name="dieresis" xMin="52" yMin="547" xMax="402" yMax="690">
      <contour>
        <pt x="402" y="547" on="1"/>
        <pt x="402" y="690" on="1"/>
        <pt x="258" y="690" on="1"/>
        <pt x="258" y="547" on="1"/>
      </contour>
      <contour>
        <pt x="196" y="547" on="1"/>
        <pt x="196" y="690" on="1"/>
        <pt x="52" y="690" on="1"/>
        <pt x="52" y="547" on="1"/>
      </contour>
    </TTGlyph>
    <TTGlyph name="divide" xMin="54" yMin="62" xMax="518" yMax="614">
      <contour>
        <pt x="361" y="474" on="1"/>
        <pt x="361" y="614" on="1"/>
        <pt x="211" y="614" on="1"/>
        <pt x="211" y="474" on="1"/>
      </contour>
      <contour>
        <pt x="518" y="271" on="1"/>
        <pt x="518" y="405" on="1"/>
        <pt x="54" y="405" on="1"/>
        <pt x="54" y="271" on="1"/>
      </contour>
      <contour>
        <pt x="361" y="62" on="1"/>
        <pt x="361" y="202" on="1"/>
        <pt x="211" y="202" on="1"/>
        <pt x="211" y="62" on="1"/>
      </contour>
    </TTGlyph>
    <TTGlyph name="dollar" xMin="23" yMin="-122" xMax="526" yMax="755">
      <contour>
        <pt x="373" y="673" on="1"/>
        <pt x="382" y="738" on="1"/>
        <pt x="306" y="755" on="1"/>
        <pt x="295" y="681" on="1"/>
        <pt x="287" y="681" on="1"/>
        <pt x="166" y="681" on="0"/>
        <pt x="42" y="572" on="0"/>
        <pt x="42" y="478" on="1"/>
        <pt x="42" y="431" on="0"/>
        <pt x="70" y="365" on="0"/>
        <pt x="122" y="319" on="0"/>
        <pt x="196" y="286" on="0"/>
        <pt x="243" y="272" on="1"/>
        <pt x="223" y="133" on="1"/>
        <pt x="181" y="139" on="0"/>
        <pt x="97" y="168" on="0"/>
        <pt x="45" y="196" on="1"/>
        <pt x="23" y="58" on="1"/>
        <pt x="65" y="36" on="0"/>
        <pt x="149" y="7" on="0"/>
        <pt x="194" y="0" on="1"/>
        <pt x="179" y="-105" on="1"/>
        <pt x="256" y="-122" on="1"/>
        <pt x="272" y="-5" on="1"/>
        <pt x="326" y="-5" on="0"/>
        <pt x="419" y="20" on="0"/>
        <pt x="487" y="72" on="0"/>
        <pt x="526" y="154" on="0"/>
        <pt x="526" y="211" on="1"/>
        <pt x="526" y="258" on="0"/>
        <pt x="501" y="326" on="0"/>
        <pt x="452" y="375" on="0"/>
        <pt x="377" y="409" on="0"/>
        <pt x="328" y="424" on="1"/>
        <pt x="345" y="539" on="1"/>
        <pt x="380" y="532" on="0"/>
        <pt x="448" y="505" on="0"/>
        <pt x="479" y="486" on="1"/>
        <pt x="503" y="626" on="1"/>
        <pt x="444" y="659" on="0"/>
      </contour>
      <contour>
        <pt x="284" y="130" on="1"/>
        <pt x="303" y="254" on="1"/>
        <pt x="341" y="241" on="0"/>
        <pt x="368" y="211" on="0"/>
        <pt x="368" y="188" on="1"/>
        <pt x="368" y="160" on="0"/>
        <pt x="324" y="131" on="0"/>
      </contour>
      <contour>
        <pt x="283" y="547" on="1"/>
        <pt x="268" y="442" on="1"/>
        <pt x="228" y="455" on="0"/>
        <pt x="200" y="480" on="0"/>
        <pt x="200" y="499" on="1"/>
        <pt x="200" y="522" on="0"/>
        <pt x="234" y="547" on="0"/>
        <pt x="273" y="547" on="1"/>
      </contour>
    </TTGlyph>
    <TTGlyph name="dotaccent" xMin="152" yMin="547" xMax="302" yMax="690">
      <contour>
        <pt x="302" y="547" on="1"/>
        <pt x="302" y="690" on="1"/>
        <pt x="152" y="690" on="1"/>
        <pt x="152" y="547" on="1"/>
      </contour>
    </TTGlyph>
    <TTGlyph name="dotlessi" xMin="46" yMin="0" xMax="224" yMax="495">
      <contour>
        <pt x="224" y="0" on="1"/>
        <pt x="224" y="495" on="1"/>
        <pt x="46" y="495" on="1"/>
        <pt x="46" y="0" on="1"/>
      </contour>
    </TTGlyph>
    <TTGlyph name="e" xMin="22" yMin="-10" xMax="484" yMax="505">
      <contour>
        <pt x="484" y="245" on="1"/>
        <pt x="484" y="300" on="0"/>
        <pt x="458" y="395" on="0"/>
        <pt x="404" y="465" on="0"/>
        <pt x="319" y="505" on="0"/>
        <pt x="261" y="505" on="1"/>
        <pt x="209" y="505" on="0"/>
        <pt x="122" y="469" on="0"/>
        <pt x="58" y="402" on="0"/>
        <pt x="22" y="305" on="0"/>
        <pt x="22" y="244" on="1"/>
        <pt x="22" y="179" on="0"/>
        <pt x="61" y="83" on="0"/>
        <pt x="131" y="20" on="0"/>
        <pt x="228" y="-10" on="0"/>
        <pt x="287" y="-10" on="1"/>
        <pt x="344" y="-10" on="0"/>
        <pt x="443" y="18" on="0"/>
        <pt x="484" y="41" on="1"/>
        <pt x="468" y="159" on="1"/>
        <pt x="426" y="138" on="0"/>
        <pt x="347" y="114" on="0"/>
        <pt x="311" y="114" on="1"/>
        <pt x="267" y="114" on="0"/>
        <pt x="207" y="150" on="0"/>
        <pt x="199" y="197" on="1"/>
        <pt x="481" y="197" on="1"/>
        <pt x="483" y="205" on="0"/>
        <pt x="484" y="231" on="0"/>
      </contour>
      <contour>
        <pt x="317" y="288" on="1"/>
        <pt x="196" y="288" on="1"/>
        <pt x="197" y="342" on="0"/>
        <pt x="229" y="396" on="0"/>
        <pt x="256" y="396" on="1"/>
        <pt x="283" y="396" on="0"/>
        <pt x="315" y="342" on="0"/>
      </contour>
    </TTGlyph>
    <TTGlyph name="eacute" xMin="22" yMin="-10" xMax="484" yMax="698">
      <contour>
        <pt x="484" y="245" on="1"/>
        <pt x="484" y="300" on="0"/>
        <pt x="458" y="395" on="0"/>
        <pt x="404" y="465" on="0"/>
        <pt x="319" y="505" on="0"/>
        <pt x="261" y="505" on="1"/>
        <pt x="209" y="505" on="0"/>
        <pt x="122" y="469" on="0"/>
        <pt x="58" y="402" on="0"/>
        <pt x="22" y="305" on="0"/>
        <pt x="22" y="244" on="1"/>
        <pt x="22" y="179" on="0"/>
        <pt x="61" y="83" on="0"/>
        <pt x="131" y="20" on="0"/>
        <pt x="228" y="-10" on="0"/>
        <pt x="287" y="-10" on="1"/>
        <pt x="344" y="-10" on="0"/>
        <pt x="443" y="18" on="0"/>
        <pt x="484" y="41" on="1"/>
        <pt x="468" y="159" on="1"/>
        <pt x="426" y="138" on="0"/>
        <pt x="347" y="114" on="0"/>
        <pt x="311" y="114" on="1"/>
        <pt x="267" y="114" on="0"/>
        <pt x="207" y="150" on="0"/>
        <pt x="199" y="197" on="1"/>
        <pt x="481" y="197" on="1"/>
        <pt x="483" y="205" on="0"/>
        <pt x="484" y="231" on="0"/>
      </contour>
      <contour>
        <pt x="317" y="288" on="1"/>
        <pt x="196" y="288" on="1"/>
        <pt x="197" y="342" on="0"/>
        <pt x="229" y="396" on="0"/>
        <pt x="256" y="396" on="1"/>
        <pt x="283" y="396" on="0"/>
        <pt x="315" y="342" on="0"/>
      </contour>
      <contour>
        <pt x="454" y="665" on="1"/>
        <pt x="239" y="698" on="1"/>
        <pt x="190" y="547" on="1"/>
        <pt x="302" y="547" on="1"/>
      </contour>
    </TTGlyph>
    <TTGlyph name="ecircumflex" xMin="22" yMin="-10" xMax="484" yMax="697">
      <contour>
        <pt x="484" y="245" on="1"/>
        <pt x="484" y="300" on="0"/>
        <pt x="458" y="395" on="0"/>
        <pt x="404" y="465" on="0"/>
        <pt x="319" y="505" on="0"/>
        <pt x="261" y="505" on="1"/>
        <pt x="209" y="505" on="0"/>
        <pt x="122" y="469" on="0"/>
        <pt x="58" y="402" on="0"/>
        <pt x="22" y="305" on="0"/>
        <pt x="22" y="244" on="1"/>
        <pt x="22" y="179" on="0"/>
        <pt x="61" y="83" on="0"/>
        <pt x="131" y="20" on="0"/>
        <pt x="228" y="-10" on="0"/>
        <pt x="287" y="-10" on="1"/>
        <pt x="344" y="-10" on="0"/>
        <pt x="443" y="18" on="0"/>
        <pt x="484" y="41" on="1"/>
        <pt x="468" y="159" on="1"/>
        <pt x="426" y="138" on="0"/>
        <pt x="347" y="114" on="0"/>
        <pt x="311" y="114" on="1"/>
        <pt x="267" y="114" on="0"/>
        <pt x="207" y="150" on="0"/>
        <pt x="199" y="197" on="1"/>
        <pt x="481" y="197" on="1"/>
        <pt x="483" y="205" on="0"/>
        <pt x="484" y="231" on="0"/>
      </contour>
      <contour>
        <pt x="317" y="288" on="1"/>
        <pt x="196" y="288" on="1"/>
        <pt x="197" y="342" on="0"/>
        <pt x="229" y="396" on="0"/>
        <pt x="256" y="396" on="1"/>
        <pt x="283" y="396" on="0"/>
        <pt x="315" y="342" on="0"/>
      </contour>
      <contour>
        <pt x="441" y="563" on="1"/>
        <pt x="345" y="697" on="1"/>
        <pt x="183" y="697" on="1"/>
        <pt x="81" y="547" on="1"/>
        <pt x="194" y="547" on="1"/>
        <pt x="263" y="600" on="1"/>
        <pt x="335" y="542" on="1"/>
      </contour>
    </TTGlyph>
    <TTGlyph name="edieresis" xMin="22" yMin="-10" xMax="484" yMax="690">
      <contour>
        <pt x="484" y="245" on="1"/>
        <pt x="484" y="300" on="0"/>
        <pt x="458" y="395" on="0"/>
        <pt x="404" y="465" on="0"/>
        <pt x="319" y="505" on="0"/>
        <pt x="261" y="505" on="1"/>
        <pt x="209" y="505" on="0"/>
        <pt x="122" y="469" on="0"/>
        <pt x="58" y="402" on="0"/>
        <pt x="22" y="305" on="0"/>
        <pt x="22" y="244" on="1"/>
        <pt x="22" y="179" on="0"/>
        <pt x="61" y="83" on="0"/>
        <pt x="131" y="20" on="0"/>
        <pt x="228" y="-10" on="0"/>
        <pt x="287" y="-10" on="1"/>
        <pt x="344" y="-10" on="0"/>
        <pt x="443" y="18" on="0"/>
        <pt x="484" y="41" on="1"/>
        <pt x="468" y="159" on="1"/>
        <pt x="426" y="138" on="0"/>
        <pt x="347" y="114" on="0"/>
        <pt x="311" y="114" on="1"/>
        <pt x="267" y="114" on="0"/>
        <pt x="207" y="150" on="0"/>
        <pt x="199" y="197" on="1"/>
        <pt x="481" y="197" on="1"/>
        <pt x="483" y="205" on="0"/>
        <pt x="484" y="231" on="0"/>
      </contour>
      <contour>
        <pt x="317" y="288" on="1"/>
        <pt x="196" y="288" on="1"/>
        <pt x="197" y="342" on="0"/>
        <pt x="229" y="396" on="0"/>
        <pt x="256" y="396" on="1"/>
        <pt x="283" y="396" on="0"/>
        <pt x="315" y="342" on="0"/>
      </contour>
      <contour>
        <pt x="436" y="547" on="1"/>
        <pt x="436" y="690" on="1"/>
        <pt x="292" y="690" on="1"/>
        <pt x="292" y="547" on="1"/>
      </contour>
      <contour>
        <pt x="230" y="547" on="1"/>
        <pt x="230" y="690" on="1"/>
        <pt x="86" y="690" on="1"/>
        <pt x="86" y="547" on="1"/>
      </contour>
    </TTGlyph>
    <TTGlyph name="egrave" xMin="22" yMin="-10" xMax="484" yMax="698">
      <contour>
        <pt x="484" y="245" on="1"/>
        <pt x="484" y="300" on="0"/>
        <pt x="458" y="395" on="0"/>
        <pt x="404" y="465" on="0"/>
        <pt x="319" y="505" on="0"/>
        <pt x="261" y="505" on="1"/>
        <pt x="209" y="505" on="0"/>
        <pt x="122" y="469" on="0"/>
        <pt x="58" y="402" on="0"/>
        <pt x="22" y="305" on="0"/>
        <pt x="22" y="244" on="1"/>
        <pt x="22" y="179" on="0"/>
        <pt x="61" y="83" on="0"/>
        <pt x="131" y="20" on="0"/>
        <pt x="228" y="-10" on="0"/>
        <pt x="287" y="-10" on="1"/>
        <pt x="344" y="-10" on="0"/>
        <pt x="443" y="18" on="0"/>
        <pt x="484" y="41" on="1"/>
        <pt x="468" y="159" on="1"/>
        <pt x="426" y="138" on="0"/>
        <pt x="347" y="114" on="0"/>
        <pt x="311" y="114" on="1"/>
        <pt x="267" y="114" on="0"/>
        <pt x="207" y="150" on="0"/>
        <pt x="199" y="197" on="1"/>
        <pt x="481" y="197" on="1"/>
        <pt x="483" y="205" on="0"/>
        <pt x="484" y="231" on="0"/>
      </contour>
      <contour>
        <pt x="317" y="288" on="1"/>
        <pt x="196" y="288" on="1"/>
        <pt x="197" y="342" on="0"/>
        <pt x="229" y="396" on="0"/>
        <pt x="256" y="396" on="1"/>
        <pt x="283" y="396" on="0"/>
        <pt x="315" y="342" on="0"/>
      </contour>
      <contour>
        <pt x="320" y="547" on="1"/>
        <pt x="270" y="698" on="1"/>
        <pt x="52" y="665" on="1"/>
        <pt x="204" y="547" on="1"/>
      </contour>
    </TTGlyph>
    <TTGlyph name="eight" xMin="30" yMin="-13" xMax="566" yMax="689">
      <contour>
        <pt x="326" y="415" on="1"/>
        <pt x="270" y="437" on="0"/>
        <pt x="227" y="479" on="0"/>
        <pt x="227" y="505" on="1"/>
        <pt x="227" y="532" on="0"/>
        <pt x="266" y="568" on="0"/>
        <pt x="297" y="568" on="1"/>
        <pt x="329" y="568" on="0"/>
        <pt x="372" y="532" on="0"/>
        <pt x="372" y="501" on="1"/>
        <pt x="372" y="474" on="0"/>
        <pt x="349" y="433" on="0"/>
      </contour>
      <contour>
        <pt x="262" y="293" on="1"/>
        <pt x="296" y="279" on="0"/>
        <pt x="342" y="256" on="0"/>
        <pt x="370" y="232" on="0"/>
        <pt x="381" y="205" on="0"/>
        <pt x="381" y="189" on="1"/>
        <pt x="381" y="156" on="0"/>
        <pt x="334" y="117" on="0"/>
        <pt x="302" y="117" on="1"/>
        <pt x="264" y="117" on="0"/>
        <pt x="211" y="161" on="0"/>
        <pt x="211" y="198" on="1"/>
        <pt x="211" y="227" on="0"/>
        <pt x="239" y="274" on="0"/>
      </contour>
      <contour>
        <pt x="143" y="351" on="1"/>
        <pt x="89" y="319" on="0"/>
        <pt x="30" y="231" on="0"/>
        <pt x="30" y="178" on="1"/>
        <pt x="30" y="139" on="0"/>
        <pt x="64" y="70" on="0"/>
        <pt x="132" y="18" on="0"/>
        <pt x="233" y="-13" on="0"/>
        <pt x="299" y="-13" on="1"/>
        <pt x="361" y="-13" on="0"/>
        <pt x="460" y="17" on="0"/>
        <pt x="529" y="72" on="0"/>
        <pt x="566" y="147" on="0"/>
        <pt x="566" y="192" on="1"/>
        <pt x="566" y="250" on="0"/>
        <pt x="511" y="329" on="0"/>
        <pt x="453" y="359" on="1"/>
        <pt x="498" y="390" on="0"/>
        <pt x="547" y="466" on="0"/>
        <pt x="547" y="513" on="1"/>
        <pt x="547" y="552" on="0"/>
        <pt x="513" y="616" on="0"/>
        <pt x="450" y="663" on="0"/>
        <pt x="360" y="689" on="0"/>
        <pt x="304" y="689" on="1"/>
        <pt x="250" y="689" on="0"/>
        <pt x="158" y="665" on="0"/>
        <pt x="90" y="617" on="0"/>
        <pt x="51" y="547" on="0"/>
        <pt x="51" y="501" on="1"/>
        <pt x="51" y="453" on="0"/>
        <pt x="99" y="380" on="0"/>
      </contour>
    </TTGlyph>
    <TTGlyph name="ellipsis" xMin="42" yMin="0" xMax="759" yMax="193">
      <contour>
        <pt x="759" y="0" on="1"/>
        <pt x="759" y="193" on="1"/>
        <pt x="574" y="193" on="1"/>
        <pt x="574" y="0" on="1"/>
      </contour>
      <contour>
        <pt x="493" y="0" on="1"/>
        <pt x="493" y="193" on="1"/>
        <pt x="308" y="193" on="1"/>
        <pt x="308" y="0" on="1"/>
      </contour>
      <contour>
        <pt x="227" y="0" on="1"/>
        <pt x="227" y="193" on="1"/>
        <pt x="42" y="193" on="1"/>
        <pt x="42" y="0" on="1"/>
      </contour>
    </TTGlyph>
    <TTGlyph name="emdash" xMin="36" yMin="212" xMax="872" yMax="375">
      <contour>
        <pt x="872" y="212" on="1"/>
        <pt x="872" y="375" on="1"/>
        <pt x="36" y="375" on="1"/>
        <pt x="36" y="212" on="1"/>
      </contour>
    </TTGlyph>
    <TTGlyph name="endash" xMin="36" yMin="211" xMax="418" yMax="376">
      <contour>
        <pt x="418" y="211" on="1"/>
        <pt x="418" y="376" on="1"/>
        <pt x="36" y="376" on="1"/>
        <pt x="36" y="211" on="1"/>
      </contour>
    </TTGlyph>
    <TTGlyph name="equal" xMin="73" yMin="146" xMax="518" yMax="531">
      <contour>
        <pt x="518" y="394" on="1"/>
        <pt x="518" y="531" on="1"/>
        <pt x="73" y="531" on="1"/>
        <pt x="73" y="394" on="1"/>
      </contour>
      <contour>
        <pt x="518" y="146" on="1"/>
        <pt x="518" y="282" on="1"/>
        <pt x="73" y="282" on="1"/>
        <pt x="73" y="146" on="1"/>
      </contour>
    </TTGlyph>
    <TTGlyph name="eth" xMin="23" yMin="-11" xMax="515" yMax="722">
      <contour>
        <pt x="515" y="318" on="1"/>
        <pt x="515" y="436" on="0"/>
        <pt x="431" y="594" on="0"/>
        <pt x="352" y="645" on="1"/>
        <pt x="397" y="702" on="1"/>
        <pt x="307" y="722" on="1"/>
        <pt x="280" y="682" on="1"/>
        <pt x="249" y="694" on="0"/>
        <pt x="181" y="714" on="0"/>
        <pt x="144" y="721" on="1"/>
        <pt x="123" y="585" on="1"/>
        <pt x="141" y="580" on="0"/>
        <pt x="175" y="570" on="0"/>
        <pt x="191" y="565" on="1"/>
        <pt x="143" y="501" on="1"/>
        <pt x="234" y="501" on="1"/>
        <pt x="259" y="532" on="1"/>
        <pt x="297" y="508" on="0"/>
        <pt x="339" y="445" on="0"/>
        <pt x="343" y="400" on="1"/>
        <pt x="311" y="432" on="0"/>
        <pt x="241" y="464" on="0"/>
        <pt x="199" y="464" on="1"/>
        <pt x="162" y="464" on="0"/>
        <pt x="98" y="432" on="0"/>
        <pt x="50" y="372" on="0"/>
        <pt x="23" y="285" on="0"/>
        <pt x="23" y="231" on="1"/>
        <pt x="23" y="172" on="0"/>
        <pt x="59" y="82" on="0"/>
        <pt x="122" y="20" on="0"/>
        <pt x="207" y="-11" on="0"/>
        <pt x="255" y="-11" on="1"/>
        <pt x="309" y="-11" on="0"/>
        <pt x="392" y="20" on="0"/>
        <pt x="425" y="54" on="1"/>
        <pt x="515" y="146" on="0"/>
      </contour>
      <contour>
        <pt x="344" y="293" on="1"/>
        <pt x="344" y="292" on="1"/>
        <pt x="342" y="205" on="0"/>
        <pt x="302" y="125" on="0"/>
        <pt x="264" y="125" on="1"/>
        <pt x="232" y="125" on="0"/>
        <pt x="192" y="176" on="0"/>
        <pt x="192" y="222" on="1"/>
        <pt x="192" y="276" on="0"/>
        <pt x="228" y="328" on="0"/>
        <pt x="256" y="328" on="1"/>
        <pt x="276" y="328" on="0"/>
        <pt x="322" y="310" on="0"/>
      </contour>
    </TTGlyph>
    <TTGlyph name="exclam" xMin="41" yMin="0" xMax="264" yMax="690">
      <contour>
        <pt x="264" y="690" on="1"/>
        <pt x="41" y="690" on="1"/>
        <pt x="101" y="252" on="1"/>
        <pt x="208" y="275" on="1"/>
      </contour>
      <contour>
        <pt x="247" y="0" on="1"/>
        <pt x="247" y="195" on="1"/>
        <pt x="58" y="195" on="1"/>
        <pt x="58" y="0" on="1"/>
      </contour>
    </TTGlyph>
    <TTGlyph name="exclamdown" xMin="41" yMin="0" xMax="264" yMax="690">
      <contour>
        <pt x="247" y="495" on="1"/>
        <pt x="247" y="690" on="1"/>
        <pt x="58" y="690" on="1"/>
        <pt x="58" y="495" on="1"/>
      </contour>
      <contour>
        <pt x="264" y="0" on="1"/>
        <pt x="204" y="439" on="1"/>
        <pt x="97" y="415" on="1"/>
        <pt x="41" y="0" on="1"/>
      </contour>
    </TTGlyph>
    <TTGlyph name="f" xMin="8" yMin="0" xMax="368" yMax="713">
      <contour>
        <pt x="368" y="575" on="1"/>
        <pt x="347" y="706" on="1"/>
        <pt x="332" y="709" on="0"/>
        <pt x="297" y="713" on="0"/>
        <pt x="277" y="713" on="1"/>
        <pt x="230" y="713" on="0"/>
        <pt x="154" y="694" on="0"/>
        <pt x="102" y="652" on="0"/>
        <pt x="74" y="585" on="0"/>
        <pt x="74" y="537" on="1"/>
        <pt x="74" y="495" on="1"/>
        <pt x="8" y="495" on="1"/>
        <pt x="8" y="352" on="1"/>
        <pt x="74" y="352" on="1"/>
        <pt x="74" y="0" on="1"/>
        <pt x="252" y="0" on="1"/>
        <pt x="252" y="352" on="1"/>
        <pt x="360" y="352" on="1"/>
        <pt x="338" y="495" on="1"/>
        <pt x="252" y="495" on="1"/>
        <pt x="252" y="520" on="1"/>
        <pt x="252" y="549" on="0"/>
        <pt x="279" y="580" on="0"/>
        <pt x="310" y="580" on="1"/>
        <pt x="327" y="580" on="0"/>
        <pt x="355" y="577" on="0"/>
      </contour>
    </TTGlyph>
    <TTGlyph name="fi" xMin="8" yMin="0" xMax="588" yMax="731">
      <contour>
        <pt x="588" y="638" on="1"/>
        <pt x="588" y="682" on="0"/>
        <pt x="531" y="731" on="0"/>
        <pt x="489" y="731" on="1"/>
        <pt x="447" y="731" on="0"/>
        <pt x="390" y="682" on="0"/>
        <pt x="390" y="638" on="1"/>
        <pt x="390" y="595" on="0"/>
        <pt x="447" y="546" on="0"/>
        <pt x="489" y="546" on="1"/>
        <pt x="531" y="546" on="0"/>
        <pt x="588" y="595" on="0"/>
      </contour>
      <contour>
        <pt x="368" y="575" on="1"/>
        <pt x="347" y="706" on="1"/>
        <pt x="332" y="709" on="0"/>
        <pt x="297" y="713" on="0"/>
        <pt x="277" y="713" on="1"/>
        <pt x="230" y="713" on="0"/>
        <pt x="154" y="694" on="0"/>
        <pt x="102" y="652" on="0"/>
        <pt x="74" y="585" on="0"/>
        <pt x="74" y="537" on="1"/>
        <pt x="74" y="495" on="1"/>
        <pt x="8" y="495" on="1"/>
        <pt x="8" y="352" on="1"/>
        <pt x="74" y="352" on="1"/>
        <pt x="74" y="0" on="1"/>
        <pt x="252" y="0" on="1"/>
        <pt x="252" y="352" on="1"/>
        <pt x="360" y="352" on="1"/>
        <pt x="338" y="495" on="1"/>
        <pt x="252" y="495" on="1"/>
        <pt x="252" y="520" on="1"/>
        <pt x="252" y="549" on="0"/>
        <pt x="279" y="580" on="0"/>
        <pt x="310" y="580" on="1"/>
        <pt x="327" y="580" on="0"/>
        <pt x="355" y="577" on="0"/>
      </contour>
      <contour>
        <pt x="578" y="0" on="1"/>
        <pt x="578" y="495" on="1"/>
        <pt x="400" y="495" on="1"/>
        <pt x="400" y="0" on="1"/>
      </contour>
    </TTGlyph>
    <TTGlyph name="five" xMin="30" yMin="-13" xMax="533" yMax="676">
      <contour>
        <pt x="533" y="232" on="1"/>
        <pt x="533" y="284" on="0"/>
        <pt x="500" y="363" on="0"/>
        <pt x="440" y="414" on="0"/>
        <pt x="359" y="440" on="0"/>
        <pt x="311" y="440" on="1"/>
        <pt x="282" y="440" on="0"/>
        <pt x="238" y="435" on="0"/>
        <pt x="221" y="431" on="1"/>
        <pt x="226" y="517" on="1"/>
        <pt x="520" y="517" on="1"/>
        <pt x="495" y="676" on="1"/>
        <pt x="78" y="676" on="1"/>
        <pt x="55" y="300" on="1"/>
        <pt x="174" y="274" on="1"/>
        <pt x="192" y="282" on="0"/>
        <pt x="235" y="292" on="0"/>
        <pt x="263" y="292" on="1"/>
        <pt x="304" y="292" on="0"/>
        <pt x="349" y="257" on="0"/>
        <pt x="349" y="223" on="1"/>
        <pt x="349" y="188" on="0"/>
        <pt x="291" y="148" on="0"/>
        <pt x="246" y="148" on="1"/>
        <pt x="195" y="148" on="0"/>
        <pt x="99" y="174" on="0"/>
        <pt x="56" y="192" on="1"/>
        <pt x="30" y="31" on="1"/>
        <pt x="78" y="11" on="0"/>
        <pt x="186" y="-13" on="0"/>
        <pt x="249" y="-13" on="1"/>
        <pt x="312" y="-13" on="0"/>
        <pt x="416" y="19" on="0"/>
        <pt x="491" y="80" on="0"/>
        <pt x="533" y="172" on="0"/>
      </contour>
    </TTGlyph>
    <TTGlyph name="fl" xMin="8" yMin="0" xMax="578" yMax="722">
      <contour>
        <pt x="578" y="0" on="1"/>
        <pt x="578" y="722" on="1"/>
        <pt x="400" y="694" on="1"/>
        <pt x="400" y="0" on="1"/>
      </contour>
      <contour>
        <pt x="368" y="575" on="1"/>
        <pt x="347" y="706" on="1"/>
        <pt x="332" y="709" on="0"/>
        <pt x="297" y="713" on="0"/>
        <pt x="277" y="713" on="1"/>
        <pt x="230" y="713" on="0"/>
        <pt x="154" y="694" on="0"/>
        <pt x="102" y="652" on="0"/>
        <pt x="74" y="585" on="0"/>
        <pt x="74" y="537" on="1"/>
        <pt x="74" y="495" on="1"/>
        <pt x="8" y="495" on="1"/>
        <pt x="8" y="352" on="1"/>
        <pt x="74" y="352" on="1"/>
        <pt x="74" y="0" on="1"/>
        <pt x="252" y="0" on="1"/>
        <pt x="252" y="352" on="1"/>
        <pt x="360" y="352" on="1"/>
        <pt x="338" y="495" on="1"/>
        <pt x="252" y="495" on="1"/>
        <pt x="252" y="520" on="1"/>
        <pt x="252" y="549" on="0"/>
        <pt x="279" y="580" on="0"/>
        <pt x="310" y="580" on="1"/>
        <pt x="327" y="580" on="0"/>
        <pt x="355" y="577" on="0"/>
      </contour>
    </TTGlyph>
    <TTGlyph name="florin" xMin="25" yMin="0" xMax="446" yMax="684">
      <contour>
        <pt x="124" y="459" on="1"/>
        <pt x="46" y="459" on="1"/>
        <pt x="25" y="312" on="1"/>
        <pt x="101" y="312" on="1"/>
        <pt x="53" y="0" on="1"/>
        <pt x="245" y="0" on="1"/>
        <pt x="296" y="312" on="1"/>
        <pt x="411" y="312" on="1"/>
        <pt x="411" y="459" on="1"/>
        <pt x="319" y="459" on="1"/>
        <pt x="320" y="459" on="0"/>
        <pt x="322" y="474" on="0"/>
        <pt x="322" y="474" on="1"/>
        <pt x="327" y="509" on="0"/>
        <pt x="362" y="540" on="0"/>
        <pt x="396" y="540" on="1"/>
        <pt x="411" y="540" on="0"/>
        <pt x="434" y="537" on="0"/>
        <pt x="446" y="535" on="1"/>
        <pt x="446" y="678" on="1"/>
        <pt x="424" y="681" on="0"/>
        <pt x="378" y="684" on="0"/>
        <pt x="351" y="684" on="1"/>
        <pt x="304" y="684" on="0"/>
        <pt x="229" y="666" on="0"/>
        <pt x="174" y="624" on="0"/>
        <pt x="139" y="555" on="0"/>
        <pt x="131" y="503" on="1"/>
      </contour>
    </TTGlyph>
    <TTGlyph name="four" xMin="22" yMin="0" xMax="602" yMax="676">
      <contour>
        <pt x="602" y="127" on="1"/>
        <pt x="602" y="257" on="1"/>
        <pt x="513" y="257" on="1"/>
        <pt x="513" y="676" on="1"/>
        <pt x="295" y="676" on="1"/>
        <pt x="22" y="248" on="1"/>
        <pt x="22" y="127" on="1"/>
        <pt x="325" y="127" on="1"/>
        <pt x="325" y="0" on="1"/>
        <pt x="513" y="0" on="1"/>
        <pt x="513" y="127" on="1"/>
      </contour>
      <contour>
        <pt x="325" y="257" on="1"/>
        <pt x="181" y="257" on="1"/>
        <pt x="325" y="490" on="1"/>
      </contour>
    </TTGlyph>
    <TTGlyph name="fraction" xMin="-79" yMin="-108" xMax="535" yMax="784">
      <contour>
        <pt x="535" y="766" on="1"/>
        <pt x="458" y="784" on="1"/>
        <pt x="-79" y="-90" on="1"/>
        <pt x="-2" y="-108" on="1"/>
      </contour>
    </TTGlyph>
    <TTGlyph name="g" xMin="-2" yMin="-182" xMax="543" yMax="503">
      <contour>
        <pt x="152" y="-5" on="1"/>
        <pt x="169" y="-7" on="0"/>
        <pt x="201" y="-10" on="0"/>
        <pt x="228" y="-12" on="1"/>
        <pt x="308" y="-17" on="1"/>
        <pt x="343" y="-19" on="0"/>
        <pt x="371" y="-30" on="0"/>
        <pt x="371" y="-46" on="1"/>
        <pt x="371" y="-68" on="0"/>
        <pt x="310" y="-98" on="0"/>
        <pt x="256" y="-98" on="1"/>
        <pt x="190" y="-98" on="0"/>
        <pt x="137" y="-68" on="0"/>
        <pt x="137" y="-44" on="1"/>
        <pt x="137" y="-24" on="0"/>
      </contour>
      <contour>
        <pt x="308" y="332" on="1"/>
        <pt x="308" y="300" on="0"/>
        <pt x="277" y="260" on="0"/>
        <pt x="248" y="260" on="1"/>
        <pt x="219" y="260" on="0"/>
        <pt x="190" y="298" on="0"/>
        <pt x="190" y="330" on="1"/>
        <pt x="190" y="362" on="0"/>
        <pt x="219" y="404" on="0"/>
        <pt x="248" y="404" on="1"/>
        <pt x="277" y="404" on="0"/>
        <pt x="308" y="363" on="0"/>
      </contour>
      <contour>
        <pt x="409" y="453" on="1"/>
        <pt x="379" y="476" on="0"/>
        <pt x="297" y="503" on="0"/>
        <pt x="246" y="503" on="1"/>
        <pt x="198" y="503" on="0"/>
        <pt x="119" y="478" on="0"/>
        <pt x="62" y="432" on="0"/>
        <pt x="31" y="366" on="0"/>
        <pt x="31" y="325" on="1"/>
        <pt x="31" y="278" on="0"/>
        <pt x="79" y="205" on="0"/>
        <pt x="127" y="184" on="1"/>
        <pt x="44" y="138" on="0"/>
        <pt x="44" y="86" on="1"/>
        <pt x="44" y="55" on="0"/>
        <pt x="69" y="30" on="1"/>
        <pt x="33" y="9" on="0"/>
        <pt x="-2" y="-38" on="0"/>
        <pt x="-2" y="-68" on="1"/>
        <pt x="-2" y="-95" on="0"/>
        <pt x="33" y="-137" on="0"/>
        <pt x="97" y="-166" on="0"/>
        <pt x="186" y="-182" on="0"/>
        <pt x="240" y="-182" on="1"/>
        <pt x="304" y="-182" on="0"/>
        <pt x="411" y="-154" on="0"/>
        <pt x="489" y="-104" on="0"/>
        <pt x="532" y="-35" on="0"/>
        <pt x="532" y="7" on="1"/>
        <pt x="532" y="63" on="0"/>
        <pt x="450" y="112" on="0"/>
        <pt x="378" y="117" on="1"/>
        <pt x="264" y="124" on="1"/>
        <pt x="220" y="127" on="0"/>
        <pt x="195" y="135" on="0"/>
        <pt x="195" y="145" on="1"/>
        <pt x="195" y="153" on="0"/>
        <pt x="203" y="165" on="1"/>
        <pt x="227" y="162" on="0"/>
        <pt x="252" y="162" on="1"/>
        <pt x="296" y="162" on="0"/>
        <pt x="373" y="185" on="0"/>
        <pt x="431" y="229" on="0"/>
        <pt x="464" y="292" on="0"/>
        <pt x="464" y="333" on="1"/>
        <pt x="464" y="351" on="0"/>
        <pt x="459" y="374" on="1"/>
        <pt x="543" y="374" on="1"/>
        <pt x="522" y="500" on="1"/>
      </contour>
    </TTGlyph>
    <TTGlyph name="germandbls" xMin="8" yMin="-6" xMax="597" yMax="713">
      <contour>
        <pt x="597" y="162" on="1"/>
        <pt x="597" y="199" on="0"/>
        <pt x="575" y="256" on="0"/>
        <pt x="535" y="301" on="0"/>
        <pt x="476" y="337" on="0"/>
        <pt x="439" y="352" on="1"/>
        <pt x="456" y="370" on="0"/>
        <pt x="485" y="408" on="0"/>
        <pt x="506" y="451" on="0"/>
        <pt x="518" y="501" on="0"/>
        <pt x="518" y="532" on="1"/>
        <pt x="518" y="569" on="0"/>
        <pt x="492" y="635" on="0"/>
        <pt x="440" y="685" on="0"/>
        <pt x="358" y="713" on="0"/>
        <pt x="303" y="713" on="1"/>
        <pt x="190" y="713" on="0"/>
        <pt x="74" y="602" on="0"/>
        <pt x="74" y="498" on="1"/>
        <pt x="74" y="495" on="1"/>
        <pt x="8" y="495" on="1"/>
        <pt x="8" y="352" on="1"/>
        <pt x="74" y="352" on="1"/>
        <pt x="74" y="0" on="1"/>
        <pt x="252" y="0" on="1"/>
        <pt x="252" y="510" on="1"/>
        <pt x="252" y="582" on="0"/>
        <pt x="300" y="582" on="1"/>
        <pt x="347" y="582" on="0"/>
        <pt x="347" y="515" on="1"/>
        <pt x="347" y="473" on="0"/>
        <pt x="318" y="392" on="0"/>
        <pt x="295" y="355" on="1"/>
        <pt x="312" y="243" on="1"/>
        <pt x="372" y="220" on="0"/>
        <pt x="427" y="177" on="0"/>
        <pt x="427" y="157" on="1"/>
        <pt x="427" y="140" on="0"/>
        <pt x="408" y="124" on="0"/>
        <pt x="391" y="124" on="1"/>
        <pt x="354" y="124" on="0"/>
        <pt x="305" y="150" on="1"/>
        <pt x="285" y="22" on="1"/>
        <pt x="316" y="9" on="0"/>
        <pt x="382" y="-6" on="0"/>
        <pt x="419" y="-6" on="1"/>
        <pt x="501" y="-6" on="0"/>
        <pt x="597" y="78" on="0"/>
      </contour>
    </TTGlyph>
    <TTGlyph name="grave" xMin="84" yMin="547" xMax="352" yMax="698">
      <contour>
        <pt x="352" y="547" on="1"/>
        <pt x="302" y="698" on="1"/>
        <pt x="84" y="665" on="1"/>
        <pt x="236" y="547" on="1"/>
      </contour>
    </TTGlyph>
    <TTGlyph name="greater" xMin="68" yMin="55" xMax="515" yMax="621">
      <contour>
        <pt x="515" y="277" on="1"/>
        <pt x="515" y="399" on="1"/>
        <pt x="68" y="621" on="1"/>
        <pt x="68" y="471" on="1"/>
        <pt x="341" y="337" on="1"/>
        <pt x="68" y="205" on="1"/>
        <pt x="68" y="55" on="1"/>
      </contour>
    </TTGlyph>
    <TTGlyph name="greaterequal" xMin="53" yMin="-7" xMax="646" yMax="690">
      <contour>
        <pt x="463" y="61" on="1"/>
        <pt x="473" y="0" on="1"/>
        <pt x="646" y="0" on="1"/>
        <pt x="646" y="690" on="1"/>
        <pt x="441" y="690" on="1"/>
        <pt x="441" y="208" on="1"/>
        <pt x="379" y="166" on="0"/>
        <pt x="333" y="166" on="1"/>
        <pt x="258" y="166" on="0"/>
        <pt x="258" y="244" on="1"/>
        <pt x="258" y="690" on="1"/>
        <pt x="53" y="690" on="1"/>
        <pt x="53" y="214" on="1"/>
        <pt x="53" y="154" on="0"/>
        <pt x="83" y="70" on="0"/>
        <pt x="139" y="17" on="0"/>
        <pt x="217" y="-7" on="0"/>
        <pt x="264" y="-7" on="1"/>
        <pt x="321" y="-7" on="0"/>
        <pt x="415" y="29" on="0"/>
      </contour>
    </TTGlyph>
    <TTGlyph name="guillemotleft" xMin="16" yMin="-10" xMax="558" yMax="495">
      <contour>
        <pt x="558" y="495" on="1"/>
        <pt x="439" y="495" on="1"/>
        <pt x="270" y="248" on="1"/>
        <pt x="444" y="-10" on="1"/>
        <pt x="552" y="13" on="1"/>
        <pt x="466" y="248" on="1"/>
      </contour>
      <contour>
        <pt x="305" y="495" on="1"/>
        <pt x="185" y="495" on="1"/>
        <pt x="16" y="248" on="1"/>
        <pt x="191" y="-10" on="1"/>
        <pt x="299" y="13" on="1"/>
        <pt x="212" y="248" on="1"/>
      </contour>
    </TTGlyph>
    <TTGlyph name="guillemotright" xMin="32" yMin="0" xMax="574" yMax="505">
      <contour>
        <pt x="574" y="247" on="1"/>
        <pt x="400" y="505" on="1"/>
        <pt x="291" y="482" on="1"/>
        <pt x="378" y="247" on="1"/>
        <pt x="285" y="0" on="1"/>
        <pt x="405" y="0" on="1"/>
      </contour>
      <contour>
        <pt x="321" y="247" on="1"/>
        <pt x="146" y="505" on="1"/>
        <pt x="38" y="482" on="1"/>
        <pt x="124" y="247" on="1"/>
        <pt x="32" y="0" on="1"/>
        <pt x="152" y="0" on="1"/>
      </contour>
    </TTGlyph>
    <TTGlyph name="guilsinglleft" xMin="16" yMin="-10" xMax="305" yMax="495">
      <contour>
        <pt x="305" y="495" on="1"/>
        <pt x="185" y="495" on="1"/>
        <pt x="16" y="248" on="1"/>
        <pt x="191" y="-10" on="1"/>
        <pt x="299" y="13" on="1"/>
        <pt x="212" y="248" on="1"/>
      </contour>
    </TTGlyph>
    <TTGlyph name="guilsinglright" xMin="32" yMin="0" xMax="321" yMax="505">
      <contour>
        <pt x="321" y="247" on="1"/>
        <pt x="146" y="505" on="1"/>
        <pt x="38" y="482" on="1"/>
        <pt x="124" y="247" on="1"/>
        <pt x="32" y="0" on="1"/>
        <pt x="152" y="0" on="1"/>
      </contour>
    </TTGlyph>
    <TTGlyph name="h" xMin="44" yMin="0" xMax="500" yMax="722">
      <contour>
        <pt x="500" y="0" on="1"/>
        <pt x="500" y="349" on="1"/>
        <pt x="500" y="424" on="0"/>
        <pt x="430" y="505" on="0"/>
        <pt x="361" y="505" on="1"/>
        <pt x="318" y="505" on="0"/>
        <pt x="254" y="467" on="0"/>
        <pt x="222" y="436" on="1"/>
        <pt x="222" y="722" on="1"/>
        <pt x="44" y="694" on="1"/>
        <pt x="44" y="0" on="1"/>
        <pt x="222" y="0" on="1"/>
        <pt x="222" y="319" on="1"/>
        <pt x="237" y="333" on="0"/>
        <pt x="265" y="349" on="0"/>
        <pt x="281" y="349" on="1"/>
        <pt x="303" y="349" on="0"/>
        <pt x="322" y="321" on="0"/>
        <pt x="322" y="299" on="1"/>
        <pt x="322" y="0" on="1"/>
      </contour>
    </TTGlyph>
    <TTGlyph name="hungarumlaut" xMin="1" yMin="547" xMax="464" yMax="698">
      <contour>
        <pt x="464" y="668" on="1"/>
        <pt x="271" y="698" on="1"/>
        <pt x="221" y="547" on="1"/>
        <pt x="312" y="547" on="1"/>
      </contour>
      <contour>
        <pt x="244" y="668" on="1"/>
        <pt x="51" y="698" on="1"/>
        <pt x="1" y="547" on="1"/>
        <pt x="93" y="547" on="1"/>
      </contour>
    </TTGlyph>
    <TTGlyph name="hyphen" xMin="35" yMin="209" xMax="320" yMax="378">
      <contour>
        <pt x="320" y="209" on="1"/>
        <pt x="320" y="378" on="1"/>
        <pt x="35" y="378" on="1"/>
        <pt x="35" y="209" on="1"/>
      </contour>
    </TTGlyph>
    <TTGlyph name="i" xMin="36" yMin="0" xMax="234" yMax="731">
      <contour>
        <pt x="234" y="638" on="1"/>
        <pt x="234" y="682" on="0"/>
        <pt x="177" y="731" on="0"/>
        <pt x="135" y="731" on="1"/>
        <pt x="93" y="731" on="0"/>
        <pt x="36" y="682" on="0"/>
        <pt x="36" y="638" on="1"/>
        <pt x="36" y="595" on="0"/>
        <pt x="93" y="546" on="0"/>
        <pt x="135" y="546" on="1"/>
        <pt x="177" y="546" on="0"/>
        <pt x="234" y="595" on="0"/>
      </contour>
      <contour>
        <pt x="224" y="0" on="1"/>
        <pt x="224" y="495" on="1"/>
        <pt x="46" y="495" on="1"/>
        <pt x="46" y="0" on="1"/>
      </contour>
    </TTGlyph>
    <TTGlyph name="iacute" xMin="46" yMin="0" xMax="308" yMax="698">
      <contour>
        <pt x="308" y="665" on="1"/>
        <pt x="115" y="698" on="1"/>
        <pt x="71" y="547" on="1"/>
        <pt x="171" y="547" on="1"/>
      </contour>
      <contour>
        <pt x="224" y="0" on="1"/>
        <pt x="224" y="495" on="1"/>
        <pt x="46" y="495" on="1"/>
        <pt x="46" y="0" on="1"/>
      </contour>
    </TTGlyph>
    <TTGlyph name="icircumflex" xMin="-27" yMin="0" xMax="297" yMax="697">
      <contour>
        <pt x="297" y="563" on="1"/>
        <pt x="211" y="697" on="1"/>
        <pt x="65" y="697" on="1"/>
        <pt x="-27" y="547" on="1"/>
        <pt x="75" y="547" on="1"/>
        <pt x="137" y="600" on="1"/>
        <pt x="202" y="542" on="1"/>
      </contour>
      <contour>
        <pt x="224" y="0" on="1"/>
        <pt x="224" y="495" on="1"/>
        <pt x="46" y="495" on="1"/>
        <pt x="46" y="0" on="1"/>
      </contour>
    </TTGlyph>
    <TTGlyph name="idieresis" xMin="-12" yMin="0" xMax="282" yMax="690">
      <contour>
        <pt x="282" y="547" on="1"/>
        <pt x="282" y="690" on="1"/>
        <pt x="158" y="690" on="1"/>
        <pt x="158" y="547" on="1"/>
      </contour>
      <contour>
        <pt x="112" y="547" on="1"/>
        <pt x="112" y="690" on="1"/>
        <pt x="-12" y="690" on="1"/>
        <pt x="-12" y="547" on="1"/>
      </contour>
      <contour>
        <pt x="224" y="0" on="1"/>
        <pt x="224" y="495" on="1"/>
        <pt x="46" y="495" on="1"/>
        <pt x="46" y="0" on="1"/>
      </contour>
    </TTGlyph>
    <TTGlyph name="igrave" xMin="-40" yMin="0" xMax="224" yMax="698">
      <contour>
        <pt x="201" y="547" on="1"/>
        <pt x="156" y="698" on="1"/>
        <pt x="-40" y="665" on="1"/>
        <pt x="97" y="547" on="1"/>
      </contour>
      <contour>
        <pt x="224" y="0" on="1"/>
        <pt x="224" y="495" on="1"/>
        <pt x="46" y="495" on="1"/>
        <pt x="46" y="0" on="1"/>
      </contour>
    </TTGlyph>
    <TTGlyph name="infinity" xMin="22" yMin="-10" xMax="471" yMax="503">
      <contour>
        <pt x="471" y="0" on="1"/>
        <pt x="471" y="326" on="1"/>
        <pt x="471" y="376" on="0"/>
        <pt x="444" y="444" on="0"/>
        <pt x="390" y="485" on="0"/>
        <pt x="310" y="503" on="0"/>
        <pt x="256" y="503" on="1"/>
        <pt x="193" y="503" on="0"/>
        <pt x="93" y="483" on="0"/>
        <pt x="51" y="466" on="1"/>
        <pt x="71" y="336" on="1"/>
        <pt x="110" y="353" on="0"/>
        <pt x="186" y="371" on="0"/>
        <pt x="226" y="371" on="1"/>
        <pt x="262" y="371" on="0"/>
        <pt x="293" y="344" on="0"/>
        <pt x="293" y="317" on="1"/>
        <pt x="293" y="313" on="1"/>
        <pt x="152" y="301" on="0"/>
        <pt x="22" y="212" on="0"/>
        <pt x="22" y="127" on="1"/>
        <pt x="22" y="58" on="0"/>
        <pt x="96" y="-10" on="0"/>
        <pt x="153" y="-10" on="1"/>
        <pt x="199" y="-10" on="0"/>
        <pt x="269" y="28" on="0"/>
        <pt x="301" y="60" on="1"/>
        <pt x="311" y="0" on="1"/>
      </contour>
      <contour>
        <pt x="294" y="137" on="1"/>
        <pt x="262" y="112" on="0"/>
        <pt x="235" y="112" on="1"/>
        <pt x="218" y="112" on="0"/>
        <pt x="197" y="133" on="0"/>
        <pt x="197" y="154" on="1"/>
        <pt x="197" y="184" on="0"/>
        <pt x="240" y="226" on="0"/>
        <pt x="294" y="238" on="1"/>
      </contour>
    </TTGlyph>
    <TTGlyph name="integral" xMin="25" yMin="-182" xMax="500" yMax="501">
      <contour>
        <pt x="500" y="39" on="1"/>
        <pt x="500" y="464" on="1"/>
        <pt x="458" y="481" on="0"/>
        <pt x="340" y="501" on="0"/>
        <pt x="279" y="501" on="1"/>
        <pt x="220" y="501" on="0"/>
        <pt x="126" y="471" on="0"/>
        <pt x="60" y="408" on="0"/>
        <pt x="25" y="310" on="0"/>
        <pt x="25" y="243" on="1"/>
        <pt x="25" y="183" on="0"/>
        <pt x="51" y="94" on="0"/>
        <pt x="96" y="36" on="0"/>
        <pt x="159" y="8" on="0"/>
        <pt x="196" y="8" on="1"/>
        <pt x="238" y="8" on="0"/>
        <pt x="299" y="45" on="0"/>
        <pt x="322" y="68" on="1"/>
        <pt x="322" y="35" on="1"/>
        <pt x="322" y="-15" on="0"/>
        <pt x="266" y="-54" on="0"/>
        <pt x="223" y="-54" on="1"/>
        <pt x="189" y="-54" on="0"/>
        <pt x="116" y="-36" on="0"/>
        <pt x="84" y="-20" on="1"/>
        <pt x="58" y="-147" on="1"/>
        <pt x="100" y="-162" on="0"/>
        <pt x="190" y="-182" on="0"/>
        <pt x="253" y="-182" on="1"/>
        <pt x="374" y="-182" on="0"/>
        <pt x="500" y="-74" on="0"/>
      </contour>
      <contour>
        <pt x="322" y="190" on="1"/>
        <pt x="306" y="176" on="0"/>
        <pt x="277" y="157" on="0"/>
        <pt x="260" y="157" on="1"/>
        <pt x="234" y="157" on="0"/>
        <pt x="203" y="199" on="0"/>
        <pt x="203" y="252" on="1"/>
        <pt x="203" y="283" on="0"/>
        <pt x="216" y="324" on="0"/>
        <pt x="238" y="349" on="0"/>
        <pt x="267" y="360" on="0"/>
        <pt x="284" y="360" on="1"/>
        <pt x="295" y="360" on="0"/>
        <pt x="311" y="358" on="0"/>
        <pt x="322" y="354" on="1"/>
      </contour>
    </TTGlyph>
    <TTGlyph name="j" xMin="-45" yMin="-182" xMax="234" yMax="731">
      <contour>
        <pt x="234" y="638" on="1"/>
        <pt x="234" y="682" on="0"/>
        <pt x="177" y="731" on="0"/>
        <pt x="135" y="731" on="1"/>
        <pt x="93" y="731" on="0"/>
        <pt x="36" y="682" on="0"/>
        <pt x="36" y="638" on="1"/>
        <pt x="36" y="595" on="0"/>
        <pt x="93" y="546" on="0"/>
        <pt x="135" y="546" on="1"/>
        <pt x="177" y="546" on="0"/>
        <pt x="234" y="595" on="0"/>
      </contour>
      <contour>
        <pt x="224" y="6" on="1"/>
        <pt x="224" y="495" on="1"/>
        <pt x="46" y="495" on="1"/>
        <pt x="46" y="19" on="1"/>
        <pt x="46" y="-20" on="0"/>
        <pt x="14" y="-47" on="0"/>
        <pt x="-12" y="-47" on="1"/>
        <pt x="-23" y="-47" on="0"/>
        <pt x="-37" y="-45" on="0"/>
        <pt x="-45" y="-43" on="1"/>
        <pt x="-25" y="-177" on="1"/>
        <pt x="-17" y="-179" on="0"/>
        <pt x="17" y="-182" on="0"/>
        <pt x="34" y="-182" on="1"/>
        <pt x="76" y="-182" on="0"/>
        <pt x="146" y="-162" on="0"/>
        <pt x="196" y="-117" on="0"/>
        <pt x="224" y="-45" on="0"/>
      </contour>
    </TTGlyph>
    <TTGlyph name="k" xMin="44" yMin="-7" xMax="517" yMax="722">
      <contour>
        <pt x="517" y="18" on="1"/>
        <pt x="382" y="268" on="1"/>
        <pt x="516" y="495" on="1"/>
        <pt x="329" y="495" on="1"/>
        <pt x="222" y="294" on="1"/>
        <pt x="222" y="722" on="1"/>
        <pt x="44" y="694" on="1"/>
        <pt x="44" y="0" on="1"/>
        <pt x="222" y="0" on="1"/>
        <pt x="222" y="219" on="1"/>
        <pt x="334" y="-7" on="1"/>
      </contour>
    </TTGlyph>
    <TTGlyph name="l" xMin="46" yMin="0" xMax="224" yMax="722">
      <contour>
        <pt x="224" y="0" on="1"/>
        <pt x="224" y="722" on="1"/>
        <pt x="46" y="694" on="1"/>
        <pt x="46" y="0" on="1"/>
      </contour>
    </TTGlyph>
    <TTGlyph name="less" xMin="57" yMin="55" xMax="504" yMax="621">
      <contour>
        <pt x="504" y="55" on="1"/>
        <pt x="504" y="205" on="1"/>
        <pt x="231" y="339" on="1"/>
        <pt x="504" y="472" on="1"/>
        <pt x="504" y="621" on="1"/>
        <pt x="57" y="399" on="1"/>
        <pt x="57" y="277" on="1"/>
      </contour>
    </TTGlyph>
    <TTGlyph name="lessequal" xMin="54" yMin="-3" xMax="832" yMax="690">
      <contour>
        <pt x="832" y="0" on="1"/>
        <pt x="832" y="690" on="1"/>
        <pt x="562" y="690" on="1"/>
        <pt x="448" y="259" on="1"/>
        <pt x="332" y="690" on="1"/>
        <pt x="54" y="690" on="1"/>
        <pt x="54" y="0" on="1"/>
        <pt x="226" y="0" on="1"/>
        <pt x="226" y="418" on="1"/>
        <pt x="340" y="-3" on="1"/>
        <pt x="522" y="-3" on="1"/>
        <pt x="636" y="418" on="1"/>
        <pt x="636" y="0" on="1"/>
      </contour>
    </TTGlyph>
    <TTGlyph name="logicalnot" xMin="54" yMin="265" xMax="518" yMax="411">
      <contour>
        <pt x="518" y="265" on="1"/>
        <pt x="518" y="411" on="1"/>
        <pt x="54" y="411" on="1"/>
        <pt x="54" y="265" on="1"/>
      </contour>
    </TTGlyph>
    <TTGlyph name="lozenge" xMin="66" yMin="340" xMax="790" yMax="695">
      <contour>
        <pt x="790" y="345" on="1"/>
        <pt x="765" y="690" on="1"/>
        <pt x="630" y="690" on="1"/>
        <pt x="578" y="479" on="1"/>
        <pt x="527" y="690" on="1"/>
        <pt x="386" y="690" on="1"/>
        <pt x="360" y="345" on="1"/>
        <pt x="452" y="345" on="1"/>
        <pt x="465" y="549" on="1"/>
        <pt x="514" y="343" on="1"/>
        <pt x="617" y="343" on="1"/>
        <pt x="666" y="549" on="1"/>
        <pt x="679" y="345" on="1"/>
      </contour>
      <contour>
        <pt x="188" y="340" on="1"/>
        <pt x="215" y="340" on="0"/>
        <pt x="261" y="352" on="0"/>
        <pt x="296" y="379" on="0"/>
        <pt x="316" y="420" on="0"/>
        <pt x="316" y="450" on="1"/>
        <pt x="316" y="472" on="0"/>
        <pt x="303" y="505" on="0"/>
        <pt x="277" y="531" on="0"/>
        <pt x="235" y="553" on="0"/>
        <pt x="207" y="564" on="1"/>
        <pt x="183" y="573" on="0"/>
        <pt x="169" y="587" on="0"/>
        <pt x="169" y="595" on="1"/>
        <pt x="169" y="603" on="0"/>
        <pt x="180" y="614" on="0"/>
        <pt x="193" y="614" on="1"/>
        <pt x="230" y="614" on="0"/>
        <pt x="288" y="583" on="1"/>
        <pt x="300" y="670" on="1"/>
        <pt x="277" y="681" on="0"/>
        <pt x="229" y="695" on="0"/>
        <pt x="194" y="695" on="1"/>
        <pt x="170" y="695" on="0"/>
        <pt x="126" y="681" on="0"/>
        <pt x="93" y="654" on="0"/>
        <pt x="74" y="614" on="0"/>
        <pt x="74" y="588" on="1"/>
        <pt x="74" y="544" on="0"/>
        <pt x="121" y="498" on="0"/>
        <pt x="173" y="477" on="1"/>
        <pt x="201" y="466" on="0"/>
        <pt x="219" y="452" on="0"/>
        <pt x="219" y="441" on="1"/>
        <pt x="219" y="421" on="0"/>
        <pt x="192" y="421" on="1"/>
        <pt x="168" y="421" on="0"/>
        <pt x="112" y="439" on="0"/>
        <pt x="82" y="456" on="1"/>
        <pt x="66" y="369" on="1"/>
        <pt x="96" y="355" on="0"/>
        <pt x="155" y="340" on="0"/>
      </contour>
    </TTGlyph>
    <TTGlyph name="lslash" xMin="-2" yMin="0" xMax="340" yMax="722">
      <contour>
        <pt x="340" y="338" on="1"/>
        <pt x="340" y="510" on="1"/>
        <pt x="264" y="488" on="1"/>
        <pt x="264" y="722" on="1"/>
        <pt x="88" y="694" on="1"/>
        <pt x="88" y="433" on="1"/>
        <pt x="-2" y="406" on="1"/>
        <pt x="25" y="241" on="1"/>
        <pt x="88" y="260" on="1"/>
        <pt x="88" y="0" on="1"/>
        <pt x="264" y="0" on="1"/>
        <pt x="264" y="314" on="1"/>
      </contour>
    </TTGlyph>
    <TTGlyph name="m" xMin="44" yMin="0" xMax="768" yMax="505">
      <contour>
        <pt x="768" y="0" on="1"/>
        <pt x="768" y="349" on="1"/>
        <pt x="768" y="424" on="0"/>
        <pt x="697" y="505" on="0"/>
        <pt x="628" y="505" on="1"/>
        <pt x="583" y="505" on="0"/>
        <pt x="514" y="464" on="0"/>
        <pt x="481" y="429" on="1"/>
        <pt x="467" y="461" on="0"/>
        <pt x="411" y="505" on="0"/>
        <pt x="361" y="505" on="1"/>
        <pt x="315" y="505" on="0"/>
        <pt x="248" y="464" on="0"/>
        <pt x="215" y="429" on="1"/>
        <pt x="204" y="495" on="1"/>
        <pt x="44" y="495" on="1"/>
        <pt x="44" y="0" on="1"/>
        <pt x="222" y="0" on="1"/>
        <pt x="222" y="320" on="1"/>
        <pt x="237" y="334" on="0"/>
        <pt x="264" y="349" on="0"/>
        <pt x="278" y="349" on="1"/>
        <pt x="299" y="349" on="0"/>
        <pt x="317" y="321" on="0"/>
        <pt x="317" y="299" on="1"/>
        <pt x="317" y="0" on="1"/>
        <pt x="495" y="0" on="1"/>
        <pt x="495" y="320" on="1"/>
        <pt x="510" y="334" on="0"/>
        <pt x="537" y="349" on="0"/>
        <pt x="551" y="349" on="1"/>
        <pt x="572" y="349" on="0"/>
        <pt x="590" y="321" on="0"/>
        <pt x="590" y="299" on="1"/>
        <pt x="590" y="0" on="1"/>
      </contour>
    </TTGlyph>
    <TTGlyph name="macron" xMin="67" yMin="552" xMax="387" yMax="670">
      <contour>
        <pt x="387" y="552" on="1"/>
        <pt x="387" y="670" on="1"/>
        <pt x="67" y="670" on="1"/>
        <pt x="67" y="552" on="1"/>
      </contour>
    </TTGlyph>
    <TTGlyph name="minus" xMin="25" yMin="-200" xMax="475" yMax="800">
      <contour>
        <pt x="25" y="-200" on="1"/>
        <pt x="475" y="-200" on="1"/>
        <pt x="475" y="800" on="1"/>
        <pt x="25" y="800" on="1"/>
      </contour>
    </TTGlyph>
    <TTGlyph name="mu" xMin="57" yMin="109" xMax="515" yMax="567">
      <contour>
        <pt x="415" y="109" on="1"/>
        <pt x="515" y="209" on="1"/>
        <pt x="383" y="339" on="1"/>
        <pt x="514" y="468" on="1"/>
        <pt x="416" y="566" on="1"/>
        <pt x="287" y="435" on="1"/>
        <pt x="157" y="567" on="1"/>
        <pt x="57" y="467" on="1"/>
        <pt x="189" y="337" on="1"/>
        <pt x="58" y="208" on="1"/>
        <pt x="156" y="110" on="1"/>
        <pt x="285" y="241" on="1"/>
      </contour>
    </TTGlyph>
    <TTGlyph name="multiply" xMin="25" yMin="-200" xMax="475" yMax="800">
      <contour>
        <pt x="25" y="-200" on="1"/>
        <pt x="475" y="-200" on="1"/>
        <pt x="475" y="800" on="1"/>
        <pt x="25" y="800" on="1"/>
      </contour>
    </TTGlyph>
    <TTGlyph name="n" xMin="44" yMin="0" xMax="500" yMax="505">
      <contour>
        <pt x="500" y="0" on="1"/>
        <pt x="500" y="349" on="1"/>
        <pt x="500" y="424" on="0"/>
        <pt x="430" y="505" on="0"/>
        <pt x="361" y="505" on="1"/>
        <pt x="316" y="505" on="0"/>
        <pt x="248" y="463" on="0"/>
        <pt x="215" y="429" on="1"/>
        <pt x="204" y="495" on="1"/>
        <pt x="44" y="495" on="1"/>
        <pt x="44" y="0" on="1"/>
        <pt x="222" y="0" on="1"/>
        <pt x="222" y="319" on="1"/>
        <pt x="237" y="333" on="0"/>
        <pt x="265" y="349" on="0"/>
        <pt x="281" y="349" on="1"/>
        <pt x="303" y="349" on="0"/>
        <pt x="322" y="321" on="0"/>
        <pt x="322" y="299" on="1"/>
        <pt x="322" y="0" on="1"/>
      </contour>
    </TTGlyph>
    <TTGlyph name="nine" xMin="26" yMin="-15" xMax="552" yMax="689">
      <contour>
        <pt x="368" y="280" on="1"/>
        <pt x="342" y="225" on="0"/>
        <pt x="217" y="158" on="0"/>
        <pt x="120" y="140" on="1"/>
        <pt x="142" y="-15" on="1"/>
        <pt x="230" y="0" on="0"/>
        <pt x="381" y="65" on="0"/>
        <pt x="490" y="167" on="0"/>
        <pt x="552" y="310" on="0"/>
        <pt x="552" y="403" on="1"/>
        <pt x="552" y="473" on="0"/>
        <pt x="513" y="580" on="0"/>
        <pt x="443" y="652" on="0"/>
        <pt x="345" y="689" on="0"/>
        <pt x="285" y="689" on="1"/>
        <pt x="230" y="689" on="0"/>
        <pt x="136" y="655" on="0"/>
        <pt x="66" y="591" on="0"/>
        <pt x="26" y="498" on="0"/>
        <pt x="26" y="439" on="1"/>
        <pt x="26" y="384" on="0"/>
        <pt x="56" y="305" on="0"/>
        <pt x="107" y="255" on="0"/>
        <pt x="177" y="232" on="0"/>
        <pt x="216" y="232" on="1"/>
        <pt x="258" y="232" on="0"/>
        <pt x="330" y="256" on="0"/>
      </contour>
      <contour>
        <pt x="375" y="395" on="1"/>
        <pt x="327" y="366" on="0"/>
        <pt x="287" y="366" on="1"/>
        <pt x="249" y="366" on="0"/>
        <pt x="209" y="407" on="0"/>
        <pt x="209" y="453" on="1"/>
        <pt x="209" y="499" on="0"/>
        <pt x="252" y="550" on="0"/>
        <pt x="286" y="550" on="1"/>
        <pt x="305" y="550" on="0"/>
        <pt x="337" y="534" on="0"/>
        <pt x="361" y="498" on="0"/>
        <pt x="375" y="438" on="0"/>
      </contour>
    </TTGlyph>
    <TTGlyph name="notequal" xMin="30" yMin="-13" xMax="525" yMax="676">
      <contour>
        <pt x="525" y="210" on="1"/>
        <pt x="525" y="255" on="0"/>
        <pt x="499" y="320" on="0"/>
        <pt x="452" y="366" on="0"/>
        <pt x="386" y="394" on="0"/>
        <pt x="347" y="403" on="1"/>
        <pt x="509" y="533" on="1"/>
        <pt x="509" y="676" on="1"/>
        <pt x="39" y="676" on="1"/>
        <pt x="64" y="523" on="1"/>
        <pt x="279" y="523" on="1"/>
        <pt x="126" y="395" on="1"/>
        <pt x="144" y="282" on="1"/>
        <pt x="207" y="282" on="1"/>
        <pt x="273" y="282" on="0"/>
        <pt x="335" y="249" on="0"/>
        <pt x="335" y="213" on="1"/>
        <pt x="335" y="143" on="0"/>
        <pt x="237" y="143" on="1"/>
        <pt x="194" y="143" on="0"/>
        <pt x="96" y="170" on="0"/>
        <pt x="54" y="190" on="1"/>
        <pt x="30" y="39" on="1"/>
        <pt x="78" y="16" on="0"/>
        <pt x="196" y="-13" on="0"/>
        <pt x="269" y="-13" on="1"/>
        <pt x="329" y="-13" on="0"/>
        <pt x="424" y="19" on="0"/>
        <pt x="490" y="77" on="0"/>
        <pt x="525" y="160" on="0"/>
      </contour>
    </TTGlyph>
    <TTGlyph name="ntilde" xMin="44" yMin="0" xMax="500" yMax="714">
      <contour>
        <pt x="500" y="0" on="1"/>
        <pt x="500" y="349" on="1"/>
        <pt x="500" y="424" on="0"/>
        <pt x="430" y="505" on="0"/>
        <pt x="361" y="505" on="1"/>
        <pt x="316" y="505" on="0"/>
        <pt x="248" y="463" on="0"/>
        <pt x="215" y="429" on="1"/>
        <pt x="204" y="495" on="1"/>
        <pt x="44" y="495" on="1"/>
        <pt x="44" y="0" on="1"/>
        <pt x="222" y="0" on="1"/>
        <pt x="222" y="319" on="1"/>
        <pt x="237" y="333" on="0"/>
        <pt x="265" y="349" on="0"/>
        <pt x="281" y="349" on="1"/>
        <pt x="303" y="349" on="0"/>
        <pt x="322" y="321" on="0"/>
        <pt x="322" y="299" on="1"/>
        <pt x="322" y="0" on="1"/>
      </contour>
      <contour>
        <pt x="449" y="696" on="1"/>
        <pt x="372" y="714" on="1"/>
        <pt x="366" y="689" on="0"/>
        <pt x="351" y="672" on="0"/>
        <pt x="340" y="672" on="1"/>
        <pt x="329" y="672" on="0"/>
        <pt x="304" y="680" on="0"/>
        <pt x="275" y="692" on="1"/>
        <pt x="254" y="701" on="0"/>
        <pt x="224" y="710" on="0"/>
        <pt x="204" y="710" on="1"/>
        <pt x="184" y="710" on="0"/>
        <pt x="152" y="695" on="0"/>
        <pt x="127" y="661" on="0"/>
        <pt x="109" y="602" on="0"/>
        <pt x="103" y="559" on="1"/>
        <pt x="180" y="542" on="1"/>
        <pt x="186" y="567" on="0"/>
        <pt x="201" y="584" on="0"/>
        <pt x="212" y="584" on="1"/>
        <pt x="223" y="584" on="0"/>
        <pt x="248" y="575" on="0"/>
        <pt x="277" y="564" on="1"/>
        <pt x="298" y="556" on="0"/>
        <pt x="328" y="546" on="0"/>
        <pt x="348" y="546" on="1"/>
        <pt x="367" y="546" on="0"/>
        <pt x="400" y="561" on="0"/>
        <pt x="425" y="595" on="0"/>
        <pt x="443" y="653" on="0"/>
      </contour>
    </TTGlyph>
    <TTGlyph name="numbersign" xMin="36" yMin="-10" xMax="642" yMax="686">
      <contour>
        <pt x="244" y="128" on="1"/>
        <pt x="367" y="128" on="1"/>
        <pt x="347" y="-2" on="1"/>
        <pt x="453" y="-2" on="1"/>
        <pt x="474" y="128" on="1"/>
        <pt x="628" y="128" on="1"/>
        <pt x="606" y="276" on="1"/>
        <pt x="497" y="276" on="1"/>
        <pt x="517" y="400" on="1"/>
        <pt x="642" y="400" on="1"/>
        <pt x="642" y="548" on="1"/>
        <pt x="540" y="548" on="1"/>
        <pt x="558" y="662" on="1"/>
        <pt x="456" y="686" on="1"/>
        <pt x="434" y="548" on="1"/>
        <pt x="311" y="548" on="1"/>
        <pt x="331" y="678" on="1"/>
        <pt x="225" y="678" on="1"/>
        <pt x="204" y="548" on="1"/>
        <pt x="50" y="548" on="1"/>
        <pt x="74" y="400" on="1"/>
        <pt x="181" y="400" on="1"/>
        <pt x="162" y="276" on="1"/>
        <pt x="36" y="276" on="1"/>
        <pt x="36" y="128" on="1"/>
        <pt x="139" y="128" on="1"/>
        <pt x="121" y="14" on="1"/>
        <pt x="222" y="-10" on="1"/>
      </contour>
      <contour>
        <pt x="286" y="404" on="1"/>
        <pt x="413" y="404" on="1"/>
        <pt x="392" y="272" on="1"/>
        <pt x="265" y="272" on="1"/>
      </contour>
    </TTGlyph>
    <TTGlyph name="o" xMin="22" yMin="-10" xMax="505" yMax="505">
      <contour>
        <pt x="505" y="248" on="1"/>
        <pt x="505" y="307" on="0"/>
        <pt x="469" y="402" on="0"/>
        <pt x="404" y="469" on="0"/>
        <pt x="316" y="505" on="0"/>
        <pt x="264" y="505" on="1"/>
        <pt x="212" y="505" on="0"/>
        <pt x="123" y="469" on="0"/>
        <pt x="59" y="401" on="0"/>
        <pt x="22" y="306" on="0"/>
        <pt x="22" y="247" on="1"/>
        <pt x="22" y="188" on="0"/>
        <pt x="58" y="93" on="0"/>
        <pt x="122" y="26" on="0"/>
        <pt x="210" y="-10" on="0"/>
        <pt x="262" y="-10" on="1"/>
        <pt x="314" y="-10" on="0"/>
        <pt x="403" y="26" on="0"/>
        <pt x="468" y="94" on="0"/>
        <pt x="505" y="189" on="0"/>
      </contour>
      <contour>
        <pt x="336" y="247" on="1"/>
        <pt x="336" y="193" on="0"/>
        <pt x="298" y="133" on="0"/>
        <pt x="263" y="133" on="1"/>
        <pt x="229" y="133" on="0"/>
        <pt x="191" y="194" on="0"/>
        <pt x="191" y="248" on="1"/>
        <pt x="191" y="302" on="0"/>
        <pt x="229" y="361" on="0"/>
        <pt x="263" y="361" on="1"/>
        <pt x="298" y="361" on="0"/>
        <pt x="336" y="301" on="0"/>
      </contour>
    </TTGlyph>
    <TTGlyph name="oacute" xMin="22" yMin="-10" xMax="505" yMax="698">
      <contour>
        <pt x="472" y="665" on="1"/>
        <pt x="257" y="698" on="1"/>
        <pt x="208" y="547" on="1"/>
        <pt x="320" y="547" on="1"/>
      </contour>
      <contour>
        <pt x="505" y="248" on="1"/>
        <pt x="505" y="307" on="0"/>
        <pt x="469" y="402" on="0"/>
        <pt x="404" y="469" on="0"/>
        <pt x="316" y="505" on="0"/>
        <pt x="264" y="505" on="1"/>
        <pt x="212" y="505" on="0"/>
        <pt x="123" y="469" on="0"/>
        <pt x="59" y="401" on="0"/>
        <pt x="22" y="306" on="0"/>
        <pt x="22" y="247" on="1"/>
        <pt x="22" y="188" on="0"/>
        <pt x="58" y="93" on="0"/>
        <pt x="122" y="26" on="0"/>
        <pt x="210" y="-10" on="0"/>
        <pt x="262" y="-10" on="1"/>
        <pt x="314" y="-10" on="0"/>
        <pt x="403" y="26" on="0"/>
        <pt x="468" y="94" on="0"/>
        <pt x="505" y="189" on="0"/>
      </contour>
      <contour>
        <pt x="336" y="247" on="1"/>
        <pt x="336" y="193" on="0"/>
        <pt x="298" y="133" on="0"/>
        <pt x="263" y="133" on="1"/>
        <pt x="229" y="133" on="0"/>
        <pt x="191" y="194" on="0"/>
        <pt x="191" y="248" on="1"/>
        <pt x="191" y="302" on="0"/>
        <pt x="229" y="361" on="0"/>
        <pt x="263" y="361" on="1"/>
        <pt x="298" y="361" on="0"/>
        <pt x="336" y="301" on="0"/>
      </contour>
    </TTGlyph>
    <TTGlyph name="ocircumflex" xMin="22" yMin="-10" xMax="505" yMax="697">
      <contour>
        <pt x="505" y="248" on="1"/>
        <pt x="505" y="307" on="0"/>
        <pt x="469" y="402" on="0"/>
        <pt x="404" y="469" on="0"/>
        <pt x="316" y="505" on="0"/>
        <pt x="264" y="505" on="1"/>
        <pt x="212" y="505" on="0"/>
        <pt x="123" y="469" on="0"/>
        <pt x="59" y="401" on="0"/>
        <pt x="22" y="306" on="0"/>
        <pt x="22" y="247" on="1"/>
        <pt x="22" y="188" on="0"/>
        <pt x="58" y="93" on="0"/>
        <pt x="122" y="26" on="0"/>
        <pt x="210" y="-10" on="0"/>
        <pt x="262" y="-10" on="1"/>
        <pt x="314" y="-10" on="0"/>
        <pt x="403" y="26" on="0"/>
        <pt x="468" y="94" on="0"/>
        <pt x="505" y="189" on="0"/>
      </contour>
      <contour>
        <pt x="336" y="247" on="1"/>
        <pt x="336" y="193" on="0"/>
        <pt x="298" y="133" on="0"/>
        <pt x="263" y="133" on="1"/>
        <pt x="229" y="133" on="0"/>
        <pt x="191" y="194" on="0"/>
        <pt x="191" y="248" on="1"/>
        <pt x="191" y="302" on="0"/>
        <pt x="229" y="361" on="0"/>
        <pt x="263" y="361" on="1"/>
        <pt x="298" y="361" on="0"/>
        <pt x="336" y="301" on="0"/>
      </contour>
      <contour>
        <pt x="444" y="563" on="1"/>
        <pt x="348" y="697" on="1"/>
        <pt x="186" y="697" on="1"/>
        <pt x="84" y="547" on="1"/>
        <pt x="197" y="547" on="1"/>
        <pt x="266" y="600" on="1"/>
        <pt x="338" y="542" on="1"/>
      </contour>
    </TTGlyph>
    <TTGlyph name="odieresis" xMin="22" yMin="-10" xMax="505" yMax="690">
      <contour>
        <pt x="505" y="248" on="1"/>
        <pt x="505" y="307" on="0"/>
        <pt x="469" y="402" on="0"/>
        <pt x="404" y="469" on="0"/>
        <pt x="316" y="505" on="0"/>
        <pt x="264" y="505" on="1"/>
        <pt x="212" y="505" on="0"/>
        <pt x="123" y="469" on="0"/>
        <pt x="59" y="401" on="0"/>
        <pt x="22" y="306" on="0"/>
        <pt x="22" y="247" on="1"/>
        <pt x="22" y="188" on="0"/>
        <pt x="58" y="93" on="0"/>
        <pt x="122" y="26" on="0"/>
        <pt x="210" y="-10" on="0"/>
        <pt x="262" y="-10" on="1"/>
        <pt x="314" y="-10" on="0"/>
        <pt x="403" y="26" on="0"/>
        <pt x="468" y="94" on="0"/>
        <pt x="505" y="189" on="0"/>
      </contour>
      <contour>
        <pt x="336" y="247" on="1"/>
        <pt x="336" y="193" on="0"/>
        <pt x="298" y="133" on="0"/>
        <pt x="263" y="133" on="1"/>
        <pt x="229" y="133" on="0"/>
        <pt x="191" y="194" on="0"/>
        <pt x="191" y="248" on="1"/>
        <pt x="191" y="302" on="0"/>
        <pt x="229" y="361" on="0"/>
        <pt x="263" y="361" on="1"/>
        <pt x="298" y="361" on="0"/>
        <pt x="336" y="301" on="0"/>
      </contour>
      <contour>
        <pt x="439" y="547" on="1"/>
        <pt x="439" y="690" on="1"/>
        <pt x="295" y="690" on="1"/>
        <pt x="295" y="547" on="1"/>
      </contour>
      <contour>
        <pt x="233" y="547" on="1"/>
        <pt x="233" y="690" on="1"/>
        <pt x="89" y="690" on="1"/>
        <pt x="89" y="547" on="1"/>
      </contour>
    </TTGlyph>
    <TTGlyph name="oe" xMin="22" yMin="-10" xMax="797" yMax="505">
      <contour>
        <pt x="797" y="245" on="1"/>
        <pt x="797" y="300" on="0"/>
        <pt x="771" y="395" on="0"/>
        <pt x="718" y="465" on="0"/>
        <pt x="638" y="505" on="0"/>
        <pt x="583" y="505" on="1"/>
        <pt x="532" y="505" on="0"/>
        <pt x="450" y="464" on="0"/>
        <pt x="421" y="427" on="1"/>
        <pt x="393" y="466" on="0"/>
        <pt x="311" y="505" on="0"/>
        <pt x="260" y="505" on="1"/>
        <pt x="209" y="505" on="0"/>
        <pt x="122" y="469" on="0"/>
        <pt x="58" y="401" on="0"/>
        <pt x="22" y="306" on="0"/>
        <pt x="22" y="247" on="1"/>
        <pt x="22" y="188" on="0"/>
        <pt x="58" y="93" on="0"/>
        <pt x="121" y="26" on="0"/>
        <pt x="205" y="-10" on="0"/>
        <pt x="253" y="-10" on="1"/>
        <pt x="306" y="-10" on="0"/>
        <pt x="390" y="32" on="0"/>
        <pt x="419" y="68" on="1"/>
        <pt x="450" y="28" on="0"/>
        <pt x="545" y="-10" on="0"/>
        <pt x="606" y="-10" on="1"/>
        <pt x="666" y="-10" on="0"/>
        <pt x="757" y="18" on="0"/>
        <pt x="797" y="41" on="1"/>
        <pt x="781" y="159" on="1"/>
        <pt x="739" y="138" on="0"/>
        <pt x="660" y="114" on="0"/>
        <pt x="625" y="114" on="1"/>
        <pt x="581" y="114" on="0"/>
        <pt x="520" y="150" on="0"/>
        <pt x="512" y="197" on="1"/>
        <pt x="794" y="197" on="1"/>
        <pt x="796" y="205" on="0"/>
        <pt x="797" y="231" on="0"/>
      </contour>
      <contour>
        <pt x="630" y="288" on="1"/>
        <pt x="509" y="288" on="1"/>
        <pt x="510" y="342" on="0"/>
        <pt x="542" y="396" on="0"/>
        <pt x="569" y="396" on="1"/>
        <pt x="627" y="396" on="0"/>
      </contour>
      <contour>
        <pt x="336" y="247" on="1"/>
        <pt x="336" y="193" on="0"/>
        <pt x="298" y="133" on="0"/>
        <pt x="263" y="133" on="1"/>
        <pt x="229" y="133" on="0"/>
        <pt x="191" y="194" on="0"/>
        <pt x="191" y="248" on="1"/>
        <pt x="191" y="302" on="0"/>
        <pt x="229" y="361" on="0"/>
        <pt x="263" y="361" on="1"/>
        <pt x="298" y="361" on="0"/>
        <pt x="336" y="301" on="0"/>
      </contour>
    </TTGlyph>
    <TTGlyph name="ogonek" xMin="94" yMin="-182" xMax="358" yMax="-44">
      <contour>
        <pt x="358" y="-182" on="1"/>
        <pt x="312" y="-44" on="1"/>
        <pt x="94" y="-77" on="1"/>
        <pt x="242" y="-182" on="1"/>
      </contour>
    </TTGlyph>
    <TTGlyph name="ograve" xMin="22" yMin="-10" xMax="505" yMax="698">
      <contour>
        <pt x="505" y="248" on="1"/>
        <pt x="505" y="307" on="0"/>
        <pt x="469" y="402" on="0"/>
        <pt x="404" y="469" on="0"/>
        <pt x="316" y="505" on="0"/>
        <pt x="264" y="505" on="1"/>
        <pt x="212" y="505" on="0"/>
        <pt x="123" y="469" on="0"/>
        <pt x="59" y="401" on="0"/>
        <pt x="22" y="306" on="0"/>
        <pt x="22" y="247" on="1"/>
        <pt x="22" y="188" on="0"/>
        <pt x="58" y="93" on="0"/>
        <pt x="122" y="26" on="0"/>
        <pt x="210" y="-10" on="0"/>
        <pt x="262" y="-10" on="1"/>
        <pt x="314" y="-10" on="0"/>
        <pt x="403" y="26" on="0"/>
        <pt x="468" y="94" on="0"/>
        <pt x="505" y="189" on="0"/>
      </contour>
      <contour>
        <pt x="336" y="247" on="1"/>
        <pt x="336" y="193" on="0"/>
        <pt x="298" y="133" on="0"/>
        <pt x="263" y="133" on="1"/>
        <pt x="229" y="133" on="0"/>
        <pt x="191" y="194" on="0"/>
        <pt x="191" y="248" on="1"/>
        <pt x="191" y="302" on="0"/>
        <pt x="229" y="361" on="0"/>
        <pt x="263" y="361" on="1"/>
        <pt x="298" y="361" on="0"/>
        <pt x="336" y="301" on="0"/>
      </contour>
      <contour>
        <pt x="323" y="547" on="1"/>
        <pt x="273" y="698" on="1"/>
        <pt x="55" y="665" on="1"/>
        <pt x="207" y="547" on="1"/>
      </contour>
    </TTGlyph>
    <TTGlyph name="one" xMin="15" yMin="0" xMax="372" yMax="676">
      <contour>
        <pt x="372" y="0" on="1"/>
        <pt x="372" y="676" on="1"/>
        <pt x="192" y="676" on="1"/>
        <pt x="15" y="594" on="1"/>
        <pt x="37" y="439" on="1"/>
        <pt x="170" y="492" on="1"/>
        <pt x="170" y="0" on="1"/>
      </contour>
    </TTGlyph>
    <TTGlyph name="onehalf" xMin="25" yMin="-200" xMax="475" yMax="800">
      <contour>
        <pt x="25" y="-200" on="1"/>
        <pt x="475" y="-200" on="1"/>
        <pt x="475" y="800" on="1"/>
        <pt x="25" y="800" on="1"/>
      </contour>
    </TTGlyph>
    <TTGlyph name="onequarter" xMin="25" yMin="-200" xMax="475" yMax="800">
      <contour>
        <pt x="25" y="-200" on="1"/>
        <pt x="475" y="-200" on="1"/>
        <pt x="475" y="800" on="1"/>
        <pt x="25" y="800" on="1"/>
      </contour>
    </TTGlyph>
    <TTGlyph name="onesuperior" xMin="25" yMin="-200" xMax="475" yMax="800">
      <contour>
        <pt x="25" y="-200" on="1"/>
        <pt x="475" y="-200" on="1"/>
        <pt x="475" y="800" on="1"/>
        <pt x="25" y="800" on="1"/>
      </contour>
    </TTGlyph>
    <TTGlyph name="ordfeminine" xMin="45" yMin="221" xMax="363" yMax="681">
      <contour>
        <pt x="354" y="353" on="1"/>
        <pt x="354" y="566" on="1"/>
        <pt x="354" y="627" on="0"/>
        <pt x="281" y="681" on="0"/>
        <pt x="210" y="681" on="1"/>
        <pt x="165" y="681" on="0"/>
        <pt x="91" y="666" on="0"/>
        <pt x="64" y="655" on="1"/>
        <pt x="76" y="574" on="1"/>
        <pt x="102" y="585" on="0"/>
        <pt x="152" y="597" on="0"/>
        <pt x="181" y="597" on="1"/>
        <pt x="208" y="597" on="0"/>
        <pt x="235" y="579" on="0"/>
        <pt x="235" y="557" on="1"/>
        <pt x="235" y="552" on="1"/>
        <pt x="135" y="546" on="0"/>
        <pt x="45" y="489" on="0"/>
        <pt x="45" y="433" on="1"/>
        <pt x="45" y="393" on="0"/>
        <pt x="94" y="347" on="0"/>
        <pt x="133" y="347" on="1"/>
        <pt x="164" y="347" on="0"/>
        <pt x="214" y="371" on="0"/>
        <pt x="240" y="394" on="1"/>
        <pt x="247" y="353" on="1"/>
      </contour>
      <contour>
        <pt x="363" y="221" on="1"/>
        <pt x="350" y="300" on="1"/>
        <pt x="49" y="300" on="1"/>
        <pt x="49" y="221" on="1"/>
      </contour>
      <contour>
        <pt x="235" y="445" on="1"/>
        <pt x="210" y="425" on="0"/>
        <pt x="185" y="425" on="1"/>
        <pt x="160" y="425" on="0"/>
        <pt x="160" y="453" on="1"/>
        <pt x="160" y="470" on="0"/>
        <pt x="195" y="498" on="0"/>
        <pt x="235" y="504" on="1"/>
      </contour>
    </TTGlyph>
    <TTGlyph name="ordmasculine" xMin="35" yMin="221" xMax="374" yMax="681">
      <contour>
        <pt x="374" y="514" on="1"/>
        <pt x="374" y="552" on="0"/>
        <pt x="348" y="614" on="0"/>
        <pt x="303" y="657" on="0"/>
        <pt x="241" y="681" on="0"/>
        <pt x="204" y="681" on="1"/>
        <pt x="167" y="681" on="0"/>
        <pt x="105" y="657" on="0"/>
        <pt x="60" y="614" on="0"/>
        <pt x="35" y="552" on="0"/>
        <pt x="35" y="514" on="1"/>
        <pt x="35" y="475" on="0"/>
        <pt x="60" y="413" on="0"/>
        <pt x="105" y="370" on="0"/>
        <pt x="167" y="346" on="0"/>
        <pt x="204" y="346" on="1"/>
        <pt x="241" y="346" on="0"/>
        <pt x="303" y="370" on="0"/>
        <pt x="348" y="413" on="0"/>
        <pt x="374" y="475" on="0"/>
      </contour>
      <contour>
        <pt x="368" y="221" on="1"/>
        <pt x="355" y="300" on="1"/>
        <pt x="44" y="300" on="1"/>
        <pt x="44" y="221" on="1"/>
      </contour>
      <contour>
        <pt x="257" y="514" on="1"/>
        <pt x="257" y="479" on="0"/>
        <pt x="228" y="438" on="0"/>
        <pt x="204" y="438" on="1"/>
        <pt x="180" y="438" on="0"/>
        <pt x="152" y="479" on="0"/>
        <pt x="152" y="514" on="1"/>
        <pt x="152" y="548" on="0"/>
        <pt x="180" y="589" on="0"/>
        <pt x="204" y="589" on="1"/>
        <pt x="229" y="589" on="0"/>
        <pt x="257" y="549" on="0"/>
      </contour>
    </TTGlyph>
    <TTGlyph name="oslash" xMin="9" yMin="-10" xMax="518" yMax="505">
      <contour>
        <pt x="518" y="484" on="1"/>
        <pt x="434" y="503" on="1"/>
        <pt x="402" y="463" on="1"/>
        <pt x="373" y="483" on="0"/>
        <pt x="302" y="505" on="0"/>
        <pt x="262" y="505" on="1"/>
        <pt x="212" y="505" on="0"/>
        <pt x="124" y="469" on="0"/>
        <pt x="60" y="401" on="0"/>
        <pt x="23" y="306" on="0"/>
        <pt x="23" y="247" on="1"/>
        <pt x="23" y="198" on="0"/>
        <pt x="49" y="116" on="0"/>
        <pt x="72" y="84" on="1"/>
        <pt x="9" y="11" on="1"/>
        <pt x="93" y="-8" on="1"/>
        <pt x="125" y="33" on="1"/>
        <pt x="185" y="-10" on="0"/>
        <pt x="267" y="-10" on="1"/>
        <pt x="317" y="-10" on="0"/>
        <pt x="404" y="26" on="0"/>
        <pt x="469" y="94" on="0"/>
        <pt x="506" y="189" on="0"/>
        <pt x="506" y="248" on="1"/>
        <pt x="506" y="297" on="0"/>
        <pt x="480" y="379" on="0"/>
        <pt x="456" y="411" on="1"/>
      </contour>
      <contour>
        <pt x="311" y="349" on="1"/>
        <pt x="192" y="200" on="1"/>
        <pt x="190" y="211" on="0"/>
        <pt x="188" y="235" on="0"/>
        <pt x="188" y="248" on="1"/>
        <pt x="188" y="304" on="0"/>
        <pt x="228" y="370" on="0"/>
        <pt x="264" y="370" on="1"/>
        <pt x="292" y="370" on="0"/>
      </contour>
      <contour>
        <pt x="335" y="297" on="1"/>
        <pt x="341" y="274" on="0"/>
        <pt x="341" y="247" on="1"/>
        <pt x="341" y="191" on="0"/>
        <pt x="300" y="125" on="0"/>
        <pt x="264" y="125" on="1"/>
        <pt x="236" y="125" on="0"/>
        <pt x="216" y="147" on="1"/>
      </contour>
    </TTGlyph>
</ttFont>
